<mxfile host="app.diagrams.net" agent="Mozilla/5.0 (Macintosh; Intel Mac OS X 10_15_7) AppleWebKit/537.36 (KHTML, like Gecko) Chrome/130.0.0.0 Safari/537.36" version="24.7.16">
  <diagram id="0d7cefc2-ccd6-e077-73ed-a8e48b0cddf6" name="Page-1">
    <mxGraphModel dx="954" dy="639" grid="1" gridSize="10" guides="1" tooltips="1" connect="1" arrows="1" fold="1" page="1" pageScale="1" pageWidth="1169" pageHeight="827" background="none" math="0" shadow="0">
      <root>
        <mxCell id="0" />
        <mxCell id="1" parent="0" />
        <mxCell id="2" value="" style="swimlane;shadow=0;strokeColor=#4277BB;fillColor=#ffffff;fontColor=#4277BB;align=right;startSize=0;collapsible=0;strokeWidth=3;" parent="1" vertex="1">
          <mxGeometry x="178" y="350" width="813" height="550" as="geometry" />
        </mxCell>
        <mxCell id="103" style="edgeStyle=elbowEdgeStyle;rounded=0;elbow=vertical;html=1;labelBackgroundColor=#ffffff;startArrow=classic;startFill=1;startSize=4;endArrow=classic;endFill=1;endSize=4;jettySize=auto;orthogonalLoop=1;strokeColor=#4277BB;strokeWidth=2;fontSize=14;fontColor=#4277BB;exitX=1;exitY=0.5;exitDx=0;exitDy=0;" parent="2" source="PO05EdHQ-00gVQy-0LEZ-106" target="77" edge="1">
          <mxGeometry relative="1" as="geometry">
            <mxPoint x="182" y="90" as="sourcePoint" />
          </mxGeometry>
        </mxCell>
        <mxCell id="106" style="edgeStyle=elbowEdgeStyle;rounded=0;elbow=vertical;html=1;entryX=0.5;entryY=0;labelBackgroundColor=#ffffff;startArrow=classic;startFill=1;startSize=4;endArrow=classic;endFill=1;endSize=4;jettySize=auto;orthogonalLoop=1;strokeColor=#4277BB;strokeWidth=2;fontSize=14;fontColor=#4277BB;entryDx=0;entryDy=0;" parent="2" source="77" target="PO05EdHQ-00gVQy-0LEZ-109" edge="1">
          <mxGeometry relative="1" as="geometry" />
        </mxCell>
        <mxCell id="77" value="" style="swimlane;shadow=0;strokeColor=#4277BB;fillColor=#ffffff;fontColor=#4277BB;align=right;startSize=0;collapsible=0;strokeWidth=3;" parent="2" vertex="1">
          <mxGeometry x="320" y="128" width="137" height="100" as="geometry" />
        </mxCell>
        <mxCell id="86" value="COMPUTE SCORE" style="aspect=fixed;perimeter=ellipsePerimeter;html=1;align=center;shadow=0;dashed=0;image;image=img/lib/ibm/infrastructure/dashboard.svg;rounded=1;labelBackgroundColor=#ffffff;strokeColor=#666666;strokeWidth=3;fillColor=#C2952D;gradientColor=none;fontSize=14;fontColor=#4277BB;" parent="77" vertex="1">
          <mxGeometry x="35" y="16" width="60" height="60" as="geometry" />
        </mxCell>
        <mxCell id="79" value="" style="swimlane;shadow=0;strokeColor=#4277BB;fillColor=#ffffff;fontColor=#4277BB;align=right;startSize=0;collapsible=0;strokeWidth=3;" parent="2" vertex="1">
          <mxGeometry x="630" y="128" width="160" height="342" as="geometry" />
        </mxCell>
        <mxCell id="PO05EdHQ-00gVQy-0LEZ-112" value="" style="image;aspect=fixed;perimeter=ellipsePerimeter;html=1;align=center;shadow=0;dashed=0;fontColor=#4277BB;labelBackgroundColor=default;fontSize=12;spacingTop=3;image=img/lib/ibm/users/integrated_digital_experiences.svg;" vertex="1" parent="79">
          <mxGeometry x="50" y="66" width="60" height="60" as="geometry" />
        </mxCell>
        <mxCell id="PO05EdHQ-00gVQy-0LEZ-117" value="&lt;span style=&quot;color: rgb(66, 119, 187); font-size: 14px; background-color: rgb(255, 255, 255);&quot;&gt;&lt;b&gt;USER INTERFACE&lt;/b&gt;&lt;/span&gt;" style="text;html=1;align=center;verticalAlign=middle;resizable=0;points=[];autosize=1;strokeColor=#6c8ebf;fillColor=#dae8fc;" vertex="1" parent="79">
          <mxGeometry x="5" y="18" width="150" height="30" as="geometry" />
        </mxCell>
        <mxCell id="PO05EdHQ-00gVQy-0LEZ-122" value="&lt;b&gt;Score&lt;/b&gt;" style="text;html=1;align=center;verticalAlign=middle;resizable=0;points=[];autosize=1;strokeColor=none;fillColor=none;" vertex="1" parent="79">
          <mxGeometry x="45" y="242" width="60" height="30" as="geometry" />
        </mxCell>
        <mxCell id="PO05EdHQ-00gVQy-0LEZ-123" value="" style="shape=image;verticalLabelPosition=bottom;labelBackgroundColor=default;verticalAlign=top;aspect=fixed;imageAspect=0;image=data:image/png,iVBORw0KGgoAAAANSUhEUgAAAsEAAAF7CAYAAAAzCFb6AAAYVmlDQ1BJQ0MgUHJvZmlsZQAAWIWVeQdUFEvTds/sbIQl55yj5Jwk55yDqCw5g0tGRUREBBWQIAqIAhdBFIyIiIAEAyJJBUVRFBRQVAxklG8Ieu973//83/n6nJ5+trq6qro61NQOANwVlMjIUJgBgLDwaKqDqYGAm7uHAH4SEAAfIAIhQKD4REXq29lZAbT8bv+zzA0CaK19LLMm67/7/7+F0dcvygcAyA7F3r5RPmEovgYAUuwTSY0GALdGF46LjlzDaAUsVNRAFKev4YANXLyGvTfwpXUeJwdDFHcAQKClUKgBAND1oXSBWJ8AVAbdDNrHFO4bFA4AK4LirWFhEb4AcBuhPBIoTySK1+ah7v0POQH/IdP7j0wKJeAP3pjLeiEYBUVFhlIS/o/u+N9LWGjMbx1iaKUNpJo5rM0Z9duzkAjLNUyL4ulwbxtbFDOheCHId50fxTApMMbMeYMf5vGJMkR9BthQLO9LMbJEMQ+KTcJDbaw26d7+QSbmKEZ3CBwfFG3uhGIOFKf7RRk7bvKcoUY4bOqC6/2phvqb9PsU6rreNV2vYkKc9Tflfwv0M9+Uj6FLDHRyRTEJxSKxQS42KKZDsWxUiKPlJo92YqChzW8eaozDmv0iKHbwCzc12JCPifWnmjhs8meERf2eL+ZMYJC5zSa+Eh3oZLbhH0yHD2XdfnQumD6/cH3n33L8otysfs/F18/IeGPumEm/cGfHTTkLkdEGDhtjEVJkqN0mPyLkF2q6RhdCsXJUrOPmWMQlGt2QG/IR/8hoO6cNO5HEYIqF3YY9SDawAobACAiAGLR6gwgQDIJ6pm9Mo782ekwABVBBAPADMpuU3yNc13vC0acjSASfUOQHov6MM1jv9QOxKP3nH+rGUwb4r/fGro8IAe9RHAYsQSj6O2Z9VPgfbS5gHKUE/Zd2Clp9UHtD0brW//+m/6b+TdFHKVablJjfGgXof3PijHFGODOcCU4S4UK2IlqIFfrUQ6sioo5o/J7H3/zY99h+7FvsU+wo9vnOoBTqv6y0BqOofJNNX3j/0xeIGCpTBTFAdFDpqGSEDeECMogyqkcf0UU1q6BUw02717wi8C/Z/zGDf6zGJh9RnggT2Yl6RIl/j6STolP5I2XN1//0z4at3n/8bfin59/6Df/hfV+0tfw3JyYdcxVzD3MH8wDThLkBBDAtmAZMN+b2Gv6zu8bXd9dvbQ7r9oSgcoL+S9/vlV3zZJR8jfyU/MpGX7Rf/NodDQwjIhOoQQGB0QL6aETwEzAP95HdIqAor6gMwFp82bi+vjusxw2IrfdvGgW9d9UV0aNu8DctAr0zavPRI3Pyb5oYeqY5NQC44uATQ43doCFrDyx6S9CjJ40TjV/CQAKdjyJQBVpADxgDC2ALnIA72IFaH4jucyqIA3vAfpAGMkE2yAenQCkoB1XgIrgCboAmcAfcBQ9BH3gKXqC75x34CGbAHFiGIAgPkSFmiBPih0QhaUgRUoe2QsaQFeQAuUNeUAAUDsVAe6ADUCZ0HDoFnYWqocvQTegO9ADqh55Db6Ap6Bu0BGNgWpgF5oXFYDlYHdaHLWEneDscAO+CE+FU+BhcCJfBF+B6+A78EH4Kj8If4VkMwNBg2DCCGBmMOsYQY4vxwPhjqJgkTAamAFOGqcU0ouv8GDOKmcYsIjiEGRFAZNAdbIY4Iz7ILiQJOYKcQqqQeqQDeYy8QWaQX1gylgcrjdXEmmPdsAHYOGwatgBbib2O7UTP0jvsHA6HY8OJ49TQs+iOC8btxh3BleDqcK24ftwYbhaPx3PipfE6eFs8BR+NT8OfxF/At+AH8O/wCwQaAj9BkWBC8CCEE1IIBYTzhGbCAGGCsExkIIoSNYm2RF9iAjGLWEFsJPYS3xGXSYwkcZIOyYkUTNpPKiTVkjpJL0nfaWhohGg0aOxpgmiSaQppLtHcp3lDs0jLRCtFa0jrSRtDe4z2HG0r7XPa72QyWYysR/YgR5OPkavJ7eRX5AU6ZjpZOnM6X7p9dEV09XQDdJ/pifSi9Pr0O+gT6Qvor9L30k8zEBnEGAwZKAxJDEUMNxmGGGYZmRkVGG0ZwxiPMJ5nfMA4yYRnEmMyZvJlSmUqZ2pnGmPGMAszGzL7MB9grmDuZH7HgmMRZzFnCWbJZLnI0sMyw8rEqszqwhrPWsR6m3WUDcMmxmbOFsqWxXaFbZBtiZ2XXZ/dj/0wey37APs8BzeHHocfRwZHHcdTjiVOAU5jzhDOHM4bnCNcCJcUlz1XHNdprk6uaW4Wbi1uH+4M7ivcwzwwjxSPA89unnKebp5ZXj5eU95I3pO87bzTfGx8enzBfHl8zXxT/Mz8W/mD+PP4W/g/CLAK6AuEChQKdAjMCPIImgnGCJ4V7BFcFhIXchZKEaoTGhEmCasL+wvnCbcJz4jwi1iL7BGpERkWJYqqiwaKnhC9JzovJi7mKnZI7IbYpDiHuLl4oniN+EsJsoSuxC6JMoknkjhJdckQyRLJPilYSkUqUKpIqlcallaVDpIuke7fgt2isSV8S9mWIRlaGX2ZWJkamTeybLJWsimyN2Q/y4nIecjlyN2T+yWvIh8qXyH/QoFJwUIhRaFR4ZuilKKPYpHiEyWykonSPqUGpa/K0sp+yqeVn6kwq1irHFJpU/mpqqZKVa1VnVITUfNSK1YbUmdRt1M/on5fA6thoLFPo0ljUVNVM1rziuYXLRmtEK3zWpPa4tp+2hXaYzpCOhSdszqjWwW2em09s3VUV1CXolum+1ZPWM9Xr1JvQl9SP1j/gv5nA3kDqsF1g3lDTcO9hq1GGCNTowyjHmMmY2fjU8avTIRMAkxqTGZMVUx3m7aaYc0szXLMhsx5zX3Mq81nLNQs9lp0WNJaOlqesnxrJWVFtWq0hq0trHOtX9qI2oTb3LAFtua2ubYjduJ2u+xu2ePs7eyL7N87KDjscbjnyOy40/G845yTgVOW0wtnCecY5zYXehdPl2qXeVcj1+Ouo25ybnvdHrpzuQe5N3jgPVw8Kj1mtxlvy9/2zlPFM81zcLv49vjtD3Zw7QjdcXsn/U7KzqteWC9Xr/NeKxRbShll1tvcu9h7xsfQ54TPR1893zzfKT8dv+N+E/46/sf9JwN0AnIDpgJ1AwsCp4MMg04FfQ02Cy4Nng+xDTkXshrqGloXRgjzCrsZzhQeEt4RwRcRH9EfKR2ZFjm6S3NX/q4ZqiW1MgqK2h7VEM2Cvsh3x0jEHIx5E7s1tih2Ic4l7mo8Y3x4fHeCVMLhhIlEk8S/diO7fXa37RHcs3/Pm736e88mQUneSW37hPel7nuXbJpctZ+0P2T/oxT5lOMpPw64HmhM5U1NTh07aHqwJo0ujZo2dEjrUGk6kh6U3nNY6fDJw78yfDO6MuUzCzJXjvgc6TqqcLTw6Oox/2M9WapZp7Nx2eHZgzm6OVXHGY8nHh/Ltc6tzxPIy8j7kb8z/0GBckHpCdKJmBOjhVaFDSdFTmafXDkVeOppkUFRXTFP8eHi+RLfkoHTeqdrS3lLM0uXzgSdeXbW9Gx9mVhZQTmuPLb8fYVLxb2/1P+qruSqzKz8eS783GiVQ1VHtVp19Xme81k1cE1MzdQFzwt9F40uNtTK1J6tY6vLvAQuxVz6cNnr8uAVyyttV9Wv1l4TvVZ8nfl6Rj1Un1A/cyPwxmiDe0P/TYubbY1ajddvyd461yTYVHSb9XZWM6k5tXm1JbFltjWydfpOwJ2xtp1tL9rd2p902Hf0dFp23r9rcrf9nv69lvs695seaD642aXedeOh6sP6bpXu649UHl3vUe2p71XrbejT6Gvs1+5vHtAduPPY6PHdJ+ZPHj61edo/6Dz4bMhzaPSZ77PJ56HPvw7HDi+/SH6JfZkxwjBS8IrnVdlrydd1o6qjt98Yvel+6/j2xZjP2MfxqPGVd6nvye8LJvgnqicVJ5umTKb6Pmz78O5j5Mfl6bRPjJ+KP0t8vvZF70v3jNvMu6/Ur6vfjnzn/H7uh/KPtlm72VdzYXPL8xkLnAtVi+qL95ZclyaW41bwK4U/JX82/rL89XI1bHU1kkKlrL8KYNAK+/sD8O0cAGR3AJjR/Iy0bSP/2ywY9OUDRlsXSBb6CHdgDiCOWD2cOJ6LwEHkJ+nQ2NCGkLPpbtJPM8ow+TGXs4yxSbEncLRw0XO78lTwfufXFkgVfCTMKOIgelTsoQSQVJLylz6xpUtmXk5C3l4hWbFG6akKrKqgtl09Q6Ne8402WUd9q5fuYb3L+i8NCUaqxj4m2aYNZq8sIEsRK1PrYJss22t2z+wXHNmclJxtXcJcj7rVuj/0eLNtxnN++/JO4EWicHrL+Oj7Ovjt9PcLoAQ6BmkHC4RAIaOhLWFnwg9EBEba7VKnCkQRor5ED8Y0x1bF5cYnJYQmuu8236OzVy1JdZ9Gsv5+yxTXA36p0QcPpuUdqki/erg1oztz8MjroxPHPmV9y57NmTs+mzubt1SAnGAt3HLS9JRP0b7iwpLa0y2lD888OTtcNlo+VfGjEnOOtUqq2uC8Z03chbyLV2r7675eZryidNXxWtT17PrqG40Nd262N7beutV0/XZdc3VLeWvJnfy2jPY9HcGdjndV73HcW7w/+qC36+7D9u47j5p66noL+6L6DQfIA48fFz3xf6oyiB0cGqp6Fvtcbxg3fA/dXyovJ0ZyXmm9Gnt9dFRr9OOb0rcOY5ixunHn8cV3ee+3vG+ZcJgYnzw4JTc1/qHqY/i00vTsp7rPPl8Yv1yfsZt5/3XPN/Zvd79n/Qifpcz5o/tofKnzp+zq6vr6C0OX4GCMImYSuYxNxrnhdQgyRHGSOI0QrTxZk86e3ochibGUqZl5ipWBTZ2dwpHOeY3rFQ8NrxLfNv5kgbOCLUIvhGdFacT4xVUkzCW9pBKkc7dclumWnZRHFAQVtZU8lKNVMlUr1G6qP9J4q/lDG6fDvVVB11ovVD/L4JJhn9EnE4Ipr5miubGFs6WPVbh1vE2S7QG7g/ZpDumOGU5HnDNcUl0T3ALdnTyMtul6mmz32BG3M9/rEqXNu8un0/e6X7H/7gDXQPkg2qDp4L6QxtDqsKLwrIiUSOouT6peFH/UcvTTmIuxaXHe8cYJ8okiu3n3cO5lTWLYh9s3l/x2f1fK5QP5qXEHt6dZHDJKtzpMydif+deRu0dfHfucNZs9nzN7/HvuTN6n/OmCzycWTjKc0igKL64s6Tk9Vjp15t3Z12XPy/sr7v/VXNl0rqvq03nBmu0Xii8+r2O5ZHM5Hb29Fq/L1vveKGoYaMTeUm7aeftgc2VLU2vznfNt2e17O+I6k+9m3Su5X/7gdNexhzHdjo9kepCe4d4rfZn9wQP2j42fGD+1H/QeinmW+vzQ8N4X/i8NR7hGpl/dfH1o1O2NzFvC2/dj7eMl73a915ugnXgyWT6170PQR9/pwE9hnyO/RM5EfqV+i/2e8CNuNmjOdJ5+/uqC8cLDRY/FT0t9K7Q/h9fXXxp0QJbQM9gPg8NkIdJILzYRJ4ebwv9FCCTKERdJXTSltHFkBzpFejr6OYbnjK1M1cy5LHtZA9gc2HU4JDlZOVe4JrkHeJp5a/nK+YsECgTzhLKE00RiRSlixuIC4gsS3ZKlUlHSZlsEZWCZKdkhufvyjQrnFQuVkpW9VDRUcaq9avnqbhqcGs81S7R8tRV1cDqvttbrZukF6hsZiBkyGAGj78YTJoOmt8wKzP0sRC1GLQutbK3x1u02B2zN7TjsPtg3O+Q6BjppOZOdX7lcdN3jZuHO6v7ao2pbBBr/F7ff3pG809CL4NVPKfYO8dH2pfUd9jvnvytAPWAlsCUoOVgvBIS0hu4PMwxHwjsjDkbqRy7sqqG6ozG7Oto2+kdMYax27Ku45Hje+NsJXolsicO7a/Yc2OuWJJE0t689OXd/QIrRAalUjoM0aSDtx6Gx9EeH6zKOZFKOKB/FHx0+dikrIzskx/Q40/G7udtyp/MS8/ULDE6knyScyigaL+E8rViqcUbjrEqZXLlEheBfnJWM50hVxGp6dCfpXPC6eKj2Yt3jSytXJK56XDt+vf8GS4P7zeLGoSbsbclm0xbv1n13Trc1t7/uWL0reM/wfsCDI12XHw52/+yR7N3Wd6L/1WPFJ0effh5yfHZzWPBF/ojca7o3ceOZkwmfbL7NLdqvrf/G/4BrBacKQC6aZ7ocResUADk30DzzFgDsJADsyAA4aQD4UC2ATWsBFHLwT/yA0MSTgOacbIAfSAJlNNO0Ah5o1hwPDqMZ5QXQDAbAe7ACMUGSkB6aH0ZBR9F8sBMagyFYEDaAfeFDaJY3AC9hhDHWmERMFWYIISCaSBhSjjzHMmEt0YysHQfh9HDJuDY8Fm+Bz8Y/IwgSQgk3iXiiK7GKuESyJp0lzdPY0FTRIrTetO1kUfJh8mc6J7omNNPJYQAMuxjGGd0Ze5lMmG4zqzPXs2iytLM6sI6xxbDj2As4xDgaOG04J7nSuRW4x3hKeb35pPkW+O8K5Av6CikL44RfiFwVzRILFbeUkJYkS85IPZW+teW0TJKsp5yGPIv8jMIjxfNKh5UDVSxUZdVY1VbVP2m80hzQ6tLu1OnYek+3R29Yf9JgzggY49B7jmBGMCda0FqyWAlaK9vY2Ibb5dk3ObxzIjsru7i77nU7497hMeFJs11+h8vOPV4VlB7vBV8RP0f/gwFNgUvBhiEnQxfDfSIGdplQm6KVY+riZOIvJ2rv7tsbsY8neTAlL9Xq4NyhvMNbMjqP+B1jzXqd8yh3JH+1UOCURrHV6Z1nEsrOVAyfk6k+c0G+dvTy2Ws7btDcrG3a3iLdxt9pcr+sm7ZXon/uSc6QxPP+l6dfn3g78N5ravET05cL38AP+TmN+dXFjKWG5Scrt36W/4pcVVu/P6D1/xyYADcQA4pAF1gDTxAGkkAOqAA3QS94B35CbJAcZAH5QwegMugO9BZGYHHYCqbCp+B2+AuGB2OJ2YOpw4wjXIgDkol0YiGsDnY39hZ2BaeLO4B7gGfAu+P/wn8j6BNyCe+JWsRc4jTJBF3zFRo3mmtoJkylfULWIJ+ho6GLp5ugd6fvYTBhaGXcytjCZMjUxezIPIJmpkusWWxSbA/Zd3GwcdRz2nO+50rgJnNX8OjxjPPm8Fnw0/GPCFwVPCYUJGwgwiHyUfS2WLa4v4SBpKgUkzRhC1aGIEsnxyTPqEBQWFScVBpS7lK5o3pHrUv9hcY3LTpteR37rUG60XpU/UADN0NTIw1jZRN1U1OzneZJFmct71nN2HDbGtuFoDEtz/GEU75znssZ1xa3rx4q25I9H+3g2xnt1est7OPvm+933b8nYDxwOZgtRCnUKSw2/FREa+QHKnuUSXRszLnY4XiGBOvErN3P9ool7d03tj/gAENqV1p0Ou7woUzkSPox7qz2nJRct3zDE1ontYq0SjRKJc8iZXcrYiu5z92u9q5hvTBS23mp98rsdYUbe24+bKJvNmqltlV2TN0zeHClW6GnuG9k4MeTr4MTz8aGJ1/+eA29IY2xvBOZMJsqmFb7kvG9cj50sWc5daX9549fi+vrD6OnnxHwARmwFdgDf7AXFIBLoBt8gIiQNGQNUaFCqBX6ALPBRnA0XAkPYxgx5phUTCvmJ6KFJCKNyApWH5uBHcJJ4vbjRvBb8WUEAiGC8ISoQSwhwaRg0lMaI5pbtBq0d8h25Pd0KfSC9K0MngxzjNlMMkyPmMNZyCxVrAasL9kS2PnYeziOcXpzGXBL8bDwLPOO8DXwHxcIE7QSkhfmEMGJLIp+Ffsi/l3ipxSdtMgWPRkv2WS5EvkGhceK35W5VMxVU9TaNWg1PbUu6eDRd9VmfSGDXCM241pTD3NGi36rUzYRds4Oio7Dzh4u3W5m7o+3+Xsu7DjgBVEivZ/6qvkVBxAD9weTQsrDrCNA5A1qRDRfTHtcTILv7s9JFckJ+wdTVlLhg4Q0hkNK6VGHn2Q6H5k6lp4tm/M8Nz1fq+BrYfWpHcWkknOlamdul+mWt/5lVNlVZVf9pMbpQl+tSd3NyxJXTlwjXN9bv9JwuFHsVt/tlBbV1qm24g7bu8i9Ww+iHkp3j/ec7nMbYHk88DRryOLZ6vCFl7Yjk69jRn++TRnHvEuZgCcPfEA+7pv+/NnkS8JMydej32K+G32f/3F+1mb2xVzg3Nx87PzUgudC76LhYs0SeSlyaWBZZblw+euK+UrZyvJPp58Xf2F+uf26sAqtOq+eX1v/jW9H6/GDAYDi12uoS+rB2X9/t9n4rvSP3OTfLViPLmtlLbqslbVIA/4Hq1Dbb1b6fAUAAABWZVhJZk1NACoAAAAIAAGHaQAEAAAAAQAAABoAAAAAAAOShgAHAAAAEgAAAESgAgAEAAAAAQAAAsGgAwAEAAAAAQAAAXsAAAAAQVNDSUkAAABTY3JlZW5zaG90QHKZawAAAdZpVFh0WE1MOmNvbS5hZG9iZS54bXAAAAAAADx4OnhtcG1ldGEgeG1sbnM6eD0iYWRvYmU6bnM6bWV0YS8iIHg6eG1wdGs9IlhNUCBDb3JlIDYuMC4wIj4KICAgPHJkZjpSREYgeG1sbnM6cmRmPSJodHRwOi8vd3d3LnczLm9yZy8xOTk5LzAyLzIyLXJkZi1zeW50YXgtbnMjIj4KICAgICAgPHJkZjpEZXNjcmlwdGlvbiByZGY6YWJvdXQ9IiIKICAgICAgICAgICAgeG1sbnM6ZXhpZj0iaHR0cDovL25zLmFkb2JlLmNvbS9leGlmLzEuMC8iPgogICAgICAgICA8ZXhpZjpQaXhlbFlEaW1lbnNpb24+Mzc5PC9leGlmOlBpeGVsWURpbWVuc2lvbj4KICAgICAgICAgPGV4aWY6UGl4ZWxYRGltZW5zaW9uPjcwNTwvZXhpZjpQaXhlbFhEaW1lbnNpb24+CiAgICAgICAgIDxleGlmOlVzZXJDb21tZW50PlNjcmVlbnNob3Q8L2V4aWY6VXNlckNvbW1lbnQ+CiAgICAgIDwvcmRmOkRlc2NyaXB0aW9uPgogICA8L3JkZjpSREY+CjwveDp4bXBtZXRhPgoiwIE7AABAAElEQVR4AeydB1hURxeGPzoICIJgQUCliKKAHbEG0Wg0xpZqTY+mN3/Tm4kpphhjbDHRWKLGRI1d7KBi76AIKIgUFRTp/T9zYWkiUrbc3T3z5HL7zJl3NvJx9swZg2Iq4MIEmAATYAJMgAkwASbABPSIgKEe9ZW7ygSYABNgAkyACTABJsAEJAIsgvmDwASYABNgAkyACTABJqB3BFgE692Qc4eZABNgAkyACTABJsAEWATzZ4AJMAEmwASYABNgAkxA7wiwCNa7IecOMwEmwASYABNgAkyACbAI5s8AE2ACTIAJMAEmwASYgN4RYBGsd0POHWYCTIAJMAEmwASYABNgEcyfASbABJgAE2ACTIAJMAG9I8AiWO+GnDvMBJgAE2ACTIAJMAEmwCKYPwNMgAkwASbABJgAE2ACekeARbDeDTl3mAkwASbABJgAE2ACTIBFMH8GmAATYAJMgAkwASbABPSOAItgvRty7jATYAJMgAkwASbABJgAi2D+DDABJsAEmAATYAJMgAnoHQFjvesxd5gJMAEmoCECFyOvYM3a7bC1tcarU5+SrCgqKkLowZMwMjRE74DOGrKMm2UCTIAJ6B8BFsH6N+bcYyagVwRSU9Owe+9hxFy+htzcPJiYGMPJyRG9evjC3d1FrSyys3MgRK+wQ1HOh0djz94j0qmjoz08GmCTqHfLthDEXU3EnTuZMDMzRfNm9ujZwwftPFsrmuQ9E2ACTIAJEAEWwfwxYAJMQGcJXEu4jsV//Ivi4uKyPgqhGBMTL21CHA4Z3LvsniYOmjnawcDAQGra3s6mkgmffzkfVlaN8NbrEytdr+5EiP2Fi9dWEthCdF++ck3a2nm2weOPPljWVnV18DUmwASYgD4RYBGsT6PNfWUCekTg9u07WPLnekkAN25shQB/X3Tq6IH8/AIcPnIWhw6fRnp6psaJCO/vB9NfkOwwMiqfppGVlS3ZLuytTdm8db8kgE1NTTBsaD+092qLzMwsnDh1AaEHTiAl5RYL4NqA5GeYABPQGwIsgvVmqLmjTEC/CCz4bS0KCgqlkICpLz4u7RUEBg8KgK9vOzg62Cku3bUX4jP5egqFEzSFsbFRpftpaRkQXtZmFGqg8OJWeqDCSUrqbenM3s72ns9WFL+KVzMyshSHtdrHxiVIz/Xv2w0+nTylY1vbxggc0AOdfb3QqJH5PevJy8sv66sIF7lXEX0Rscui3toUZTGsTVv8DBNgAkygrgTu/a9dXWvi55kAE2ACMiFwKSoWOTm5kjVPTxpZSQArTGxGHtiKRUxYu3DxMiaMexjHT4QjPCJa8sR29PbAmFFB0qPCexx64CSEl1ZROvt54eFhA+4SuLv3HMaRY+fKwhOE0G3t6qR4rWyfmZmN739aKp1//MFL0n72L8shhLYooh8iLEIUIbpffO5R6bjqD0XER3WCukmT6kXryVMR2Lv/GMUPl7Ql6rSjkIynnngIQrSLIkJJ1m3YBTGpT4hlUYS3WXjVhz/UXzpX/FA2Q0W9vGcCTIAJqIJA+Xdvqqid62QCTIAJaIDAmbORUqtiYlhVsXsvcwoKCiTBt2HjHpwPj5JErQijUEwoO3zkDHYEH5QEsHOr5nB3c4EheUVPUriBEIkVy76QYwihEAQRfywEY/PmTaXb0TFXKz5WdiyEZsW4ZXMzM2kCn+IB4cUVm0PTJopLd+3FBDhRtpONR0l8368Iof/fpr2SABaebqeWjpKtIrb4UNjpsteXr9yEs+cuSQJYhG4IG4QYFu+v/XdH2XPiQJkMK1XMJ0yACTABFRBgT7AKoHKVTIAJaJbA7bR0yYCmNYjGe1mYRu92aO+G0SODoPCqJiTewLYdB6RXxj81HG5tnaVjEXc8+5cVkkgcHBQgTWKLv5aMvfuOSveFl3jE8AekYyEcV67aAkXYgnTxHj9efP5RSYiv/TcY5uZmeOfNyfd4svzymFGDMG/haikERGSI2Lk7TMoK0YfSrgkhXrEkJt3Api37pEsVPd0ic0XY4TPoRfHTouzZd4SyasRLfxBMnvgIXJxbSNejouKwcvUWsjEari7n0L1bR+m64kdDGSrq4T0TYAJMQJUE2BOsSrpcNxNgAhohkJWVI7VbU8zvvQwTovPRMYPLBLB4ToRGiCJCBRQCWJyL2FjhLRZFZGEQJeJCjLQXWR0UAlhcEELUj+KQVVWEbS+/9CSJ0pZSE0J0h4QexzezfscuEsRC4CpKeESJjdbWlmWhHuKe8GwH9PIrC+24cPGK9EqXzu3LBLC4IFLLebVrI90LL+2vdFL6o6EMK9bFx0yACTABVRFgT7CqyHK9TIAJaIyAqUmJ51N4JOta2nuViLuK7wlvqChiUtjW7SEVb0meV3Hhxs1b0vXY2JIJam3btKr0nDpOxCIcwmMrQhp2UUyyEOSKxTiEN1vEO4sSUxqWUVHQV2ffzdI+denc4a7bQtCL+hMoDV3V0lCGVevjcybABJiAKgiwCFYFVa6TCTABjRKwtm6EpORyYVo3YwzuejwlpSTDgxC6CrFb9SFFKrObpc+2aOFQ9RG1nQuvsPBmi0l3q9duw9WrSVJYg/BWt2ntBIWNLWuwUaSPU3iPm5C4rlpsbUquCY+zeE54kctLwxiW18NHTIAJMAHVEWARrDq2XDMTYAIaIiC8sJcoblWkGRMirWpMbF3NEmEP1yldWr++XdHFr321r1tYlKQgE6EAYkKcSKGm6WJpaYFnJo3C198tlmyKio6TRLANCdgbN1KRXkMaNhEqIdK/iQl7IlOFon+KPokV6UQRbCsLYMUTlfd1YVj5TT5jAkyACaiGQMU/3VXTAtfKBJgAE1Azgc6lQlUIOJHdoLoixLHwlNamtHEtibONi0uEEJDVbQqhrfCQisljDSkKYanwxt6vLpHR4n7PKup0dSmZ4CbeqakoVrBTZNuo+OzZ85ekU0Xmi4r3qjuuC8Pq3udrTIAJMAFlE2ARrGyiXB8TYAIaJyBSoyly2F6NT4LIliC8s4oivKA//rwMv8z7q9J1xf2qe7H6mihXKN5X5NatWES9ithZcd3Xp2ShChGDG3npStmjt2+nI3hXWNn5/Q4UmRhqI9ZFOjaRSUL0SXisFUX8EXDw0KmyPvpQbl9RFJPaROywWE2uYhGp4MQiIaJ4eLhK+8NHz1J4yU3pWPwQ4RUibZooihRy0kkNP+rCsIZq+BYTYAJMQGkEOBxCaSi5IibABOREoGuXDki9lSaJQJE3V2xi4lhOTl7ZQhrCo1tYWHhfs13JEzygf3cp9ZnIrSuEpYj5FSEBQmQLL/D/3nlGqkd4oXfvPSKFYvy1equ04py4IYRlxVzA92tUhDI0amQh5SUWi2eIWF4DA0M88diQu14VHluRzk2Ef8xbuEbKMWxDWStSb90p8w6LEBGH0hXyxIQ4/x4+CCPBKybQnSBhb29vi0QS7sI7LmKKX536FAYN7AXh/b5Gk98W0gp8LSmXMHUCQuCLvogsEQH+fnfZU92FujCs7n2+xgSYABNQNgEWwcomyvUxASYgGwJCxBkZGdHiD6ekLA7CGyuKEIzCGypyAStCBO5ntFiOWMTIioUkxMQyxeQyUZfIB1yxTH3xCfy5/D/Je6rwoIpY4THU3opVm2vdpljyWOTzFZPuIi/FlsXoVl2qWeQ1FqnR1q4LRjyJcvG8wj6xEIZIcTb0wb4VTcSDg3tL9R0/GY5bJJbFJor4Q2Hs6EHSsWjnmcmjsGrNVkTHxOMa5UAWRdTZzrNN2XPSxVr8qAvDWlTHjzABJsAEGkTAgP6aL25QDfwyE2ACTEDmBMQ/cyLDgxDBwssptoYU4XEV4rapfRNJNN6rLrHksfCaCk+t8DrXp4hwC+GJFUWs6iZCPe5XxDLI1ynko3mzptICHvd7XnARXvMWzR1oApzZPR8XfTE0NCjzbt/zwVrcqC3DWlTFjzABJsAE6kWARXC9sPFLTIAJMAEmwASYABNgAtpMgCfGafPose1MgAkwASbABJgAE2AC9SLAIrhe2PglJsAEmAATYAJMgAkwAW0mwCJYm0ePbWcCTIAJMAEmwASYABOoFwEWwfXCxi8xASbABJgAE2ACTIAJaDMBFsHaPHpsOxNgAkyACTABJsAEmEC9CLAIrhc2fokJMAEmwASYABNgAkxAmwmwCNbm0WPbmQATYAJMgAkwASbABOpFgEVwvbDxS0yACTABJsAEmAATYALaTIBFsDaPHtvOBJgAE2ACTIAJMAEmUC8CLILrhY1fYgJMgAkwASbABJgAE9BmAiyCtXn02HYmwASYABNgAkyACTCBehFgEVwvbPwSE2ACTIAJMAEmwASYgDYTYBGszaPHtjMBJsAEmAATYAJMgAnUi4Bxvd7il5gAE2ACTIAJ1JJAXl4+9oUcQ1T0Vdjb2WDI4N5o3NgKxcXF2LYjFJcvX0OrVs0xbGg/GBmV+GZi4xKwe+8RFBUVoX/fbnB3c6lla/wYE2ACTKB2BNgTXDtO/BQTYAJMgAnUk8CSZRtw4mQE3Nq2QmpqGvaHHpdq+mddME6eugDvDu4Ij4jGylWbpetpaelYuuw/mJuZwdamMVb8tRk3bqTWs3V+jQkwASZQPQH2BFfPha8yASbABJiAEggIcZuUdBOvTn0KTZo0LquxoKCQhG8MRgwfAD9fL7Rs6SiJ4OzsXBw4dAoWFuZ48vGh0vPXEpIl4Txm1KCy9/mACTABJtBQAuwJbihBfp8JMAEmwATuSSAuLlESvyLM4VJUrBTeIB5OTb0thUO082wjvevu5iztk5JvIiHxBpxbNZPOxQ8X5xaSkC67wAdMgAkwASUQYE+wEiByFUyACTABJlA9gaTkFNy5k4E5v66EgYEBCguL8NQTD6G4qFh6wcLCTNqLe2JLT89EVlY2HB2alFVoaWmBLPIQc2ECTIAJKJMAe4KVSZPrYgJMgAkwgUoExMQ2ExMTvPPmZLz/v+fhRGEPByncwbxU/IqwCEURE+XMzU1hSs/n5RUoLtNxPkxN2WdTBoQPmAATUAoBFsFKwciVMAEmwASYQHUEWrRwgKGhAczMTKXbrSjMQYQ7NLEtiQ8W4Q+iiAlzotjb28LGxho3b96SzsWPGzduSdkkyi7wARNgAkxACQRYBCsBIlfBBJgAE2AC1RPw7uCGzMxsygIRgezsHJw7H4UWzZtChDiIiXI7d4VJLwbvOoRGjSwohZotunX1RvL1FEks30y5jbiriejauUP1DfBVJsAEmEA9CRjQ108lgVn1rIBfYwJMgAkwASZQE4G9+49if8hxaSKcELpTXngMVlaNILzAi//4FyIkwtDQEJMnPAJn5+ZSVWv/3YHz4dHSsVtbZ4x/anhNTfA9JsAEmECdCbAIrjMyfoEJMAEmwATqSkDEBqenZ1Gog9Vdr4pQCDtaRKNqEenSxHvCa8yFCTABJqBsAiyClU2U62MCTIAJMAEmwASYABOQPQGOCZb9ELGBTIAJMAEmwASYABNgAsomwCJY2US5PibABJgAE2ACTIAJMAHZE2ARLPshYgOZABNgAkyACTABJsAElE2ARbCyiXJ9TIAJMAEmIBEYNGgQk2ACTIAJyJYAi2DZDg0bxgSYABNgAkyACTABJqAqArwOparIcr1MgAkwgXsQEGm/8vLyKm25ubk1nufl5iE3LxeFhYW0hLAprcBmJu3FcXXn1V0Tyxerq7AXWF2kuR0mwATqS4BFcH3J8XtMgAnoPYHs7Gxa0vdG+Xb9Om5cvowbCQnIontlQregALkkXvPERgI4v8oaRca0ZJFFUSHM6b45PWsh9oqtyrkJvZtqZISc0i274rGfH3IybyEn/QZyCoyQnV/5yz5DAwOYmhjSZkzC2RhmQkBLYtocpuYWlKvXAQ6OjnBwoH2Fzd7evl5jHRwcXK/3+CUmwASYgDoIsAhWB2VugwkwAa0jIDyzlQSuELvXruFGfHzJ9bQ0ZOTnS/0S/5A60LFDRgYc6D33nBxYkXhVCNmKora6Y2MSxg0uJGhx5AgQvxHYO6KsOkkMkyDOyadNCGNxrNjoWsXz1OtmiL9iiZNZjXAjwxR3cgykeoR4dmjSCA5Nm5BIbg6H5i5waNaiklBu0qRJWZt8wASYABPQBgK8WIY2jBLbyASYgNIJZGZmIioqqrLQTUyUvLg3UlNJAOZIbQpfqgN5ZR2ysuBA7wiR60D3pK30uAmFNmi8WNFKbOnpQNxaYP+jSjEnl8Ty9Uwz3Mgyx43Mkq3sPMuKrpkiK69EKBsbGcLBzoqEcVMSyC1pa1Umkp2dndGqVSul2MSVMAEmwASURYA9wcoiyfUwASYgWwK3bt2SBK8QvVFnz0rHCXRNFAcKJ3AgEetAArLVnTvoXEXg2pPQ1YpCYQ1SKSwR78qw2cy4EM42WdJ2r/oy8oxLBHKpUJZEcpw5Lly0REiWJXmUjZBXAJibGsGjTUu4t+sID69OcHd3R5s2be5VLV9nAkyACaicAItglSPmBpgAE1AngeTkZEnkXgoNRVR4OKIoTjeFQhNsKOTAjURuW9r8SfC6UehCW+E51ZUiwiFEKVSvaLcyLYCVaQbaNMkoab+an4npFoi5ZU3bJcScOoHD+2yRkGYCYyMDuLs6wsPTC+7tu8DDw0MSxwYUfsGFCTABJqBqAhwOoWrCXD8TYAIqIxAXF1fi4aVYWIXgTafQBRcKXXAjgStEblsSu+JYazy69aXl6gpcuQJE/kqxwS/Xtxa1vSfikmNShTC2Ktlu20r7bIoscXexgwd5it29e5YJY3VmtlAbBG6ICTABjRJgEaxR/Nw4E2ACtSUghTKIcIaTJ8sEr5hQJoSu2+3bktiVjkn0KmWiWW0Nk8tz5EVFZCQQ8QNw/G25WFVnO8q9xkIck0hOs0fCbUO0bmENd7c28PDuBndPb0kcW1hY1Ll+foEJMAEmoCDAIlhBgvdMgAnIioAQvSdOnMCJ3btxPDoaLekr8rYkdt1SUso8vM0pDRmXUgIdOwIU74xzM4FT7+sUlru8xunNEXPTFK1aOqBL9z7o3LU7/Cg9nBHFd3NhAkyACdSWAMcE15YUP8cEmIBKCSRQbt0zZ87g5J49OHH+PCxpslpnytbwEKUm+5CyNViVpiNTqRHaXLkiJrhIeRPj5ILDnCbodXC8LW0lNl2QdpEpjXEi+gBWHXbD9DgD+HVog849+6Nz5y5o3769XMxnO5gAE5ApARbBMh0YNkv3CMRfS8a+kGNlHRNTf8aOHkyLFpggMzMbGzfvxa3b6fD18USAv1/Zc7FxCdi99wjEKmP9+9JXwW4uZfe0+eA2eXWF6D29bx9Onz6NNApj6EwZG/woF+8k2rekuF4udSCgEMFqnhhXBwuV/qin/R2I7QlcQWGxAU4k2OH40YP4aYsTEimEoksnT3T2D4SPjw9nolA6fa6QCWg/ARbB2j+G3AMtIRB3NRExMfHo0N7tLovnLVxNy+Cawpvu7dwVBiNDQ/Ts4YO0tHQsXfYfTRJylcTyir82Y+qLj1P+Vbu76pD7BbF6miR6Q0Jw5tgxRJKH14/Sj/nS5La3SfS2p8UnuDSAgB6K4Iq0jAyK0d0pRdqA80jNNsPxhNM4ueMQ1iyzQ5GBKTr7esO3+wBJFLdo0aLi63zMBJiAHhJgEayHg85d1gyBrKwcNG5siTGjgioZEB1zVfIET3nhcVhaWiCTngs9eFISwQcOnYKFhTmefHyo9M61hGTsDz1OdQyqVIdcT8IpRZnw8p7ZuxdnKHOBK6Uq87t6FU+R6PWlTayoxkVJBBR5gnUwHKI+hOwscjHILVHaxPsiC8XJxNM48E8Ifp1jKS3s4evbGT7d+kqimFe8qw9lfocJaDcBFsHaPX5svRYRECEPBQWF2LbjAGxsrODT0VMSvSJMwtzcTDoW3fFwd8HJUxFSzxISb8C5VbOyXro4t8A1el6uJZ6WFD5+/Ljk6T1D4teM4nh9KewhMDYWb5LodSxdhU2u9mu1XVriCb6YCLTTgBO2LeUxFtsYxEnDfDLRDqfJU7xh6X7MuFoML4/W8OncQxLEPXv21OqPAhvPBJhA7QiwCK4dJ36KCTSYgAh3ECI4NfU2jp84j737juK1l8fRSreZUiiEogHLRhYoLi5GXl4+srKy4ejQRHFLEspZ2epdDKGs8XscpNKktVBamCJk+3acohRd/iYm8I2JwRM00c2D0pdxUROBMhEs74lx4+YB4deAjrSKcifnkv2bQ9TEqEIznVukQmxANO7kmuB0EsWnR8dh/t4t+DHfCH37P4C+fUu8xBVe40MmwAR0iACLYB0aTO6KvAkMGdwbYhNFeIVn/bgEZ89fkrzAhRXCAvJKsyCICXOmJCjzxJqzpUUIY1NTzf9vm0MeXUn4/vcfDkZEwI9Ee18SwO/Ram12FPvLRQMEFCK4SF5/JFUlce4qkEsf6aMxJdsXY6o+of7zxmb56Ot6HX2xg1Q5KGzCDiFx6Zjx6VY0trUjQTwQffr0gZvb3fH86reWW2QCTEBZBDT/21RZPeF6mIAWERCxv0ZGhjTxLQMOTW3J45sjeX/FcrHJySkwNi7Jd2pjY42bN2+V9ezGjVsUV2xVdq7ug4MHDyLk778RSrG+LjSprS+FOTxPyxK34kwO6h6Ku9tTxATLODtEBHmAhQCuWDqSN1hupcRLvAOvdQJCYh0RciIZr6/5C+5tW6PvgEHo1asXWrZsKTez2R4mwATqSIBFcB2B8eNMoD4EMjKysGzlJjw8rD9aNHeQUqUVFhahvVcbNG/WFJu27MdBmgTXs0cnHDp8Gp4eraVmunX1xspVmyFig4VnWGSYGDkisD4m1PudU6dOIWTjRoSGhaEReYD7UjaH70n4et65U+86+UUVEFB4ggvlGw5xNv7ufneisAg5F8lD7LoDGb7GJIibITT4MubPn4+eXTuhz4DB8Pf3h62trZy7wLYxASZwDwIsgu8Bhi8zAWUSEBPf7O1s8PuSdWUe3769u0BMdBNl2NB+JIT3YefuMFhbW9J5X+m6mCTn3cENixavlc7d2jrDh3KfqrpEUmhD6K5dCNm5E1kU19uHMjq8R8LXj+J/uciUgEIEyzgc4lwVEWxtDriVz/uUKdgSs6xMCzDU45q0JflZYH/sJexYcw5zfjZEv4Du8O8bJAliM4VHXta9YeOYABMQBHjZZP4cMAE1E0ihiXFNbBvDkHIBVyzCMywmydnaWle8LB1n02Q4sViGCKNQVRGZHaQ43y1bEEexvX0om0NfSmsWQPl8uSiXQB5Fu9ywMsANSwPcoiEtoI+CYss3Mig7lq7Rs2Kfr3imyn0rCsG2zi2GVeAQWD8zBVYn34V1xkVYUd5ca1qRRdrTu/Sfxsuon4D1x8vN6OUBHPy4/Fwbjy6lWONAfEuEJbXB7RwzBPQNlMRwjx49tLE7bDMT0CsCLIL1ari5s0ygMoGqmR0CKI9v34sX0Ye8vpzDtzKrms6yTEnUkqAt2UqPJZFb+fpN8QxdTyMPqLpLIxLE1mXCmI4Ni2FPytiB9iUb4GhUfiyuOdJmIpY2VFLxeAeIqpDh74UHgAXPKKlyGVQjJtSFXW+HsKv2MLGwgX/vAZIg7tiRZttxYQJMQHYEWATLbkjYICagegInTpzApg0bEEIT3fyMjNE3/Dz6cGaHasEXkQiMszWQtqul+6rnmhC11RqrgovU5RKRTALZsYJodjOm3Lq0udMmxPL9SjqFKjd+vvJTP08EXh1U+ZqunB2Mc0BYaheExZigWUtnDAwajKCgIFhZaW5iq66w5X4wAWURYBGsLJJcDxNQM4FBgwYhODi4Tq3uojjfTZTdIZayOgxPScHg8+c5swMRvOBogItNDVCdyI23UaIrtE6jpT0PC69xu1JRLPatSTC3Kd3blwrkQ5eAgM8r92nP+8CA9pWv6dpZRp4xQhPbITjWDcnpJgh6cDjE/7tOTk661lXuDxPQOgI8MU7rhowNZgJ1I5BOE9u200IWm9asgVF6BoZfvIBhJIJNKcZY34rw2J5uYYgzLQyk/enSPekULg0gcIPc5TfyDBBK8ckVi0j0J7zFwmuccUkskS228iIWzND1IibUDXE9L22Hrjog+NgtvPT3KgQF9sWgoaPQoUMHXUfA/WMCsiXAnmDZDg0bxgTuT6Amb3AcpTLbTqnNNm3eDA9awGIYeX0fSEq6f6U68kSUfbnQPUPCVwjeK3bs1dXY8G7Ip1lw5SLY2Y7CTGZrzBqNNhx+wwY7L7sgOLo5uvu0RdDDExEQEKBRm7hxJqCPBNj/oY+jzn3WaQKnT5/G9tWrEXz0KAZkZOAzmujmR5kedLlEk+Dd38YQR5xLxK4QvZk0WY2LjAgkV44bluMiGeqi1cEhDR0czmJs+2gSwjGY930k1i61w6CHRiPooUdhQitFcmECTED1BNgTrHrG3AITUCkBhTd479692L58OS5STt8g8gIPo71rZqZK29ZU5SdbGuKQiwFCSPgK8ZvAcbuaGorat/s5LeecWS6Epw0Dvnmi9q/r8pOZ+cbYGd0CweQdzoYdggY/iEHDHkfTpk11udvcNyagcQIsgjU+BGwAE6g/ARHvu3PHDmxftQr55O0NionBMMr32zifvnrWkSI8usLDe7SVIQ66GpLwNUCqyPfFRXsIpJH4/YpEcIXy50vAhN4VLvChRGDvlWZSqEREij0GUdxw0EOPwd3dnekwASagAgIsglUAlatkAqomIOJ9d27dKsX8OlPIQ9ClSxiSkKDqZtVS/7XGBjgqid6SfWhrQ2Tzt8NqYa+yRi7SJMzfK8+aOzkD8HNVWYtaX/EpyjkcfLkVdkY1wwN9upBn+FF07dpV6/vFHWACciLAIlhOo8G2MIH7EBDxvjtpotv2PXvQPysLQbS8cc+bN+/zlvxvHyChu9vNEHtKN/lbzBbWicC+AmALbRVK/lLAmPIOc6mZwOVbVgiOccLOK63h5uZGccNjEBgYWPNLfJcJMIFaEWARXCtM/BAT0CwBEe+7c9MmhFOGhyASvUL8et65o1mjGtC6WFlNIXiF+I104PCGBuCU/6urKTznRHlmiE6UGu3MTPmbLScLU7NNS+KG4zvApFFTBA0ZKeUbtra+e5l1OdnNtjABORNgESzn0WHb9J7ADor33UD5fXNoGeOgK1eksAeHHFp6SwvLKZrMJgnftiX7DDMt7ASbXD8CsykUIqE8L/WTvYCVU+tXlb6/VVRsQBklWmBngh+u3THH8BFj8Mgjj8DS0lLf0XD/mUCdCXCKtDoj4xeYgOoJHKTljNevWIFUiv19hFKcDY2OhrGWLW6RRXG8Cm+v2J9w4u++Vf/JkWkLSeUCWFgoPMFc6kfA0KAYD7onSJtYfGPDvmzs3LYBI8eOw4gRI+pXKb/FBPSUAHuC9XTgudvyJHDmzBmsX7IE4REReISE70jK9mBRWP41sjytLreqkHTuhg5GtBliu6chkq05zKGcjp4eJVFmiB8rZ4b47y3g4c56ykMF3Rae4Q0xnWBo0QwjH5vMMcMqYMxV6iYBFsG6Oa7cKy0jEENid/3SpdgdFoZHLl/GSMrxq01hDyKDgxC+G7yNcKkpC18t+/ip1txT9EfcX5VT9l3+AWjtoNpm9a32YvpbY/0FF2yIao+Wzm0lMdyjRw99w8D9ZQJ1IsAiuE64+GEmoFwC1ynWd/3KldhA6c6CkpMxkry/bSjlmTYUIXYlr6+3IYQI5sIEqiWwjbJC7CnPDGHbCLi1oNon+aISCKTnmpAYdsb6SA906+KHRx6diA4dOiihZq6CCegeARbBujem3CMtIJBF6c02rF2L9TTprWNKCkZS3G8nLVjamObhYL0IdyDhKwSwCH/gwgRqJLCEJsVFlMcE92kHhHxY4xt8UwkEEtItsCHSHevDm2P4kIF4ZMyTcHFxUULNXAUT0B0CLIJ1Zyy5J1pCYOPGjVLcb1NKdfYIxf4G3Lghe8tFfK/C65tAi1lwYQK1JvA1xQPfou/qS8uUgcCvkxVnvFc1gciUxlKIROiVJhg5ijJJjBwNOzs7VTfL9TMBrSDAIlgrhomN1AUCe2iBi/WLF6MgKQmPhIdjcGKirLsV4WiANT5GWE9xvqdasvCV9WDJ1bhsMuzTyin95k4CpgbJ1WDdtesErUC3IboTom7ZSpkkRFo1U1Nak5wLE9BjAiyC9XjwuevqIXD06FGs/+03xNOEN5HuTEx6MxSzWGRa/qMJbqtJ/K725XAHmQ6R9ph1hcIg5lVeLnk/hUL0pZAILpohsD+2GWWS8EFGsT1GUrzw0KFDNWMIt8oEZECARbAMBoFN0E0CERTqIDy/x86exSNRUZL4bZxfeZa8XHp+1dagVPga4lgrDvSVy7hovR1hlBliXeXPfOp8oAmv66Dxod0S6SSlVbOycyIxPAl9+/bVuE1sABNQNwEWweomzu3pPIGr5Old//ff2LRtGx6hxS6E57clTYSTY9nlXu71FZPeuDABpRJYTwL4UHme69ZNgcs/KrUFrqwBBPJoZuv6CMokEdUBnu288MjYCejcmRM4NwApv6plBFgEa9mAsbnyJZBBqc3WiowPJIAD7tzBSFr4wpP2ciupjYTXl8QvhTvsoyWMuTABlRGYT6EQl8szQwwnfbWRFsrgIi8CKdlmlEnCgwSxE/r1CcCoR8fBzc1NXkayNUxABQR42WQVQOUq9Y9ASEgIllPoQzNKd/YRLXjRNTVVdhDCXEq8vmt8DcEZHmQ3PLppkFgtrkLh5ZIrwJDRob1FLp7xPYeBA/uTGLbF22+/jvHjJ2Ps2LEyspJNYQLKJ8CeYOUz5Rr1iMAtyu27fPly7KHFLibQxLdRFy7IrvdiotuiHsbY1J69vrIbHF02SKRFE+nRKpQVU4GnelW4wIfyIdDImdayPotik3SEHhqNv5Y3g10Tb0kMe3l5ycdOtoQJKJEAe4KVCJOr0i8Cu3fvxvIFC+CakopZh8PQVmYrvf3b0Qi/9TDC1nYsfvXrkymT3lbxAgur2BMsk7GpzgyfjwATGxTiK/TodRQ+nY2wankieYVPkRCehCeffLK6t/gaE9BqAuwJ1urhY+M1QSCZljdeTinPDoWGYsL583iEJr7JqYjcvkL8Bnuw+JXTuOidLWKpZLFkcmkxoo9j/hLAgFNOK5DIZ9+cVjAJ2oki7EU+HiK7RILnknLimD2J4Z4wM/UgMfwMfHx8FLd4zwS0ngB7grV+CLkD6iSwfft2LJ8/H560ytus06fRWkbe37/8jCjswQh73Fj8qvMzwW3dg0AVT7DwArMAvgcrTV/uRF5gKoX4mX6WC2BxrUu3FPh23kpCOA7vvHOehPAE2sbD0JD/nRF8uGg3ARbB2j1+bL2aCMTHx2P5nDk4fuoUJtBqbyPoXC5lWZcS8RvShn8pyWVM2A4ikFSeFULw6Eghp1xkSMCTArWb9ScBvIg8weuqNdDIqBjjJp2jEIlrWLXMmEIkDpIQfh5du3at9nm+yAS0hQCHQ2jLSLGdGiOwadMmLKPYXx9a5ngCTXxzyczUmC0VG/6jW0nYw0FXFr8VufCxDAgI/fte5eWSv34c+N9wGdjGJpQTMKPEzcNpMpxFgRQGUYyz5fdqOFq90p08w20xZsxjklfYzMyshqf5FhOQLwH2BMt3bNgyDRO4TNkels+di3O04pvw/g6XifdXhDyImN8jzix+NfwR4ebvRaBKKIR4rBN7gu9FS3PXO9Ea1hbNyQs8DbUVwMLYx5+KohCJGySEi8krHEpC+EX4+/trrh/cMhOoJwH2BNcTHL+m2wT+/fdfKe9vd5oEN4GWP24lgxXfVtBs7TkBRjhM+X65MAFZEzhZCKyqvFxy3E+As72srdYv4xwoV92DBykEYg95gR+kvlcer9rC+PdvVxLD7TFkyAjJK2xtbV3bV/k5JqBxAiyCNT4EbICcCERGRkoT3y5R1geR+eGha9c0bt42T0PM6W2MLV4sfjU+GGxA7QhspawQe8szQ9hbATfn1e5VfkpNBAK3AC2HkvQdfc9Y4NpaEh1lTUK4O5ISm2HC+Cno27dvbV/l55iARglwOIRG8XPjciKwevVqLF+yBL1v3sQsCn9w0rD392grIX6NICa+cWECWkWg6qQ4ygzBRUYE3CZLArgQCxssgEWv3NzT8cGnu7FxgzNmz76FkyeDyCv8NOzs7MRtLkxAtgTYEyzboWHD1EXgPHl8ly1ciKsXL2ICxf8OSUhQV9PVthNjZ4CfyfMrQh+K2PlbLSO+KHMCM2mluNvlSya/MgiYM1HmNuuLeSaNgWEnUWxlUjoZ7pxSex4Xa0le4a6IiXLEhAlTEBgYqNT6uTImoEwC7AlWJk2uS+sIiCWPl//5JwJv38br586hRXblHJnq7FCaOcrE7w0rXlFAney5LSUSyCLxW0EAi5o7sidYiYAbWJX3dMCqbelkOOUKYGGZi2smpn2wH9u3OGHRbxnkFT5AXuEX0KxZswYazq8zAeUTYE+w8plyjVpAQOT9/fX77xFHk96E9/dBDXt/f+0lJr0Z44Iji18t+PioxERjSitmTPPJTMRWVFy6L71G96TrFe6J54vo45JlQssb2Fkjy9EOWZnxyC4uhtCh5X5YlZh770pjyLAFeZXuH/gYCPCodIlPNEGgiZ/kBS7CbvIC0ypxKi6JCRbkFfZFxPkWmDJlGmeQUDFvrr7uBFgE150Zv6HlBMLCwvDrrFlwpby/U2jxi5YajP1d7VuS8eFAa4570PKPlWS+Q0Yx2qYWoymlkrbJLUZjSpVrk1NMG+i4ZC/OpesUMVDxnhC19S6PUxLeVauAvyxo2S9qjAo1Q2LYQBLE2dJxyXk6HScVGiCRFHTJvvS89Jq436BykJT6hsqZBtIWUv/JNC4aJtDvH3LVjiYBPIpigderzZjN/zljwVwvPPvsc3jsscfU1i43xATuR4DDIe5HiO/rFIG///4bCyn+9/HYWDx36ZLG+iYmvX0ZaIwN3ix+NTYI9WjYgASiW0qJ0BVit/JxEaxJ2GqkmJqWNFsqgMWJOXmJzcngylOT7q9wM+mRRBLESSSSS/bAVTq/kG+IiAIDRNFxjaXKpDg3RxbANfJS101XEp8kgEsmw6lPAIvuDRtxFc4umVg0zxCxcRF4/bX3YKr4zKqr/9wOE6iGAIvgaqDwJd0jkJubK4U/7N+3D+9S5ofBGgp/EBJEiF+x5dDX2FzkSaAVxbR2TKaNBJ3HTRK7JHiF6G1DmyyLEBTF5SnJGmKjJWlcd+NiuNcQUHGRxPA5EsXnaC+EcUSpQJb8v1UWyuDlkhsyGkp614gmHHT6iEY0jkTwj0qqtG7V+Pil4vOZe0kIZ9ICGzGYOnU62rdvX7dKavn0ylWb7/r0eri5oEf3TsjMzMbGzXtx63Y6fH08EeBPISKl5djx8zh+IhxW1o0wbEg/2NpyzmMFG13dswjW1ZHlfpURuEQe3/lff42C6GjMpPAHr7S0snvqPBD5foX4DW3D3l91cq+pLTsKnu1Eoq2j2JKLSvfFsBXxA9pUTOgvqkL1uaHbkUhuRwHMY6owyiNsdteBiguLd+JJcVUoaeC0wzuAbUcSwO+SOLygAQNKmmxil0uT5kLx17IkTJ/+NsUJv0aLbAxRuj3m5uXLOBcUFCLiQgycWtJXElTmLVwNMzNTeLd3w85dYTAyNETPHj44czYSm7fuR6+evoi+HC89N/3dZ2FgcJ9vPpRuPVeoTgIsgtVJm9tSO4Hdu3djwQ8/oMeVK5hCKdAaFSjHW1aXjtxsZICvAo3wY1/+360u3JT9bOdrxfBLLBW65OEVnt6Wd7RM7N4LivAEq1EE38uMqzdIAFdJsMKZIe5FS03XbbwlL7CYDFeIWWpqtOZmnpwQBWfXdMz54SfExcXihRderPmFOt4dPTKo7I1NW/bBxsYaA/p1R3TMVckTPOWFx2FpaYHMrByEHjwpieB9IcfQ3qstBg8KQH5+AWZ++xvOh0ejo7d7WV18oHsE+Ley7o0p96iUwLLFi/EnTRZ6gTzBj1IMsCbKSj8jyfsb3oy9Cerk34iSE/SOLULvK0UIoL3YLCsnLFCnOapvS4jgopIJcapv7N4tnLt6971Ozndf4ytqJNBxOmBoSgL4ZzU2ev+m+vRLpjjhA5j3cyE++DAc0979nMSqzf1frMMTaWkZUnjDM5NGSW/FX0uG8BILASyKh7sLTp6KkI7T0tLRJ6CzdGxiYgxra0vExyexCJaI6O4PFsG6O7Z627M0CneY98UXuEihD1+ePo0etAKcuktkUwNJ/P7ZlVd7Uwd7Z4rhFYK359Vi9IwT+yIY6oiTt1b8ZOIJPhtf2VpT+g3TwanyNT5TI4FWDwNtxpMAXkDZIDaoseHaNeXaOgNfzdpFccK38cqrz+CtNz9E584lQrR2NdT81LHj5yQx6+zcXHowPT1TCoVQvGXZyALFlFIwLy8fhYVFaETniiLEcnpGluKU9zpKgEWwjg6svnbrHC14MX/GDNiL+F9aCa65Bha/ECu9idjfZGv2/qrqc9juhkL0FqEHCV+/hIbkF1OVlWqsVxLBMvAEVxHBHA+sxs9A1aYMaO5Bpw9LJ8PJIwyiqoni3JD+Wn3x5WPkFU7CtGnT8OKLL2Ls2LHVPVrna2fPR0neXsWLQtgWFlIKv9KSl1+Sys/U1ESK/RViWFEKKHROxA5z0W0CLIJ1e3z1qndbt27Fgtmz8TAJ4GejotTe90MuJRPfNrfniW+qgP9AdBECaRN74fXlUoGANDFO8yL4bJVwCM4MUWGM1H3o9SZg34O8wO+QEFb/v4d17e5DD8dTnHAmZn31G2JiLpAg/rCuVdz1vAhxaO1a/lWEXZPGyKI4YOH9FRPekpNTYGxc8m2dELzJ11PQCSWrugivsb2dcsMz7jKQL2icAP+21vgQsAHKILCAVn/77ccf8fKZMxoRwJ8FGaP/S6ZgAayM0SypQ0xaG3+yEIvX5iPmm1zsXpiHD3cVsACuDrEMYoLzaM5p+LXKxrEnuDIPtZ1Zk5CjlGhF2EUi+Hu1NdvQhjr53MLs+XtwK20XXn5lMpKSkupdZUZpKIO9vW1ZHR29PSQBfPDQKQhP76HDp+Hp0Vq634GyRYgUabm5eVKcsJgc5+frVfYuH+gmAfYE6+a46k2vrl+/jp8//xyZFAbx1cmTaHfnjlr7frqFAd4fYoItXvz3pDLAd4sv9/Y+EFUEs/JvLpVRve7WIYNwiKrxwAI2e4I19JETKdFMbUgA/6QhA+rfrK1tHj79ci+WLvamrBFPUyq1jxAQEFDnClNSbkvvNKYJbooiwh6GDe0HkTFi5+4wKV542NC+0u3BQb1w+Uo8vv5usXQeNNC/bAKd4n3e6x4BXjZZ98ZUb3p0/PhxzJk5E74xMZhCHmDzCrFe6oCwqIcRCWBj3BSrC3CpN4FBkUUYdlGEORTCJ1GfZrPVG9ndL86bB4xwBXY/dPc9NV1ZGgJMpuWRK5Z4Skjg1KTiFT5WOYGWDwKB20gAz0cBpqi8OVU2sH9vc3z7ZUdMmjQJ48ePV1pTYhKcCHeobjEMkVHC0tKcwiTYR6g04DKuiEdZxoPDpt2bwLp16zDv11/xYmQkxsTF3ftBFdwRoleIXyGCudSPgPD4jggvwsO0idy9XBpIQAYxwcIT7OMMiD2FXMKxMQvgBo5q/V73nk4xwLEkgr+p3/syeqvfgCS0aZOOGZ8aIjr6LD75pPo+DRo0SLI6ODi4VtYbGRlWK4DFyzY2VrWqgx/SDQIsgnVjHPWqFz///DOO79iBLyn8oXtKilr7LsIe3n/QBKdbsve3ruDdUool0TsiolCa3FbX9/n5GgjIIBxi1pNkH23kZMM5EsJVJ8nVYD3fUhYBT/L8NhtAAlhMhruirFo1Wo+YLLfgjx34+otM8gg/is8++w6tW7e+y6baCuC7XuQLek2AwyH0evi1q/Pp6emYReEPhZT791VaCa5Zjnpnw4vJb58O4r8b6/KpaUJpNoXoFV7fEeGFMGanb13w1f5ZWhQG3Qj2oWdq/w4/qVsELCkcZsghFFmcRz5KPKO61UFg9co2WPaHG3766Sd4e9NKeFSEF5gFsK6NtPr6w7/R1ceaW2oAgcTERMz67DM4UvjD//bsaUBNdX+VJ7/VnZlC9D4cUQTHDPpunItqCUie4FTVtsG1y5tA+zcAixbkBdbdP4Qef+oymjXPxhtvvIGZ5BB57733WADL+1Mpe+tYBMt+iNjASBK+sz79FD6U+/eVo0fVCoQnv9UetyKl2ThKa8YT3GrPTSlPyiAcQin94ErqR6D5A4DXG9JkuCJsq18dWvLWgMAkyuqQLwngjz/+WEusZjPlSoBFsFxHhu2SCJw4cULyAA+KiMDTly6pjQpPfqs9ajHJbfzJIow7UYimWez1rT25+z+Zb2iIbCMjacsRe5qxXkBJ/kUmFAuxUa5TaS+DiXH37w0/oTICHd6VYoAL8aXKmpBTxV27p+C7n47hk/dn0OIXb+HBBykjBhcmUA8CHBNcD2j8inoI7Nu3T4oBnnDhAh6LjVVPo9TKHjdDvDmcJ7/dD7gIeRCLWTx6hpP5VmWVRYI1qVEj3CIPbSURa26ObEtLZNO9bDrOEfdJwErPCMFLFeUUFSGbBG42Lekqpl9a0DPmtIm92EzEc3QvOy+v0mZhTvfNjOkZQ9roPZMi2gphbpQHC+NcWBhm05ZJWxadk4CmeyX7AliZFqCFdTZszfOqdoXP5U7A/TnAfxGlQ3uTPMHalxe4IXivXLbCjI8DMHr0Sxg1alRDquJ39ZQAi2A9HXi5d3vz5s3S5Ic3yAM87No1tZm7oKcR3njYBDkmamtSqxqyprmI408VQoQ86PvSxckkYhMtLJDYpAmS7OyQaG2NRBKpiTSiaSRinays4GhrCwvaWzRuDAt6TtrTOxbmFjC3MIeFOK5hq0uu0uzsbFTccmjiaMXzsuPM28jOoC0zjbZ05GRn4g7lTL12IwMFlNqhha0BWjQuQHOLVLSwuCmJ4xZW2WhOItnEkGc2yup/WIoBxuAQFFlf1tnJcPfjfT3ZHF983Af9+03GuHHj7vc432cClQiwCK6Eg0/kQGAVzXRfvHgxPjh7FgOSk9Vm0tvDjPFDP44Qqg54uxslSxgL8dsmVT9CHjIo9ECI3CTaJLHr6IhEErVJQuiSF7aIkuE2p2tOzs5wcnK6azOgsAVtK2lpabhGf3SKLT4+HtfiY3Et7jLiE68jJ7cATRsbkUDOQ4tGt2lLk4SxEMjCi2xnkatt3dV+e/2+omX53pMEcBF2an9/6tmD9HQT8gj3RkfvsXjuuZfrWQu/po8EWATr46jLuM+/LVqE1WvWSEsgqysHcIydAV4fYYJN7Xnp46ofje5Xi/D8kUJMPF6os0sYp1M4wlkSt+E2NiWClzy2iWZmSBcrPlAR3lwnV9dqxa4RhT3oS0mhnNySMFaI5LhoXLsah2tJKZIH2cxEeJDz0ZzEcQurLLjbpcOn+S00J5HMRQUEHHoDD4ZSCMQ8CoWYqoIGtKvKwkID8gj3QotmD+G11z7QLuPZWo0RYBGsMfTccFUCP1LKmy2U/3c2ZYDoQB4pdZRt7QzxOoU/RDpon9dOlXwCYovwHInfp4/pXryviNONIMF7msTuafLkRlNYgzF5bb1btYJTu3ZwatOmklfXREw641IjgaSkpHLvsRDJsZdwITIadzKy4WhjRGI4DT72V9HR8TacbTJrrItv1pJAv7UodulKXmB/mhSnvm/Mammdxh77ZkYXmBoHYvr07zRmAzesPQRYBGvPWOm0pV9Mm4Yjx4/jl8OH4Zqpnl+SP/c2kjzAOg22jp3rF0Pi92ghJlCmB10pN0jknifRG+HggNPNmyOaOtaEJqZ17NAB3t26SUn3vby8dKW7supHLE1oPXfuHM5SaFP4+TNITLpBIRXG8GlBXmK7WHg1TYMbeYy51JFA24lAwFLyAL9KnuBf6viy7j8+54cOuJHcC99885vud5Z72CACLIIbhI9fVgaBaS+9hDiaADeXBLB9rurjCgso6kFMfpsboD9fZd9vnAKjSsIenjit/eI3gWJ4wymE4Tx5eSOaNUM0ZVtwpb13165lgtfFxeV+SPi+Cghcv35dEsVCGF8IP4tL0VdgZy1EcSY62JaIYiGMtTCcWgW07lGlmT0tk7YHRbZJ5AUefI+H+PJv8z1x8pgP5sz5U5p8ykSYQHUEWARXR4WvqY3AVJrNm3vliiSARe5TVZdwRwO8QfG/wR4c/ytYPxhZEvYw9qzq2atqbOMo5dh5IXrJ03uRhG8cxfJ6UwyvV/fuEB7e9u3bw4HucZEfgYyMDMlLHEF/BF8MP42LkVEwpgwUHVvmoH3jK5Kn2KvpHZhRSjcupQR8PgV8PiEBPABF2MdYaiCwbIkbNm/wxG+/LYO9Pf3xwIUJVCHAIrgKED5VH4EJlNfRNiEBc44cUUuj670p/OFhY8Q14fjfYbScsQh7GHle+8RFFmVtCCGxe5J+qZ2n8IZ0mpzWgURv+5494dWxoyR8rSldGRftI1BIfwgLL/HFixdJFJ/CRcoRnpWVBa/meWhvE4uerW7C0/6O9nVMWRbb96C/XENQaCjyAr+irFp1up6/V7XG0sXu+P333+FMmVy4MIGKBFgEV6TBx2ohIPKXPjl6NNpR+rOvaUU4dZRv+xvjfw9x+rOgS0V4+ZD2id8i+n78IHlzQ+iXWCjl5G1LW+8BA+Ddu7fk6a1LPl11fN64DeURiI6OlkTx6WOhCDt6Eu6OhfB3jJQEsYu+TbLr/SeK2/QhL3B3mgyXojzIOl7TxvXOWDC3HebOnQtPT08d7y13ry4EWATXhRY/22ACIiZQJDTvR/uPzpxpcH21qUCkPxOT4PS59IwrEb/aNuHtBIndUHcPhDaxhTUtONFn4ED0pc3d3V2fh1Nv+56amoqwsDAcPrAbYcfOoFsbA/g7hEuC2NGSVnLR5dL6CaDPX+QBfokmwy3Q5Z6qpG/B21pi9vcdMGPGDPSkb424MAFBgEUwfw7URkB4dF6iSXBDKATi7fBwtbT7+FMmWOOrvwK4Q3IxeX4piyh5f7WliHy9hzp1QgjF+eZTOrOAwED06dMHvr6+2tIFtlMNBBLo35HDNJk2LHQ3zkVcgr9bMXo2PQt/CplobJavBgvU2IQJhfcMDEYRTRrMx4NqbFi3mgrZ2wzffNkJb775Jh566CHd6hz3pl4EWATXCxu/VFcCIs5P/MMzJi4OL0VG1vX1Oj9/28IAj0w0wf62+jkBzvm2EL+FePlgAazy6oxP7S/E0NLCh729EUoxvkk0sc2fRG9vCnUICAhQuy3coPYRiImJKRHEB/ZKC3r4ty1AT/tTkiA2NdKBpZ47vg/4fUkCuA9NhjugfQMkI4uPhDXF5x/5YeLEiZgwYYKMLGNTNEGARbAmqOtZm4mJidI/OBPpF9UE2lRdLtDCFyMnmeKiHi6AYUuLcwnP78sHC9EiXd7LG4tUZocprOEQLU5xnpYh9ifB26tXL8nra065fbkwgfoQCKdvmSQP8cF9yLiTCv/WuehpdwI9nG7WpzrNv9PET0qJVmi6hEIh3tS8PTpgwZlTTfD+u11pZbnX8PDDD+tAj7gL9SXAIri+5Pi9WhEQKZBGURaIh+Pj8RrN9FZ12UueXyGA0/RMQwlnlxC+QgB73pSv+E2l5YjDnJxwmNKWHaSc0D26dEFP8viKcAc7iv/lwgSUSeAETbwtEcQhMEYO/F0z0bPJUfg0u6XMZlRbl/9iFLsPIC9wF5oMp56VNFXbIXnUfiDEETM/98HHH3+Mvn37ysMotkLtBFgEqx25/jQo0h0Np7irXrSkFiiLnAAAQABJREFU6sdqmAS3mmJ/n6AYYH0rIsfve3sK0eWafL/2DaWUZiF+fgijdGbubdvCv39/+Pv7c8oiffuwaqi/RbRgijShTsQQHwpFU8sC+LeIQ2CrSDg1ztKQVbVo1mU00O8f8gA/R5PhFtfiBX6kLgQ2/9cK8+Z44YcffkAnmofARf8IsAjWvzFXW4/HP/ooHGghjB+PHVN5m7P7GNMqcPqVAs31VjE+2F2A54/Ic9LbHRMT7KJ0RLtJ9KbTMsUDhw2TZmVziiKV/+/ADdRAQOQdFoI4ZN9uHD16DIFeOQhseQZ+zWXmHTYyAwK3oahZDnmBh9bQI77VEAIr/myLv5a1xcKFC9GGQrO46BcBFsH6Nd5q6+3rzz+PbJoMt5B+2ai6vDfEGF8/oF8C+PnDhZIAdqUJcHIr0bRQxW5aongXTXZzJgEcOGQIBlJaM1PK9MCFCciJwAUK0dq9ezd2B2+FR7MCDGxxGoFtk2BoIIP/rzq8A3T5jgSwP02GOywnbDpny6+zvbBlUyssXboULVu21Ln+cYfuTYBF8L3Z8J16Evh8+nREh4Zi6QHVz2J++lETLOmmPynQ/BJKvL9yXOY4jH557O7aDftyshFIolcI327dutXzU8SvMQH1EUhJSZHE8K7tG1GYk4pA18sY6BIDjeUetukABAWj0GIlhUK8qz4QetzSV5/54GCoI1atWsVLLOvR54BFsB4Ntjq6Ovf77xGyYQNWhYSovLmHnjHF1nb6kwLtf3sLJO+vda7K0da6AbGE8W6a3LaLVnK7QfG+gQ8+iEDK69u6deta18EPMgE5EdizZw95hrfgLH2TNdAjHYFO5+HteFu9JvaYh2LPQeQF9qXJcJnqbVuPW/toehdcuuiEZctWwoq+yeKi+wRYBOv+GKuth6tWrMDq336TPMCN81WbrP6BF0yx100/BHBgVJEkfgOj5TPxLc7SErs6d8Zue3vYk+AVXl8hfi3pOhcmoAsERG7zXbt2YffO7fB1LqS44dMY0DpZ9V1zGg48sJE8wJNpMtxS1bfHLVQiMO3N7riT5omFC/6ACc1r4KLbBFgE6/b4qq13//33H+b//DPmUwywS6ZqPRf6IoCtaRXYD/YUQHiA5VKOk+jdTYta7KI8vn379ZOEr8jty4UJ6CqB5OTkEjG8YyNMiu5goHMkAlvHwc5CBavQGNAf9oFbUdQij7zAnL9WU5+p16f0QSMLH8oaMVdTJnC7aiLAIlhNoHW5meDgYHz77beYdfw4fG+pdoa1vgjgoReK8NX2AvglyMP7u03E+1Kmh1j6ijBw+HDJ8+tOC11wYQL6QkCkfBST6HaRGI6OikJgmwQEucbAwz5deQi8Xge6/UQCuBtNhjuuvHq5pjoTeOmZB9CmdW/KI/xFnd/lF7SHAItg7RkrWVoaShPgPvvsM3x49iz6k8dElUVfBPBHOwvwebA8vL/7mjXDelrYItfBAUFPPCGJXxsbG1UOM9fNBGRP4OTJk9i9fT127j2EkV5xtMWimRV9ddOQYk1/VJIXuNB6LYVCvNeQmvhdJRC4c8cEb0wZgB49huD1199SQo1chRwJsAiW46hoiU3HyfM7nTJBiJXgxIpwqiz6IIC9k4sxcyt9CRqhee/vSVq9bT0lj4+2tcXI8eOlVf+MaOIbFybABMoJnKU//tet/gPnzodjlGekJIgtTOqZt7vbbBR7PYQ8eFMDKgi1KDebj2pJIC7WEu+93RtBQaPw0ksv1fItfkybCLAI1qbRkpGt4eHh9Nfx63jx0iWMjY1VqWX6IIAnHS8kAVyAFumazU8aRTl+13fsiP3k7R312GMYOXIkmjRpotLx5cqZgLYTCKFsOEIM30m9hpHu4RjuWUenQIvBwMDt5AEeT5PhVmg7Dp2y/8zpJvj8w24YPfpJPP300zrVN+4MwCKYPwV1JnD58mVMJwE8gmZPj6NjVRZdF8BWlO5s5rZ8vHKwnt4jJcG/ThPd1nt5YT0tb/xgUBBGkgB2dXVVUu1cDRPQDwIbN27EujV/wtbkNka6nUU/11qGiFE2iCKnAooFHqUfoLSsl4cOOELkEZ48+Wk89dRTWmY9m1sTARbBNdHhe3cRSExMxKdvv42eR4/iGZocosqi6wJ4AKU8m7mtAP5xmgt/yKEQh/W0VOh6Dw94+/piJP0D34nCILgwASZQPwIZGRlYt24d/l27Cr4tMyUx7Nc89d6VeU4BevxKARAiJ/CZez/HdzRKYO+u5pj1dUcpLGLMmDEatYUbVx4BFsHKY6nzNd2+fVsSwJ60EtzUixdV2l9dF8Dv7iuQBLCR5vQvtjg5YR0JX1sXV4yaMB4BAQEqHVOunAnoE4F4mifx77//QniHh3RIxygKk2jbpEomCUsXmgy3DYU2/1AoxEf6hEcr+7p9ixPm/NheCgUcTllyuGg/ARbB2j+GaulBbm4uPn33XTgePIg3aUKcKosuC+C2KTT5jby/j53RXPhDCIU8rKdV3jIp56+Y9DZkyBBVDifXzQT0moA0ee6fv3H4yGGM7JCEkTSBzqFRaSaJLt+huMPw0slwGvyLWK9HqG6d/2+dCxb+6olp06Zh0KBBdXuZn5YdAWPZWcQGyZLAN5QGzYZmQrMArv/wDKesDz9uzIc7CWFNlNM0wW29nx8u0qS3kU8+KU16MzU11YQp3CYT0BsCIrxIbNLkOQqR2L3dCSM9LmJkfxeYtXuVJsJNJBYsgLXlAzFiVBxyc02l3PgWFhbo06ePtpjOdlZDgD3B1UDhS5UJLJo3Dxcpxm0WLYqhyjLuCROs7KybabjeofCH77ZoJvdvIv1DvapdO+yinL8jx46V0p3ZkxeYCxNgAuonIE2eIzFsbFiIMU92woDBH6rfCG6xwQSW/NYLoftcMXPmd2jVqlWD6+MKNEOARbBmuGtNqzt27MCi77/HLIoDdlXhcsjvDTHG1w/o3hcTYunjnzbl45mjmgl/EHG/yynlWZeuXTHmuefQhibBcWECTECzBBST51asWIYHBt7GkxPPoVmzbM0axa3XmcCXnzyIosJumDFjRp3f5RfkQYBFsDzGQZZWREZG4p3XXsPbp06pdDW4ef5GmDrKRJYMGmJUj6si/KEAAbHq/6oz1tISy7t1QxSt9DaekrwPHDiwIV3hd5kAE1ABAZFvfcWKuYiNjZKEcNDgBBW0wlWqisD1ZHN8+n4QevV6BM+Rk4GL9hFgEax9Y6YWi3NycvAuJQbvfuQIJsbEqKzNdd5GGD1R9wTwRFr84sdNBbDLUn/87zp3dyynlGcDBg/GuIkTYUerv3FhAkxAvgREFomVKxeje88b7BWW7zBVa9nJ4/b45P0uePfdabSyXFC1z/BF+RJgESzfsdGoZbP+9z9k79qFj1SYCWKHhyEefE73JmZ9Rdkf3tuj/vhfsdrbn337IonifSe+8AJP2NDo/0HcOBOoG4FYWnlz5co5OH/+LHuF64ZO409v2uCKv5b5UHzw9/AgBwQX7SHAIlh7xkptlq5dsgTb/vwT31EccJM81axhf9DVEL2n6pYAdr1VLIU/jDqv/vjfVTT7fDnF/44YNQrjxo2DJYVDcGECTED7CIh5GCtW/ooO3gnsFdai4VswtydiL3fB1zNnw8RE977d1KKhqJOpLILrhEv3Hz5C4Q8fffABviEPsN+tWyrp8JkWBvB9w0wldWuq0iEXKf6XJsB5XVdv+EMEpTtb0qsXMlq2xGSK/e3evbumEHC7TIAJKIlASkoKCeGfEbI/DJOfPweOFVYSWBVWU1RkQPHBg9DKaSheffUNFbbEVSuTAItgZdLU8rqSkpIw7fnnMeb0aTxy9apKehNtb4DA500R18RAJfVrotKnjxXi97/z1d70ck9PLHVxkdaynzBhAoyNdS+7htqhcoNMQEYEDtLiRL/9Ngtt3a9h4rNnOYOEjMamOlOuxlmSEO6Hxx+fgocffri6R/iazAiwCJbZgGjSnI8mT4bD4cN47cIFlZiRbGWA0RNMcLC1oUrq10Slb+0vwPeb1Rv/e4YWvfidUp6BBPAzr78OHx8fTXSd22QCTEANBMQk5WXLZ2Pt3zvxyhsRGDz0mhpa5SbqSyDsoAO+/bILxQd/y/821xeiGt9jEaxG2HJuavGnnyJi61Z8e/QoDIuV/5V+BoX/jplgih2euiOAZ2wvwAe71SuA/6DMDytbt8akSZMwnpY85sIEmIB+EDhN39DNnv0ZmjomkRg+hWbNOa+wXEf+nzWtaSGNXhQfPB+NGzeWq5lsFxFgEcwfAwSvWYNFCxbgG4oHbpORoRIiwgO8rqPurAY3d10+poapbwJcOMX+zu3SBY1osYtn330XXl5eKhknrpQJMAF5E1i06DusWbMDz0+JxCOj4+RtrB5b9/MPPVFcMADTpn2txxTk33UWwfIfI5VaeIFCH/5HC2K8efYsBlBMsCrK1JEmmNdLNwSwBYX+bliah0GX1LcAxnaa9Dbb2xtPPf44xj/7rCqGiOtkAkxAiwicP38en332P3TtEYs33jmnRZbrj6k52Ub4aPoD6NN7PB57bJL+dFzLesoiWMsGTJnmZmVl4b2nxqHLubOYFB2tzKrL6vpmgDGmD9WNCVst04pxeG4eWtFeXWVRhw4IbtsWr5D3t1+/fupqltthAkxA5gTyKH3lx5+8gttpkfjws8NwcKA12rnIikDUpcZ4+7We+PyzGejRo4esbGNjSgiwCNbjT8L3r76K7H378CF5gVVRVvka4cmndCNfYsekYpz9MVcVmKqt86aZGX4OCEAaxf+++fHHaE17LkyACTCBqgQWLfoBa9duJSF8Cj38b1a9zecaJrBvT3MsnNsZc+f+Qdk9mmnYGm6+KgGjT6lUvcjnuk/g78WLcSQ4GO/RZAuLQuXHtorFMMY9YYocHdDAwyOKEDJfNYuGVPdJO0nLHM+gld9cAgPx6TffoAllg+DCBJgAE6iOQNeuvdCypRO+/CIKRsbF6NjpdnWP8TUNEWjdJgPZWcXYuPEiBg0apSEruNl7EdCdqfr36iFfv4vAYUqDtnj1akwhD7BdrvK9m9caG+BligO+1eiuprXuwrv7CrBxifoE8AbK/jCNJsA99PTTeHv6dBga8v+iWvehYYOZgJoJDBw4EIsWLcKu7X74+otuam6dm7sfgfGTo2FoFIn5Cz6+36N8X80E+DesmoFrurmEhATMI+/iFJoQ1zk1VSXmCAF8qqX2L4bxaXABvt2ivhRovwwYgLWdO2PGjBl49NFHVTI2XCkTYAK6SUCETC1d+i9Q1AcvPj0QYuEGLvIh8M40WwTvOIdg+gaWi3wIsAiWz1ioxZL5332HrrGxKlsR7rURJtjgrf0fKyGAP9mpHgF8rVEj/G/ECCTQxIlvZ89Gz5491fJZ4EaYABPQPQKffPIjggY+hSnP9sL+vc11r4Na2CNjzEBTW4rbpvkd3377LWJiYrSwF7ppMk+M081xrbZX4uuyS//+i6+2b4exChbE+L6fMd4Zpv2ZINQpgA85OOBnEr39hw3DSy+9VO248UUmwASYQF0JiCWXP/nkEzz6xBVMejaqrq/z80ogYABHGGMNDNEfV4qvY0PBUexbGwyzLdfx17KVSmiBq2goAe132TWUgJ68L/5B3EwC+MUDB1QigNd2MmIBXMfP0hpa+OJTPz+MJ/HLAriO8PhxJsAEaiQQQNllli1bhuNHu+PTD/qgoIB/3dcITMk3DTEapkiQBPD+wnDMyd+KY0UxsBzthnxXc/z4449KbpGrqw8B/r+iPtTq+U5qahpWrNqMy1fK137PzMzGqjVbMW/hGhwMO1Wp5mPHz2PBor+ld27fTq90ry4nmZmZWDZ/PsZHRcEtvf713KvNI86GmDqSPcD34lP1ej5Ndvu+a1fsoPCH72bNwjDyAnNhAkyACSibQPPmzbFg/ko0sRmAZycMxKWLvISvshlXV58xfoAJ/kF6cR6WF+zHooJduF58p+xRs1c7YMuWLThCq7Ry0SwBFsFq5C8EcFRUHBISrpe1Om/haty4eQvtPFyxc1cYDh85I907czYSm7fuR5vWTrhzJ5NE8moU1zOEYfny5bBPTMRYEsHKLslWIhOEMW7QXpuLukIgrlhZ4R1Kf5YxaBC+mzcPPj4+2oyNbWcCTEALCEyb9gXGjnkBb77SAzu2OmmBxdppogFak/f3CIzwJs4XXcWcgq3YXnj6rs4Y2pqh8VQffPfj93fd4wvqJcAiWE2894UcIzGbAVPT8sS50TFXITzBz0wahcAHeqKzX3uEHjwpWSSeb+/VFoMHBeC5p0cjP78A58PrvqpbWFgY/qMwiPFHj6qkp8IDfKyVdn+M1CWAT1O+34/9/eE3aRI+mTmT8/+q5BPJlTIBJlAdgbFjx0qTsubN8cbG9c7VPcLXGkDACONIAF+GAbpja+FJSQBHFJV/61u16kYPtUahsxktojG36i0+VyMB7VYvagTVkKZEGMS+/ccwYvgDlfK+xl9Lhrm5GSwtLaTqPdxdJFEsTtLS0iHORTExMYa1tSXi45Ok89r+yM7OxrJffsH4S5fglZZW29dq/dzMB4zxL8UCa3NRlwAOcXTEJ9274+EXXsDTlAOYCxNgAkxA3QQ6UwrGRYt+x7q/O+PvVa3V3bzOtmeMeTQBbjmSim9jQUEwVhaEIrP4/jn4zV/1xvr163GaFq3iohkCLILVwF2EQYiwhk4dPSq1lp6eCTMz07Jrlo0spJCHvLx8FBYWoRGdK4oQy+kZWYrTWu2X0apwlteu4cnLl2v1fF0e2uVuiPeHaHccsLoE8OZWrfA5hT289OabnP+3Lh8yfpYJMAGlE3BycsIvvyxBWKg/lv5e+XeS0hvT8QoN4E3e37MU/vASjhRF4RcKfwgtvFDrXhs5NoL1c974+odva/0OP6hcAiyClcvzrtpCQo9DeIJdnFsgjOJ9CwoKIMIgrpV6gQsrLFmcl58vvS9CJgwMDCDEsKKI9yoKZsX1e+1FwP3aDRswXgV/YaabQesF8Ht71JMHeCVlgPjJy0tKVTRkyJB7DRdfZwJMgAmojYBYiv2HH5Yi5lJfzJ/jq7Z2dakhIzxPAvgc8uGFfwrD8Atlf4gtulnnLlqOdEO2vQFNgl9Y53f5hYYTYBHccIY11pBfUAhHR3uEX4jByVMXJA9v8vVUXKXQBrsmjZGVlVM24S05OQXGxiXhBULwJl9PKatbeI3t7WzKzms6yKWlkJfNmYPxlJDb59atmh6t1733hphAZITQ1vLywUJ8tU31C2HM9/TEnx4e+I4WKOnTp4+24mK7mQAT0EECpqam+HrmYty5HYQfvumhgz1UVZcsKPRhKW0LEVOcjLn527Ce8v8WN6A5i5e9sXbN3zh79mwDauFX60NAe5VMfXqrgXcCB/TAlBceK9uEuA3w94V/T1909PaQBPDBQ6ckD/Ghw6fh6dFasrJDezeIFGm5uXkkniOkiXF+vl616sGyP/6AMYVBjFdBGMSfXYwwN0B744AnHi/ELxvKPey1AlqPh77x9kZw+/aY++uv8KNcwFyYABNgAnIk8NFHs2BmMgozPukrR/NkZZMhekreXyNMxN7C81Lu3xNFDQ83NG5lBeuJ7fHtz5wtQt0DziJY3cQrtCfCHoYN7Yedu8Pw5deLpBCIYUNL/iEaHNSLYoLN8fV3i/Hfpr20DKZ/2QQ6UcUgSrEltqrlKGWBWP3PPxh/5gwM65lSrWqdivMLjgZaHQYx6lwRlq5RvQD+gCafnCPh++uCBXBzc1Pg4z0TYAJMQJYE3nprOpxaPIW3Xgmkbye1e66HqgAb4TXK/RuG28XN8GfBPiwu2I2bxcrLu2/5mAfuWOZh4dLFquoC11sNAV42uRoo6r4kJsGJcAdbW+u7mk5LyyDxa05hEnf/w6QQwcHBwdJ7+RRT/PZzz8H34EE8q4KcwKMnmGJdR+38u2lgVBF2Lsq7i6+yL7xKKdDyfX3x/fff07hZKrt6ro8JMAEmoDICYoW5/zb+iZ/mhqKpQ47K2tGmig3gQKEPc2nlt0dxtigOGwqP4mJRgkq6kB+ThpTX9uGnn36CN32byEX1BFgEq56xyltQiOEnn3gCJ/76C9/v3QuzChPulGGASIemrdkgelwtwv75eTBTcRjwxP794UArwQkBzIUJMAEmoI0E/qFvEufTCqO//nYILq6Z2tgFpdlsiEAp9ZkBWmBz4Qn8RwI4i1aBU2XJWHERNidysOSX31TZDNddSkA73Xo8fJUIKDzBf61aJWWDULYA1uZ0aF7Xi7F+ab5KBXC6iQlGDhwIV1oJjgVwpY8mnzABJqBlBMaMGYO33noLU5/rhQsRtZuMrWVdrJW5RphO4Q+7kFBshvkFO7Cq4IDKBbAwzGpcO6QaZmL+chbBtRqoBj7EIriBAOXwukif5u3sjNHx8fC/WfcULTX1QZvToTmlFWPt8jy0SG/IvN2a6ADXGjXCaPIA+wcF4Ysvvqj5Yb7LBJgAE9ACAkOHDsV7772Hd17rjoOhjlpgsfJMFEsfm2ATeYBn4nDRJSn7w4HCi8proBY1NXqG0q4tXY2IiIhaPM2PNIQAi+CG0JPJu8uXL0c2CeDx0dFKt0hb06FZUzjbX3/lwztZdQI4wsYGkwMCMGLECEyfPl3p7LlCJsAEmICmCAQGBuKzzz7DV5/5YMO/JauXasoWdbVriBGU/eEUcjEIfxccoty/23C1uDxVqbrsMGlvB6snPPHdop/U1aTetsMiWMuH/uTJk1ixYoUUBmFdutiGsrqkzenQlq3OQ9/LRcpCcVc90dbWeI2WQX6C4rBfffXVu+7zBSbABJiAthMIoD/yv/76ayya54l1a121vTs12m+Mz8gDvAGRRVn4NX87xf8eq/F5Vd+0Gu+FG3lpWLjid1U3pdf1swjW4uEvKirCMspD+3ByMvpev67UnsTbGOCzoLszUii1ERVV9jPlAX4kXHUCOMXMDC/17ImxY8fi2WefVVEvuFomwASYgOYJdKXJvjNnzsTiBR7Yu7u55g1SsgUG6CjF/hrhY+wuPIe5BdtwquiKklupX3WNJrfD30v+wsWL6g3HqJ+12vkWi2DtHDfJapHO5lZcHMZHRiq9F18MNEYMLeWobeX10EK8SivCqapk0CS4J2gCnPiq8MUXX1RVM1wvE2ACTEA2BLp16yaFfM2a2RFnTtnJxq6GGmKEJyn84ThSi7tjScFe/FGwh44zGlqt0t437dQUVpQ/ePZvc5VWJ1dUmQCL4Mo8tObs9OnTELHAE2hRDDtaJlmZ5W8fIyzsqX2rwg2LKMJPG1W3GEa+oSHGkQD2pTzAYtIIFybABJiAvhAYSBlwpk6divff7YKoS421utsGaEQT376jbSV5fRMwr2A7dhXKc8liK1pJ7npWKlZR9icuyifAIlj5TNVS47LFizEkPR2BSUlKbe+WhQG+CNS+MAiRCm3Of6oTwALyCxQf59SuHWbNmqVU5lwZE2ACTEAbCIwaNQrjxo3DG1N74Gqcdi4GJJY+FqnPDPA2NhYel8IfIosSZY3faJIbFtPv/EgVfOsr646rwTgWwWqArOwm1q9fj2uUCWI8eYOVXb74f3tvAh/FdeX7/7Tvu5AACYSEJBYhdpDYDMZsBhuDTQyxjffdTmLP/P/5v/knM//3Xt4knrw3k5k43mPHsQ3YBgcwxthG7PsqgdgRIITQina0q6X/PSU3EUJd1cvtVlXrHH/k7q66de6931tIp0+de849XsgdYKwwCG8R/fBHYQAnVjovE8Q/ik1wnqmpeFvEYLMwASbABPoqgSeffBL33XcfXnpmCspK/Q2FwQvPCQP4IAo6kpXcv1+27UdTh3OdJzIA+Y6JRuyDafhk9acy1LGOLgTYCO4Cwwhvb968iY1ffIGl584htkluWctvh3niDzOM5wUmD/Dci87bCPfb9HSUpKQo38SNcI/wGJkAE2ACziTwi1/8AhQe8fqrs1BT7evMrqTo7ix9/CcR/vA+9rWfxzsi+8MBk/y9NFIGa0FJx7JByBGOr4MHD1powYftIcBGsD3UevEa8gL7VldjSX6+1FG0iBDg/yU2wxlN/nF3G1486LyNcO8K7+9xYQC/+eabRkPD42UCTIAJOI0A5UYfO2Yafv3/zEVjo373kHjiHuH93SqqvT2NL4Tn993WH3C9o9JpXJyl2DPUFwHLhuKvn7M3WCZjNoJl0nSyrhIR/7vxyy+xVGyG8xXp0WQKGcAHEox1Oyw53Y7/s7lNJobbdP1l6FBsTk7GG//2b4iMdJ8d0bdNkj8wASbABOwk8Otf/xoD+k/AG/9zAdrb9RdG54XXhAGchXPtUSL8YSu+ETHARhb/ZUkoqS7H999/b+Rp6GrsxrJ6dIXO9YMhL/AQEQ6xoKhIaue7Ez1BKdGMJKNKOkD5gJ0lqxMTsSYpCb/+l39BsjCEWZgAE2ACTOBOAlRVztMjHf/+xvw7T/bSEQ8kitCHj8TPH7DVdAJvt/2Ak+1Xe2k0crv1WpaAj4U3mOoEsDhOgI1gxxm6RENeXh42rl+PpadOSe/PaAZwgLB93xQG8KAa52yE+2rwYJAXmB73ZYiiGCxMgAkwASZgmcBvf/s71FQNxx///R7LjVx0hkof++B73OhYio/atuOTtt2o7qh3Ue/O7yZg7mC0hnpg3bp1zu+sD/TARrBBFnnDqlWYWlODqeXlUkf8b7O8kZVirNvgf29uxazLzvkW/E18PCgO+PXXX1cKYkiFzcqYABNgAm5K4Le//T2uF6bivT/N6LUZeuPXwgDeiGPtnkr4ww7T6V4bizM79hTe4E/XfIbKSuPFNjuTiz26jWX92DNDN7gmJycH3+/diyWSSyceixNhEAbLCfzkURNeOeCcjXBbBwzAfw0friSEX7hwoRvcOTwFJsAEmIBrCPiIapr//Ovf4MK5ZPzlg3Gu6fTHXjpLH38BE/4/bDAdFtkffkBeu9wc+i6dkEZnfpNj4Zsehc/WrdFoyae1CLARrEVIB+c3iCTZ9xUWIl1khZApFAZR7ydTo3N1URzw775zzka4vTEx+H1aGp555hlQQngWJsAEmAATsI1AVFSUqKb5G2QfTcWqT5Jsu9jO1l54RHh/tyC/YybeF5vfvmo7hBY45++EnUN0ymU+DyVi09oNuHLlilP09xWlbATrfKX37NmDbOEBXnLtmtSRrhrnhY1pxlr+333Xiv518uOACwMD8f6oUVi+aBFWrFghlTMrYwJMgAn0JQJxcXH45S//FZvWp2LXjv5Om7oHgsTGt9+Jn1XYY6oVqc+24pApz2n96U2xz/AIBM5PwEdrOWWaI2tjLCvIkZka9NqN77+PJZcvI6FeXmB/qxfwn9PF/wwk/5LVhvvOOicO+APhAU4UP8++9pqBiPBQmQATYAL6JDBUbCx+9dX/C+++ORr5V4KlD9ITmcL4/RJ1HT/DqrY9+KBtG4o7qqT3o3eFQcuScXTPQWRnZ+t9qLodHxvBul0aYMu336JUpEOT7QX+z+neOBpvnKVfeK4d/2Orcx5vURaIwoQEvPyrX+n4TuChMQEmwASMRYAqyi1atEwYwpNhMsnLIdxZ+ngzzrSPwnsi/OE7U46xwEgcrdeAIPgvHoI/r/urRK19S5VxLKG+tS5obW3Fxo8+whKRGi2ipUXa7K9GeOAPBvICx9ykOGDn5AP+fuBAfC5yAb8sUqHFxsZKY8yKmAATYAJMAGKPxXMIDkrH+2+NcRiHB2KE9/dN8fM+tpiuKtkfTrXLDRN0eJC9oCBoWQquXi3Azp07e6F343fJRrBO13DD2rXwunHDKV7gYpFj0ChCG+FGF8uPA74QGoqP09Px8iuvYMKECUbBweNkAkyACRiKwKuv/hOOH03C5q/j7R63J+Yo4Q8lHY+I0IcsrG7bi5qOBrv1udOFHoHe8FucgL+s49hge9aVjWB7qDn5mqqqKmz8/HMsuXABXh3yDEAqi2ykWOCXDprw9BHnpEP7QBi+0+fOxQMPPODk1WT1TIAJMIG+S4Cesr3yyi/x7p+GI/dEhM0gvPC6yP7wNY60D1SyP+w2nbVZh7tfEPhAEmo7GkFVZVlsI8BGsG28XNJ6w5o1GCSSYM8tLpban5HCICYWtuN3W5wTBvEf48bBa9gwvCQKYrAwASbABJiAcwlQ5c1nnnkW772VgeoqX6s680CS8P5+hFa8ga9E6eN3Re7fy+1lVl3bFxt5Lx6EVV99jtra2r44fbvnzEaw3eicc+E1kQpt46ZN0gtjfJXuhbWjjZMR4ndb2hDWJJ/xOrEJ7qgoi/zyP/0TPD359pdPmDUyASbABO4ksHz5cqQk340P3sm882S3I554QHh/vxRG7wK8J1KfbWg7IjL/Oic7ULeuDfvRf1Y8PAYFYv369YadQ28MnK2A3qCu0ueG1auRIbzAGSIeWKYYyQv8q+1tmJMn/xfeqfBwfCQ8wK/+8pcYLAxhFibABJgAE3AdgVdffRUlRSn4YtVwi512lj7egB0mPyX7w7H2yxbb8oluBBbH48uv1qKgoKDbCf5oiQAbwZbI9MLxM2fO4OusLOle4D9O88K+IcZY6knX2kFGsGxpE17fP2Rm4klREW7q1Kmy1bM+JsAEmAAT0CAQKAoTvfzyP2DdF4nYtyfmttYeSFe8v1Udv8Qnbbvwl7YdKO2oua0Nf1An4DeuH8KnJ7A3WB3TbWeNYRndNmT3/bBx1SosKS/HiBp5//BLQzzEZjhvw0AjAzjACaHAvxGGb8rkyXj44YcNw4IHygSYABNwNwIjR47Eiy++KsIiJqPgapAyPS88qhjAJ9snKZvftppOutu0XTYf0/0DsOX775Cbm+uyPo3cERvBOlm9w4cP48jx41hy8aLUEVEYxJVIY6REe/mACQ+ckR8GsToxEVf798cvRD5gFibABJgAE+hdAgsXLsTMuxbhw3fvFhmQ3oAnPsVmU70S/nC2/XrvDs7gvfskhSH2gZHsDbZyHdkIthKUs5tt+fJLLM3PR1yDvNyHx+MoJZoxvMBDKzqcEgZxPDISVBXuV7/9LQICApy9jKyfCTABJsAErCDw4osvwtMjHf/xro9i/H7Rth83O5ywG9qKsbhbk9b7++P4qRwcF441FnUCbASr83HJWYoFPiYeXcy5elVqf29neqHZGDawYgAPrJWXE5lANnh74zciH/DrIhVaSkqKVLasjAkwASbABBwjQIbw8X1HkLX5B8cU8dW3EfCK8kfYrCHYvn37bcf5w50E2Ai+k4nLj2SJwhhzCgsxoLFRWt/7RWGMDycbIyXaihwTnjoqvyjG70U+4OmTJoEevbEwASbABJiAvghQlp5XX3wFzR+fR9tleXth9DXL3hlN88xIZG3LAqVdZbFMgI1gy2xccqZYFMTIOnQIc4qKpPb3jvACG0EiG0QYxA752SC2DRiAE/364fXf/MYIGHiMTIAJMIE+SWD69OlYNG8hTGvy++T8nTVpn+QwhE9JwLZt25zVhVvoZSO4l5cxS8QCTxA5gUdWV0sbyfahnvhsvDGM4F9tN2FUidwwiJsiDOIPo0bhNZEPmAtiSLutWBETYAJMwCkEVq5ciaCyDjRs5JzAMgG3z4rG5m3foVHiU2aZ49ODLjaCe3EVmpqakCXyAlMohEwxihd43oV2/MMe+V7gt0Q6tMwpUzBz5kyZWFkXE2ACTIAJOIFAcHAwnnv8GTStyeOwCIl8/TL6wxThzbHBKkzZCFaB4+xTWd98gwiRE3hambx66FuGeWKdQcojO6Moxj4RAnEwNBSvCy8wCxNgAkyACRiDABUxWjjvXrStuWKMARtklB6zYvFV1tcGGa3rh8lGsOuZ3+oxa906zLki9x/8O5nGSAfx2h4T7roiNyewEgYxcSJeeOUVBAV1JmG/BZvfMAEmwASYgK4JPLHycQRyWITUNQqYFYey0jIcEnuPWO4kwEbwnUxccmTfvn2oErHAc8TGOFmyPs0Lm0bqf0kpFdrre+WHQXwoNliMEkbwggULZCFlPUyACTABJuAiAhQW8cLjz3JYhETeHkE+8J41AGuy/iZRq/uo0r/F5D6sb5tJ1iefKF5gf5O81GBGiQUmL/Dgarmb4faLMIidwvv76s9/fhtn/sAEmAATYALGIUBhEfPnzUPrGt4kJ2vVAmbF48yubFy6dEmWSrfRw0ZwLyylUhxDhEHI9AJ/PsYLW1P1v5wTC9ule4EpDOIdkQ/4iWefRXR0dC+sKHfJBJgAE2ACsgg8vfIpDouQBVPo8U4Igb8Ii1izbb1Ere6hSv9Wk3twvm0WWZ99hjkigbXM4hiG8QLvNcFbbigwPs3IwNCxY7FkyZLbOPMHJsAEmAATMB4BCot48fHnOCxC4tL53x2Pw9v3oba2VqJW46tiI9jFa6gUxzh2DHNKSqT1/PEEL+xO0v9SLj7Tjkez5YV/EEAKg/ghPBzPvvSSNJ6siAkwASbABHqXAIVFzJk7B81r+BG+jJXwGx+DjrgAbNi2WYY6t9Ghf8vJbVB3TsQZxTGM4wWWuxmOwiA+FmEQK59+GvHx8W52p/B0mAATYAJ9mwDlDuZsEfLuAT8REvHDtq3yFLqBJjaCXbiIziiO8dFELxwerP9lfPGgCXdfkhsH8en48RgoKsM9+OCDLlxF7ooJMAEmwARcQYDCIl5+/Hk0rrnIRTQkAKe44Jq6Guzdu1eCNvdQoX/ryT04K7NwRnGMNWP1Xx45ogF4TXJKNCUMQmyCW/n88250h/BUmAATYAJMoCsBCou4e+49Snxw1+P83nYCHr5eSrq0r7Zx8QwzPTaCzSRc8Cq7OEZWsieyUvS/hJQTeFi5vJRoFAbxyYQJWPnMMxg6dKgLVo67YAJMgAkwgd4i8JLYJMdhEXLoU7q0s4dzce7cOTkKDa5F/xaUwQGbh68Ux6iokJoWzQhe4LSSDule4LWJiYhJTuYwCPPNxa9MgAkwATcmQGERrzz+AprWXoKpVDxaZLGbgNfAIFBs8NfbvrVbhztdyEawi1Yza80azLl8GbKKY1yI9sBqA4RC/HxfG0Ka5UEuEAUxNiQlYclTT8lTypqYABNgAkxA1wQoLGLYmJFo2HRF1+M0wuAoNnjP9l2oEI65vi5sBLvgDlCKY1y8KN0L3OTjgsE70MXka+14/rDclGjr09IwY9o0jBeb4liYABNgAkyg7xB4ZulKxQhuzavuO5N2wkx9R0fDNyUC27Ztc4J2Y6lkI9gF65W1aRPmlJdLK47R5A1DeIEpI4RMOSXyAX8nfpb89Kcy1bIuJsAEmAATMACBNOEEmbpwFnuDJayVx6xYbNq2RYImY6tgI9jJ66cUx9i5E3NEmWRZQmEQF/p5yFLnFD1T89vx1FG5RvAGsRluiUiHlizigVmYABNgAkyg7xF4ZuljaDtYhpbs8r43eYkzDhAhEfWmJuzYsUOiVuOpYiPYyWuWlZWFCa2tGFkt7/GNETbEvXhIrgFMKdFyxeaIpUuXOnnFWD0TYAJMgAnolcCgQYMwf8lC9gY7ukAewpE2qx++6ePeYDaCHb2RNK4/8MMPuOv0aY1W1p82Qlq0mZfbsfK4XCN4w+TJWLJ8OWJiYqyHxS2ZABNgAkzA7Qg8ufRR+BQ0o2n3dbebmysn5D99IE4dPYErEp9Uu3L8MvpiI1gGRQs6cnJyUHXjBqaIeGBZYgQv8AuSY4G/E9kgqiIisGTJElkYWQ8TYAJMgAkYlEBYWJh4KrgEzZuuGnQG+hi214AghGTEY++BffoYUC+Mgo1gJ0I/sH07ppSW9qm0aPfkteOnJ+R5gVs9PbEhPR1LVqxAQECAE1eLVTMBJsAEmIBRCDy6ZAVCTP5o+EbefhujzF3qOCdHYdv+nVJVGkkZG8FOXK2Du3cj89o1aT2QF1jvadFkZ4TYIHYDB8bHY9GiRdI4siImwASYABMwNgFP4SB5dOlytAhvcPvNVmNPphdH7zc5FuXFZThx4kQvjqL3umYj2EnsqUKcT309JotwCBlihLRo88+3Y1muPC9whZ8f1g8ejKUiFpiFCTABJsAEmEBXAgvnLMDAAQN5k1xXKDa+9wz1hdfkftiyP8vGK92jORvBTlrHA+vXY0p+vjTtX47Wf1o02RkhNowYgdRRozBjxgxpHFkRE2ACTIAJuA8BKqDRvCkfpuJ695mUi2filxGLI/sPoVVksuprwkawE1a8oaEBB06dwhRJXmAa4sY0fS/VfWfbseS0PC/wFZEObUNsrBIL7IQlYpVMgAkwASbgBgQmi8xBIyekszfYgbX0n9wfLR4mHDhwwAEtxrxU35aVMZliz3ffIa6uTlpu4IvRHtg40kvXNKQXxhg+HHdPn46xY8fqet48OCbABJgAE+hdAuQNrt90Ba0X5OXj790Zubh3Lw8REhGN7/dtc3HHvd8dG8FOWIODmzdjalGRNM1kAJt0vFKZBe148JQ8L/BJkQ5tW2QkljzyiDSGrIgJMAEmwATck8AIETo3Y/Fs4Q2+7J4TdMGs/DL6I/vAMdyQ+ATbBcN2uAsdm1YOz61XFNANdEBkhJCZG1jvoRCPZsszgGnR1qemYsm99yJJ5AdmYQJMgAkwASagRYC8waajFWg+VqbVlM/3QMB3dDR840L6XEgEG8E93AyOHNqzZQvG1tQgQWSGkCF7h3iCfvQqg6o78Fh2u7ThHYuKwmnxs+Sxx6TpZEVMgAkwASbg3gTi4uKUcsqN33MBDXtX2kPkDN66f4e9lxvyOv1aV4bECewXZZKnSw2F0PcSPSa8wOGNHdJWa6vw/s6dMwfR0dHSdLIiJsAEmAATcH8CD91zP1qPlnNssJ1LTSERZ4/m4vLlvhNWom8Ly86F7K3LCgoKkFNSgkxJZZIpDnhjmn43xHkJB7DMUIhLISHYHh6OOVweubduYe6XCTABJmBYAuQNnjh7Cpp2Fhp2Dr05cJ+hYQgdMwD79vedMspsBEu84/Z8+y1mVFYiurlZilbaEEeZIfQq5AVOK5XoBU5IwNzMTCQmJup1yjwuJsAEmAAT0DGBZfcsRuvOYrRXNul4lDoemgiJ2L5/l44HKHdobARL5Llv+/Y+FQoh0wtM1eGyxLf4OUuXSlwRVsUEmAATYAJ9iQCl1RycmohG9gbbtexURrno8jVkZ2fbdb3RLmIjWNKKnTt3DterqzFVUihEUagHNug4FGLuxXbQjyzZOmAAhg0dinHjxslSyXqYABNgAkygDxKg2OD2naV9cOaOT9lrQBDCMgZhz/69jiszgAY2giUt0h6RG3iGiAf2N8lJF7ZxpCdq/SUNzglqZHqBTR4eyBo2DHOWLXPCSFklE2ACTIAJ9CUCs2fPRoDJB027r/elaUuba/vkSOwVccHNkkI7pQ3MCYrYCJYEde+evZheXCxJm743xFEcMMUDyxLyAvuJbBB33323LJWshwkwASbABPooAU9PTyy8ZwF7g+1cfwqJaGhq7BM5g73tZMSXdSFw/PhxtDTUI1NSpZWcgZ74PlW/30/IC0yZIWRJlqj2M+ehh2SpYz1MgAkwASbQxwnMv2cuPv/ic3ifqYTvyMg+TsO26XuG+iI4YyB279+DWbNmWX3xgUMncPLkBZHiNBzTpo5D/9jOVKf19Y3YtHknqqrrMGZ0KqZmjr2l8+ix0zh2/AyCQwKxaMFdCA8PuXXOFW/0a2m5YvaS+lBCIUSVOFlCoRB6FW/hAH74pDwv8EHhAS4ODsYckRuYhQkwASbABJiADAIxMTGYOXsW2kSmCBbbCZgmR+DQgYMot3Kf05Gjp7A16wCGD08UYRQt+PAvf0NHR2f2qHfe/wLlN6owLCUBWdsO4tDhk8qATuZewOYtu5E4JA61tfWgduZrbB+xfVfo19qybz69ctWeQ4cwo1ReEP7WFP0uy+KzJgytkJcWLWv4cMxZvBghIkcwCxNgAkyACTABWQQWiZAIyhJhKm2QpbLP6PGf3B++EUHYv3+/VXO+mHcVA/pHY+aMiXhkxSK0t3cg79I1XBKZJsgT/PQTSzH77gyMGztCxBt3Zp7YtecoRgxPwry5U/HsUw+itbUNp89csqo/WY30a23JmqGT9Zw8eRK+LS1Ir6qS0tOpWA/s03GZ5MVn5MVBnAsLw4HAQMydN08KO1bCBJgAE2ACTMBMIC0tDWljRoniGbxBzszE6lcvD/iP7YcjOcesumT4sESUlFaAjOHSsgrFoxsbE4nC66Xw9/dDUFCAoiclebBiFNOHmpo60GcSHx9v4QwLQmFhifLZVf9jI9hB0if27cNYiV7grBT9VoiLudkBmUZwliiKMWfmTMTHxzu4Cnw5E2ACTIAJMIE7CSyavQAeu8oAk7wnmHf24p5H2kaF4NSpXOGhbdWc4Oj0YfDz88Xqz7/Fex+sFbG/wxAaGoy6unrluFlBUGCAYiC3tLTCZGpHoPhsFjKW62661mvPRrCZvp2vJw8exFgrY2as6ULPoRD3Cy9wRKOcXyQlAQHYKmK25opQCBYmwASYABNgAs4gQBu7Qn2DuXiGHXB906PQIGJ16Yl3V5k7dy7op6t8tvobhIUF42cvP4KkxHjknDiHa9dE2lhh2Jq6pI5t+dGg9vX1gYdIj0rGsFna2tpuM5jNx535ykawA3Tr68XNIdKijZMUCnEtTOTLTdbvklA8sCzJEmnRxqakYNSoUbJUsh4mwASYABNgAncQoNhgn10VdxznAz0TSPMchCe8Z+JP/V/G+HHjkZubqxi9XY3frVu33rqYNrNdLSjCPSLmNzIyDI89cp8S2nDoyElERoSioaHp1oa3UhEy4e3d+cSbPMcUOmEW8hpHietdKZwizQHaJ06cQLJIJt2vSU6N8iyxIa5FpysyrFxeKESTlxe2JiXhuRUrHKDPlzIBJsAEmAAT0CZAxTM++2I1/E7cgO+YzrRd2lf1nRaBHr6Y4DkUEz2TMF78kJTUl2J30Q6Uhpaj7IgIJxHS1fBVDvz4P/LokmeXMkQkDokXRm+jEvcbHh6KUWkp+Obb3dh/IAcZk9NBadRSU4YoV44cMRSUIm3GtPE4c/aSsjFu7JjhXVU7/b1OTS6nz1tKB7lZWRgtqsTJEj2HQiw+I9cLHB4VhenTp8tCx3qYABNgAkyACfRIIDIyEvNnz8W+XacBNoIVRvEekZjgNVQYv0lI9IhRjuWUncB7RX/GoeIjOFx0BKcrziL8ZigmXRyDtWvX9sjWfPDhZfPx+Zdb8K9vvK94fSlH8F3TJyjG8aJ77xKG8C5kbT+oeIgX3TtDuWzenCm4kl+IN/73h8rnOfdk3tpAZ9br7Fc2gh0gfFJ4gh+vrHRAw98vrfODrkMhKB5YluwfNAh3P/CALHWshwnYRYBi0crKK0GP5+iRXFlZpUjmXqvErwUG+Cu/rCnGLTIiDKPTU5VNHnZ15MBFV68WKSmGKqtqUS3GViseF7a3t4s/FIEIDwtBhHjUOHBAP+FtSQZVydKT0HhptzjxJc43KqpxU2x6oV3gwcGBCBU7wcPEHBIGDwDtLGdhAs4kQBVJv/2nLQh9Ygg8w8Qf3D4o6Z6DhbeXPL5DEeoRgLb2NmRd2Y5PhNFrNnwrmm63aarDa9EW0Ibs7GzVqq5DkwbhV//tefF7qk5sdvNXjF8z4gnjR4I8vBTu0LUYBoVD/PyVR0WWiJvid5q/CJNwvUnq+h7NVAz+Sgmkr9TWYqwkI3iryApRHuyhSyqZV9sxI1+OEXwtKAhHxc/PZs3S5Vx5UO5PoEwYvN9n7cfly4UWJ0t5LSm5u1m27TikxLqNHzcCE8enOXXzRmNjEw4cPIGjoooSve9JaHw0D7N8/c0OkW9zqPC8jEe/fr1XHYsM9IMiEf7uPceUhPnm8XV/pdRI5qRVB8XjUS8vT+UR6ZSMMRg0qH/35vyZCThMYLjIST9o8GCUHS5FwNzOtFwOK9W5gmAPf8XTS97ecZ6dXzQvVF7E366vU4zeQ8Lbm12WozmL0ogbOHHyhKoRbFbS1cg1H6NX+jdu6Rw5G3pL2Ai2k/zxw4cxVmyI8xO/9GWIvjfEyZkjcTokKsRlDhuOAWJjHAsTcCWBfOFV/UEYv8XF5XZ1W1lZo1Q72rHzMBbMm46JE9Ls0qN20eEjufjuh323NpGote16jlINnTp9UflJG5mMB5fc41LPMHnVKfE9jb+tzfbQKRr/2XOXlZ/4+Fg8/NB8xRPfdY78ngk4SmB6xlRsPrIbuD2xgaNqdXX9II8oTBRhDpOEt3eQR2f8846CXXij6Ktbhm9xvW1V9KoianAo+7Cu5ilrMGwE20ky94cfMLri754YO9XcuqyvxAMfTk3FXQvm35o3v2ECziZAXsdPVm0CGbEyhAw2KvVJBt+Kh+9VPMSO6qXUQJ9/+Z0S+uCortNn8lBwrVhUaFoiPC+hjqrTvH7P3mPYseuIzYa7JcWFhaX4wx8/xd2zJisbZiy14+NMwFYCkydPxieffoLI0kR4xQbaerlu24/xTFA2tmV6pSAAvmhsa8SGs193Gr0U6iA8vh3iP3uFjOAbp8px/fp1xMXF2atGl9exEWznsuTm5eE+SanRtom0aHnR+gyFuPd8O9JK7f/H0xVvfnAwcsUu0v87I6PrYX7PBJxG4PyFfHy57nsljlZ2JxQu8da7n+OJlYsxeJD9Tzaam1vwx7dWKzuqZY2RYu/efHsNnn5yKeIGdm56kaXbrIdKnK5as1lJjWQ+JuuVUi5tFyEoZMw/snyhkk9Ulm7W03cJJCcnI3XkcFwXIRGB9xs3Dj1ExPNSJodJnsmgOF+SMzfO4t0r797y9ubXXpW20E3+zWiObFXigtkIlobVuIry8/PR0tiI4TVyPEt6DoWYd0FeKMRBkRd4ijCA+/XrZ9zF55EbhsAxEVNLO5KdKRQD+/EnG/GTh+aJmNzO1EK29vfRXzdINYDN/dPY/vrpRrz2s8duq8pkPu/IK4U//OmdNcpGF0f0aF2bl1eA9/+8Ds88tbRXNs1ojY/PG48AhUT87cj3wP3GGnuCZz/F8M3wTMEAjwhl8JsvbcGn197D4R+9vU2mnvcQyJhpUXgJjmUfw3333SdDnW50sCfYjqU4LlKjjekjVeLmXbA9vs8S0sMiK8S8qVMtnebjTEAaAYovdbYBbB4seS3X/W0r/vn/fcF8yOrXjZt23LbBTe1C2lhCWSEo0TxlWehaacnSdeSt/fDj9XjlxRXSYoTJuH7/w3VON4DNcyopvYFdu4/intmZ5kP8ygTsJkAhER988AGirw6Fd0KI3XpccSFtZqPY3ileqfCGF+paRGjXidWKt5cM3/OVF1wxDKWPyohq5JzU3kTnsgFJ6oiNYDtA5uzZgymSskKcivXAsXh9pTYyI5l1qR0jy+SEQlwOCcH5lhb8M4dCmPHyq5MIFImNb2u/+sFq7YPi+yNt5FBQXsv+/aOVzA9kYFJKr+ycs8g9dVE10wF1tGDeNKv7Mzc8mXtBKS1q/mzpldKgzZ87FcNSb398SzHO3/2wFxeFt1RNqN36jdvx0NI5as2sPvepKI9aIdhYI5QObcK4kaDNbsQ2KjJcuYxSIuVfva4k179e1JmI35I+Sqc2Q+QbZWECMggMGTIEY8aPxeUjpbozgsM8An/09qZihGdn7O2Jslz8j/P/q9PwFbG9NS21MjDYrKNaxAU31DfgwoULSBV7e9xF2Ai2YyVPiVLJL0qKB94/RJ8GMGGZd1FeKMT+YcMwVRTHiIjofIxjB3a+hAloEiAvJcWpkndWS4YMicPC+dN7TClG1Y8o/y79UKJ3qmZEXtuevK9U7WjSRNvKf9P4aHOdlkyfOs6iB5TKkz6yYhEolzBt/KO5WxLKHHH3zEkOb+KjLwX5+aIOjUgAAChmSURBVObkZpZ6g5IjdOZdE5E5eXSPHmhKiTRm9DDlp7GxWRjpWT0a87QOLz738G05Ry33ymeYgHUEpmZMQf7uDcAy69o7s1WiZ0ynt9czFdEenRtZN1zchP+49K+K4ZtbfsqZ3Vutu8MDuBnToMQFsxFsNTb3a3j69GlEinjggeJHhuxL0LERLDEe+LBIibaYvcAybhnWoUKAynNSyU41oaISlDkhLi5Wrdlt56i8Z2pKAr5an4Vz56/cOkdFNGbfbftGT8ql25NBfUuxeLNAGOgZk9K7HurxfULCQLzw7DIlRIEyV1gSMrpXPmp/ICSFYBBfLUlOHmzTZraAAD/FmKcUdqvWfHMrxRqFfzwv5hUUFKDVJZ9nAjYRoJCId955B94XquCT6nrHDOXtzRCZHKYIw5eksqkKf839GNtFKjPK5FDeaF8aR5sg2NG4ILQQh48dxvLly+24Wp+XsCfYxnXJFvHA4yTGA+/XqRGcUdCOCdct/0G1BdtFEQpxRaSAymAj2BZs3NZGAjdEtgbyVKqJPQawWR9VM1r+kwX4+pudSj9DhPG59IF7zKetfiWP7U6RUkxNqIKaNQawWUdMTJTIDTxHNQzk8pVCJcQjOqozJMF8rbWvX23IUvU2kx6qGvWo8E7bI8TzxecfxnsfrFUM4ScfX3IrfMIefXwNE7BEID4+HpMmT8JZkSXCFUZwhEeQksmBjN5kz85iMMdKsvHzU/+AA0WHcLTkuKWh6up4ZWQNTh8+o6sxOToYNoJtJHj8yBEskxQPnDNQv6nRZGaFUEIhZswQye/1vQnBxluBm+uMgJaXkgzgJx9/wCYPcE9TXHzfLIwckYSkxPieTmseOyAqpKl5gamUqD3xu+StThFeWLUY4W+FN/jxxxZrjrF7g3JR9lgrDIJ4PPaIYzvHKWb41Zd+igZRKY9itFmYgLMIZGZk4uy3a4DHnNPDUM9YUCaHKZ7DEC5ifUnWnf8b/tvZtUqYQ2GddliRc0Zmv9aGwEZ4BXsiJycHY8eOtV+Rjq5kI9iGxaCE9rmlpfiNpHjg3YkiyEanMl9iPPCh/v3x8JQpOp0pD8sdCJSKEsJXC4pUp3L/opmgTXAyJHnoYLvVHM9W91bTJjvyOtsj5Jn+/b//xeKlFHJAnmj6QmCLbNq8S7V5YGCAQ6EWXZWHhgaDfliYgDMJUEjE2++8Dd+TN+A72vEvXB7wuJXJYaLI6EBS1lCO93Pfxdd53yhhDm0dbc6ckkt0V0RV4/jx42wEu4S2zjqhhR8pDOEg8SND9BoKMbq4A9Py5YRCnA8NxXXxR5dDIWTcMazDEoHvRalhNQkJCcLYMcPVmrjkHBXGUKtcR9kUaMOYvRIQ4I9EseHvioXNa7QhjwqI2JLTmMZ7rbBEdUiL7p2hep5PMgG9EegvnDMZkzNwQmSJsNcIjvIIRqYIcaAUZgkenfnvDxUdxkun/gtb87fhUvVlvU3b4fFcDs5X4oKffvpph3XpQYF97gY9jLwXxpB9+DDGXbsmrWe9boqbLzE3sBIKcdddCAjgzS3SbhxWdBsBekJDHk41uW/hXWqnXXaO0q2pyXiRTsxDVFV0RGaJLBCWjGDSe+LkeZuMYArfUJPw8BARHtLp+VJrx+eYgN4IkHMm50vx5OQZ60eW6jlA2dA2xWsYguCnXLjm7Jd4Ifcz7C3ch/q2BuuVGbAleYIv5VwSG5AbRBEe45eeZiPYhpvw5KFDeF5iPHBhuGN/7GwYuk1NZcYDH4iJwUoukGETf25sG4HsnHOqKdEolVhqyhDblDqp9clT6sntp2SMcbhnKuFMqcUsxR3TBjlbRMtwv2/hTFvUcVsmoBsCFBLx1jtvoVlskPObHNvjuLzgicwfMzmM8RyitLl+swj/lftf+OzMGpytONfjde56sN2zHf6DAnHy5ElkZhq/gA0bwTbcqXkiHji5rs6GKyw33ZlkW0yeZU1yz6Tc6MCcPDmhEGfDwlAuvFru8A9FLmXWJpPAUVEeWU30ZKRdv265MAQZrpQ/V4bEi/RvloxdqiJXXFKOAf21y5dfu1aiWiiEMk1QRggWJmBEAtHR0SKXdSaOHim4zQiO8QhTQhwom0OcR6Qytb2F+/Hcqd/jqwsbUCVSmvVlKfMvR15enlv8bWcj2Mo7+fLly6AtNbLigXfp1Ai+67IcA5iw7k8YgqnTpsHHx8dKytyMCdhGgDZ5lYlNcZaEDEuKkdWDVFXVqqYYs8YotXYeZJhaMoJJR0FBsVVG8Inc86pdTpyQpnqeTzIBvROgkIjDfzmO4S2xmB44SjF+fUWRYpJPT68W+Xs/xbaCncpn/l8ngUKfIuSey3ULHPp0R+oQ7cWLF5EsKRSCprd3iD5DIaaI/MCyZP+A/pgqUqOxMAFnESgQnko1oQIXehHyvqrJ0KHyPKpa8y4uuaE2lFvnqBqdmuhhs6Ha+PgcE9AiQCER3k3AtGMxGFIfjDf2/R5J742Ax+8D8PjmZ9gA7gHgzZB6nL+oHtrVw2W6PMSeYCuXJU/kB5ZlBFN+4BtB7m0Enw4PR42XF6ZyPLCVdxg3s4fApUsFqpfpyUjTMjyHDB6oOhdbTkZHRygb7CyVj6a8v9ZIpfBeWxKKtaacxixMwMgEwsXfKjKEf/bRL3DqsHsYds5ej5vB9aivvIk6ER5q9Pz/7Am28m7JO3MGybWW/yBYqUZpptd44LTSDowUPzLkjIgHHjtqlMM73WWMhXW4LwG1LAg06wSJhqWjFEtL1b2vUVFhjnZx2/UUCmJJ1Ixb8zWUe5nCTSyJrJzLlvTzcSbgKgJU+GFAXc8b41w1BiP10+7ZgQ7x64rigo0ubARbuYJ5FRXSNsXpNR4486rlP3hWYrrV7GxCAtLcYOforQnxG10SKBelki0JFXDw9vaydNrlx29UVFvsk9Ki0XhlSnCw5fRFTU3Nml1ppZ2jMscsTMAdCIwcORIdNzsQUidnY6o7MNGaQ2VgNRvBWpDc5XxhYaGyIS6ipUXKlI7G6TMUYqrEeOCzQUGgXywsTMCZBCylAaM++8dGObNrm3XfvGk5fygVyZAtWpkmqqvVn2xVqBjtNNbEIfGyh8z6mECvEEgQTpv+8QMQVsNGsLULUB1Ug5wzOdY21207+b95dTtV+weWd/q0tHjgikAP6DU/8GxJqdHOiSpxJl9fDBtmf+Ur+1eLr+wrBNSMSmLQr19naiNLPE6fycO581dQISqi1dTcBHlHPT09lGwm/v6+ItYtCFQeOU0UgqD4V0elrc1kUYWa19biRRonIsJDVVs0NDZDhENaFMpmYUnIc61mZNfW3sShI7koERvwqoSxTWtlMrUrnnmKI/b39xPZKaJFkY0kkWJtsK489pbmzMfdm8C49LE4fpKMOvXNtu5NwfrZ1YnNcRfz1Iv/WK+t91qyEWwF+zxRJENWfuCcgfr0AlM88JAqOfHAZ0WBjJQ0Tp1kxa3FTRwgoBZeQGqjejBcyRjbs+84snPOgvLldhcKgSVjtbGxCWQEUiqx7TsOKRvAZkwfDypm4elpXxSZpU1qNIbAQP/uQ3H4s5ZhTSWc1UTNU2zJc3323GWFb3Fxz5kwWlralSIedXX1oM15J3M7NyJR7DaVXtb64qI2Xj7HBBwhMGLECAw81B9nYHzDzhEO1l5Lm+OqSqpEHvFm8fuxs3KetdfqqR0bwVasRp5Ij3a/pCIZOQPs+wNqxTAdajJVZjxwcjLS2Ah2aD34Ym0CWo/ru3tvd+05il27j6pWl7PUKxmMWdsOKtcvXDADtmadUNtgRn16e8v/VWzJUDXPUcsIrlMJ3+huYFcKb/qqzzeDXu2RqwVFePu9L5SNjMt/skCUWTfuH1V75s/X9D4BJXyvsgP+TX5o8teOme/9EffuCIiRh5+nEhds5L/3+rTIendt7+g978YNaZ7gEzr1BMsKhSB4Z8W3Qo4HvuM24gOSCZA3UU3MnmDyaL759mrs3HXELgO4ax/kPd64aQc2fL2962HN91oGp48TNvD5aBjWWpvjevKUmycaGvr32Mm9wrP+p3fW2G0Am3XSKxnD//nmp0pFu67H+T0TcDYBiguOFiE64dXqYUTOHoeR9DeGNRl+cxwbwRp3XFlZGdrb2hDb2KjR0rrTevUEz74kJzPEleBg1AheRv5maN1KcqveJqC2KY7GFhDgD0qh9se3Vksx0LrO98TJ83j/w3VdD6m+1zSCnVBVUS1FGg22uaVVdcxq4RsBIqaXzn/01/XYJsJF1NqqdtLDSVrXDz78SvxxLejhLB9iAs4jMGncJITWhDivAzfTXO5/A+cunDP0rNgI1lg+yoOXXK/ucdJQcet0uwgHzh2gv5jg9JIOxIj0MDIkd7DYSJSezqWSZcBkHaoEWlrVjTgqTvHpqk1SDbSuA6K416+/2dH1kMX3TU3q8bdaoQsWFauc0NKpZZirGbZkYP/1069xTaNin8rwVE9R35+v3aJsWFRtyCeZgEQCFBc8qGmgRI3urapOxAWfPn/G0JOUH4hmaBx3Dj7v5Ekki3AIGUKV4vQoMkMhzohHSskiJpiFCTibgNrjeur7k8++VjWAzdkfKJUaeY19fb1FJoM6XLx4FQXXipUNclpzyM45p6QKSx+Votq0VTwdURMvL/m/G7xExUY1aethY6C5vZoBTG3IE64mlD0icUgc4gbGKJk1aOMffREoKioT5VbzUS04awllkyBP8y9efdTuzYhaffB5JtCVAIXxeVZ4wMvkCZOXnKejXfW723sqn1x8pkj5PUv/5o0obARrrFpebi5mSdoUd0KHXmCa/qRCef/Yz4rHujM5P7DGXcWnZRDQMoItGXJU6eyeuzOQYKHYQ+bk0covdcoiQRvptDa1ffPtLmgZwVqhCWrp0+xlpaVTzVOsxdbSmGieGYLftCljeyypPDo9FQvmT1cyQ/xtwzaUaFTRo1Rrh0WqtUyRlYOFCTibAMUFh4rUgmE1oaiMtFzcxtnjMIp+yhBBQk/MU1LUHQF6nZN894NeZ2rnuPKuXZO2KU6vnuBx1+UYwUWBgShqaOB4YDvvNb7MNgJtGt7V7tqoetzjjy3G008utWgAm68hr8Zd0yfg5688IjzElssPU3uKYaWUa2riJ/Jmq4m9Rqe6TvVwEcrXa0nsGc+w1ET88h+fxuxZk3s0gLv2RanQXnjuJ5iSqW3c7tpzrOul/J4JOJXAhLETeHOclYSV8ski17iRyyezEayy2DU1NahtasJgSTHBevQE+4mntCPLJMUDi8z7qampCBXFMliYgLMJ2JJWLCYmCv/wi8eVR/S2jCssLAQ/e/kRzcfxO0TmCTWh4htqYqtBr6bLfE7LkFUzgtW8xGb95lf6wnD/oplY8fAC2BrWMW/OVIwZrV5Uh7JYnDl7ydwdvzIBpxIYO2YsBjfFO7UPd1JeFVjDRrA7LWjXuSib4kyWqzx1bWvNez1mhpDlBab55woDeNSoUdag4DZMwGEC3XPVWlJIVd9eev5hJe7XUhu149TPpAnqxV8oXZtaBTs1g5P61jJY1cZn6ZyWTjXDXMv7be6TDODnnnkI48fZXyKd8i5rFSDJPmHsHehmXvyqfwIUF+xfqf6lVf+zcN0IqwKrxea4067rUHJP7AlWAXpRFMmQtSkuP8IDNQEqnfXSqXFFcrzANPzTQUGcH7iX1rEvdmuNERwREYqfLr/XYTyzRQyxlpfzgtjwZUm0No20qpRUtqRT67iWEeyrEaKhNV/qf9mDc0X5435aQ1E9r8QRT0pXbVNYWKp6nk8yAVkEKC7Yz9cPIXVBslS6tR4qn3z18lXDzpGNYJWlo01xsoxg3cYDF8mJB74hCmQUivKJw4cPVyHKp5iAPAIhwkOrJmRcPfvUg5peRjUd5nOka0rmWPPHHl/zLl3r8bj5oJq3s6FBTh5yc1/0WndTPbWjmieYrvfRyF08fdp4jBwxlJo6LLPvnqz6JYNCIrSKezg8CFbABH4kMCp9lLI5joFoE6DNcZRppqCgQLuxDluwEayyKFQuOdnNM0OMl+QJzo2IwICYGMTGxqoQ5VNMQB4BLU/wksWzERgo7/ELZTxQkyKRN1hN1Dyr9fXyjeCqqlq14SBIg42akUzp5SjDhiyh+O6U5ARVdVcLilXP80kmIItAxvgM9K+LkaXOrfUo5ZP9O8snG3GibARbWLVWkYj/elWVNCP4cqQ+c+jJignOHZyAtNGjLdDkw0xAPgEtI1grtZmtI/IXVdLUvLlansqupYa7961V/a57e2s+14j0YpaEwjPUxkPXUe5kV0p0dIRqd2ox16oX8kkmYCOBdFHwKUKkSWOxjkBTaDOuXLliXWOdtWIj2MKClJeXo5/wTsiSKzo0gscUd8BTUkhwbkQ4p0aTdbOwHqsIhASrx+yVl1dZpceWRgEBfhaba2V4iI5SN/Jke4PV9Flj4AYFWfaiq+m2CEjjRD8tI7i+QUMDn2YCcggMGTIEXm1e8GvmDXLWEK30qkJpmTHj9tkItrDCZATHtMuJl6Uu9OgJluUFrhOxg/kiiwZnhrBwM/FhpxBQM9KowxsV8o3gsNBgi3OhCmdq0r9/lNpp6eNV8y5HRmp7udTCJcjLrqZfdaIWTsaI3MFq0tDQpHaazzEBqQQGpQ5CWLX2vxOpnRpUWbN/M64WGXNzHBvBFm46xRMsCj/IkBZRvfR6mP7CIcZJ2hR3TuQF9hNec/r2zMIEXEWAHulTAQxLUni9zNIpu49T3mA1sVSljq4Z0D9a7VLkXy1SPW/LybKyCtWS0TH91A1y6kvLM3sl/7otQ9JsGx0tsu6riFa4icqlfIoJ2ExgXPo4hNVa/tJrs0I3vqDJvwU3btww5AzZCLawbIoRXF1t4axth/XoBaYZyEqPVhwQgDixKY6FCbiawOBBAyx2WVNTBy3vrMWLLZzQMsTUUqFppRK7dFk9u4SFIfV4+GJeQY/HzQf7x2obwaPSks3Ne3y9cFGu5+fmTfXNgVq5lnscJB9kAnYSSB+ajtAm9S+9dqp2u8toc9zNKst7EPQ8YTaCLaxOeWEh+omKcTJEj/HANC9ZnuASMoKTkmSgYh1MwCYCaSPVU3TlX5XrraxUybigVWCCNqKpZYgoKZHnSdEyqBOHxGlyJq83bQa0JLLZlgrvtZpEipzPLEzAVQTi4uIQ3qz+dMJVY9F7P01+zWgX4WBVIpmA0YSNYAsrRkZwjMh7K0P06AkeWNuBYDnTQ3G/foiL5zKTMu4V1mEbgbSR6t7Kk7kXbFOo0bpeZXNWYKB2NoWEwQMt9kDFLWpq5HhTrhdZDgUhY10rE4N5kEOTBpnf3vFaWVkjNXcvhXCoSVQUGyRqfPicXAJkBHvV6S+MUe4s5WijmGASeoJuNGEj2MKKKeEQTXI2YujRE5xUISkthOBXHBwM+oXBwgRcTYAekavF6Z4+k6caG2vLeCn7Q5tKZTetlGPUV/qoFNUuDx4+qXrempPXCktUN62lJA+2Ro3SJn2U+pcMGeM1D6asvNL8tsfXyMiwHo/zQSbgDAJUUTEgJAD+TZafhjijXyPqbPVpE9V12Ag24tpZHHO5CIXo585GcKVEI1hsUGIj2OKtxCecTCA1JcFiDxQTfOp0nsXztpy4kq++cS1cY9Mc9aVVYe149hlbhtRj2127j/Z43HxwzOhh5rear1TAQi3O+eix05o6rG2g5r0mHRHhHA5hLUtuJ4fAwIFxCGywnCpQTi/uoaU1oI09we6xlECzCINoEMUyIlpapEzpcqT+HO5DJRnBNSI9WoNIj8ZGsJRbhZXYQUDLu7p12wE7tN55ybff7b7zYJcjasa4uZkSiqDyWJ/SjpH32l5pbm7B5SuFFi8ng1YtxKH7hVQcpJ9K6jLKF3zm7KXul9n8+WLeVRFPaLnCHVWoUytUYnOHfAETsILAsMRUhDRyhggrUKHet4GNYGtAGaENhULEiF/+ssSdwyFoU1yAnx8iI9VzfMpiyXqYQHcCg+L7g4wkS1JXV4+Dh05YOm3VcfImV1fXWWxLqdq04pPNF0+ckGZ+2+Prlu/3wt5qd99+t0c1/IMMYFuNyZkzJvQ4TvPBjZt22D1es45Nm3eZ3/b4OmniqB6P80Em4EwC5NwZ4mE5Lt6ZfRtNd4NfIwpLLH8B1+t85Fl6ep2hHeNS4oEleYErAj1Qo71fxo5ROnZJkiRPsJIejeOBHVsMvtphAksfuEdVR9b2g2LTmWUjVvVicZKMSzVJH5Wqdvq2c5MnpUMtkwR5V7/7Yd9t11jz4WpBEbQ2At47f7o1qm5rQyEcajmDyXv9zbfqRuxtCrt9yM45C/qiYknIe50hmLEwAVcTICM4gjNEWIWd0qQVlxZb1VZPjdgI7mE1FCP4ppxd2nr0AtOUh0raGFccG4u4QfxNuYfbiA+5kACl/Bo82HLOYIoNfveDtXZlMyCDtLFRfZPsjGnjrZ4tGXV3z5yk2v7I0VPQSnPWVQGNb80XW7oeuuN9UlK8eGJj3+ayhx6ce4e+rgeyc85h34Hsroesel9bexPk+VYTWlu1Lw1q1/I5JuAIATKCPevYTLKGIaVJq7ihnuHFGj2ubsOr2wPx8tJS9JOU706P6dGCRKhz7E05G+OKo6I4HriHe4gPuZ7Ag8IbrLaJiwpdvPXu56KykfW5LH/Yuh+HNDI2xA2MQYSNOWwzJo/WNOxWrdmMs+cua4IkL+of31ot9jKo72FYtOAuTV2WGsTGRGH4sERLp5XjWdsOYtuOQ6ptup6k8BJaD0oNpyazZ01WO83nmIDTCJARXH9DjkPMaYPUiWJKk1ZXZf/Ttt6aBhvBPZAvv3IFMe6cGUKSF5jQlQQGshHcwz3Eh1xPgFKljR83QrXjmzcb8PZ7X4DCI9Sqv1VUVuNtYaAd0IglpljgR1YsVO2zp5NkrM+fO7WnU7eOUQnmL9d9j/Ubt6Gh4c5qanSeUpS9+fZq1bmQwhHDk+z2ApsHtPi+WZrxxHv3HRcG+SpcVSkBTeM2t6NQCjXJFF8W4uJi1ZrwOSbgNAJeXl6IiIpAQKMOYxqdNmv7FFPp5I72DlRUGMsb7G3fdN37qvKiIkyRZASXhOgv2baszBB0FxSLP+b0bZmFCeiBwPy500DlfNViTMkI27c/W/kZMKAf4oWRZS7JS0bZhYv5qpvgus5z+bIFCAy0L4XS+HEjQeWNz52/0lXlHe8pzjf31EUMFGOlIhcUGlBRUY3C66Wq+YDNimjT4ENL1cMZzG3VXgMC/LHo3hnQ2sRGWR4+/nSjMk7KSRwZEYZmwTVQXF9UXKaEeVhTzpqKY8yfN01tSHyOCTidQMKgBAQ0+KMxQD0kyukD0XkHFBNMQuGkUeIJsVGEjeAeVqpchELIyhFcZnnTeg89u+ZQUkW7lI4ooKJEfFlgI1gKTlYigYCPjzdefemnIv73S9WUW+auiovLQT/2yITxI5FsQ+GJnvr4yUPzlFAGrU17ZLhTHl2tXLrd+6BMEE8/sVS1XHP3a9Q+k+FOOikjhJZ0pnuzL30alZd+cuUDWl3weSbgdAL09y2uYAAqUe30vozcgcnLBPh5KEbw8OHDDTMVDofoYanK6+rQT1LJ5PJg/XmCZWaGCPL3R3g4lzPt4TbiQ71EgDylL7+wXDW/raNDG52eivsWznRUjWJQPvPkUlBYhTNkxcMLxL/PEKmqx44ZDjLenSW0fk8/+SCCgwOd1QXrZQJWEyAjOLIlwur2fblhmwELZrAR3O2ObWxshKm9HSGiWIYMKQ/SnxEsKxxCSY82cKAMTKyDCUgl4O3tjRef+wlo05pMoVheMn61UrLZ0ieFK/z8lUelGqtkVJMnlSq+OUMobdqjKxapbkS0p1/KXvHazx5TQj/suZ6vYQKyCZARzFXjrKNa72e8ghlsBHdbWyU9mgiGlyXlOgyHiJW0gbNEFMiIS3DOH1lZ/FlP3yVAj+2feepBLBC5cf39/RwGQR5K8tpSGIRsMRvCWtXvrOmXYmlf+9lKJCQ49wsqhYK88tIKJA8dbM2wNNuMSktRQlko9piFCeiFABnBnrX6c2bphU/XcdT51BsuVzDHBHddQfFeMYKFJ1iWlOkwHCK6oUPK9JQcweIXBAsT0CsB8txSoQX6oaIMlMKLilHYIpT+bOaMiRgzepgtl9nclsb64JI5oHCDnbuO4FphiU06KOxhauZYuLK6WlRkOB796SKlEMn3Ip0cbfKj+GVrhb6ojEpLBqVBo+weLExAbwTICG6p6tz0pbex6W08lCatyGAFM9gI7nYXKUawpGpx1QEeaJXnVO42Uvs/RtVb/0dKrZfi0FBMYSNYDRGf0xGBcWNHgH4o+8OV/CLxhbcSlVU1SiaJtjaT8mifDNGAAD+EC4OMPKqUz5eyMrhSkhLjQT+UFm2vyGKRL9KNUbYLKohBWRVojCSU0SJExM3GxkZh2tRx6B8b7cph3tYXGbAPL5uvfMHIOXkOZWWVKBf5mCkXsDkVHRnH5E2nWN+I8FAkJsYpX04odIWFCeiVAP17C4kO7cwQEcgZItTWiTJEVBTdUGuiu3P826fbkpARHCOpWpweQyECRT79QDnhzij28eHMEN3uH/6ofwKpKUNAP12l/cenP+SZ1ItQ6rV5c27PJazHcXblFRQUgGlTxnU9pLynceuJ7R0D5ANMQIVA7IBYBDYGoJGNYBVKABnBtZW1qm30dlI/v/F1QqZZZIXwFdkhZIgeN8VFSQqFID4lYvMgPSpiYQJGJ0AGmhGMNKOMs/v9YAS23cfMn5mAmQDlCubNcWYall+VNGnidIukp+mWe5J3ho3gbixbhBHsJ8kTrMt44PpuE7bzY5swGppMJoSKkAgWJsAEmAATYALuSmBw7CD4Nfu66/SkzYuNYGkoe09RS00NfCVtjNNjOISsTXGNIoNGgC//Uui9O5V7ZgJMgAkwAVcQCAgIQJgnO3y0WJu8OpMK0BN1owh7grutVIsIhfCTZgTrL62KrE1xZAT7+zmedqobfv7IBJgAE2ACTEBXBMgIDvEI1tWY9DiYNm9RNU4Ih0PocXWsHFOzCIXwFY/5ZYgeq8VFN8iYGaB4gsUvBhYmwASYABNgAu5MgIzgQPDfO6015nAILUIGON9SXy/NE1ymw0IZ0ZLSozWKtEYBgVzW1AC3NA+RCTABJsAEHCBARrBfBz/51ELY4SHSr3p6sCdYC5Sez7eIssnu7AmWlR1C8QQH8+MhPd/LPDYmwASYABNwnAAZwZ5tHD1qDUkPH4Bjgq0hpdM2FMsiKyb4pg73jUVLyg7RKDbFBbARrNO7mIfFBJgAE2ACsgj4+/ujo1VeJVlZ49Kjng5RfYJjgvW4MlaOqUXEA8vKDtHkrcONcZLyBDeK1Gj07ZiFCTABJsAEmIA7E6C/de0tbARbs8bt3u1sBFsDSq9tmoUR7CdpY1yjeCygNwmQVC2uUXiB2QjW2+ryeJgAE2ACTEA2AfpbZ2qRs2Fe9tj0pq9dpEljT7DeVsWG8bSI9GiyPMF6NIJ9JP07bgoKYiPYhvuKmzIBJsAEmIAxCZAR3NbcZszBu3jUJpEmjY1gF0OX2R0ZwbJigptEbIzexEfSE51GkSOYPcF6W10eDxNgAkyACcgmQH/rWptb4dmuvxBH2XN1VF+rp4k3xjkKsTevb+nokJYdotFHf/9gvE0ihYkEaRRlkwP8OSZYAkpWwQSYABNgAjon4OvnCy+Tl85H2fvDa/VqZU9w7y+D/SNolugJ1mU4hCxPMFWMC/C3HzRfyQSYABNgAkzAIAR8/dkItmapWj3ZCLaGk27bkCfYU/zIkFYdfmmUFg7h4cHhEDJuEtbBBJgAE2ACuifg6+/HnmArVqnZo5k9wVZw0mUTJUewMO5kSLMO44FpXj+W9nZ4io1sBDvMkBUwASbABJiAMQj4CyPYu02Hni2d4WvzMqGpuUlno7I8HC6B0oUNGcGy6ls06tQIZk9wlwXnt0yACTABJsAErCBA4X8cE6wNirJDNDQ1aDfUSQs2grssBJX685PkCW7S4aY4mqo0T7DQxdkhutw8/JYJMAEmwATclgD9vWMjWHt5TSJPcGNTo3ZDnbTQqb/y73TaxUa1nbuO4GJeAcLDQzBp4igkJcbfanD02GkcO34GwSGBWLTgLqUNnayvb8SmzTtRVV2HMaNTMTVz7K1rLL2R6QnWY3o0mrc0T7CIm2Yj2NKdxMeZABNgAkzAnQgEBATCq5bDIbTW1CTCIRqbjWME694T/O13e3BEGLopKQlobGzGZ6u/QUNDJ+CTuRewectuJA6JQ21tPd55/wt0/Lipjd6X36jCMHFd1raDOHT4pNbaKcHcvpI2xekxMwQBkJYijY1gzfuJGzABJsAEmIB7EAgKDBR/P3VvMvU6bMUIbjJOTLDuPcEL5k3HgnnT4O3trRi4v/ntezghjN8pGWOwa89RjBiehHlzp6K1tQ2/+/2fcfrMJeGh9FM8wS89vxxBQQGob2jC3v3ZyJg8WvUGUTbGSTKCm7zlbLBTHbAdJ2V5gpuEh549wXYsAF/CBJgAE2AChiMQFBDE4RBWrBptjGtuYSPYClTWNfH27nz8QF7gA4dOKIbwsJQhysU1NXWYPnWc8t7HxxshIUEoLCxBQKA/aCcnGcAkKcmDkZ1zVnlv/t/cuXPNb297TRdG8KdJSbcds+fDtXAPJF3W36OTLwa3wUtCBrhGNoLtuS34GibABJgAEzAggaCgYMUITro82ICjd+2Qm/2bXduhA73p3hNMc8u7VIBVazYr05w9azIiI8OU9yZTOwID/161jAzfupsNaDOZ4Cequ5glSLShMImWllb4+vqYD/f4Ou6JJ3o8buvBQeKC/27rRa5oP01OJz8Vasg7z8IEmAATYAJMwN0JBPj6479P+7W7T7PPzc8QVgxthHv5heU4e/4KdohNcmFhIRidngoPkcmBDFuztLW1KcYvGcMmYQibpaW1s01XA3jr1q3m0/zKBJgAE2ACTIAJMAGLBFauXGnxHJ8wLgFDRHl7enqiX79I3DV9Avr3j8bho6cU4uTtLS2ruEW/rq4eUcJLHBkRKjbPNd3aJFdaWiG8lvoLTbg1cH7DBJgAE2ACTIAJMAEm4FICujeC3/9wHY4Io5dCH4pLykEGbXRUuAJp5IihoBRpzc0tSswvbY4bO2Y4RqWlKAbw/gM5IO8wxRKnpgxxKVjujAkwASbABJgAE2ACTEC/BDxErKyEbVLOm+DhI7nYuu2AMGY7wxvIAH76yaUiM4G/Yvy+9+e1qKqqVQYw555MTJvSuVGOcgd/8+0u5ThtmHvxuZ/cFj/svBGzZibABJgAE2ACTIAJMAG9E9C9EWwGSKEOlAGC4n27S03NTZEJwv+OjVrkPabrqMgGCxNgAkyACTABJsAEmAATMBMwjBFsHjC/MgEmwASYABNgAkyACTABRwnoPibY0Qny9UyACTABJsAEmAATYAJMoDsBNoK7E+HPTIAJMAEmwASYABNgAm5PgI1gt19iniATYAJMgAkwASbABJhAdwJsBHcnwp+ZABNgAkyACTABJsAE3J4AG8Fuv8Q8QSbABJgAE2ACTIAJMIHuBNgI7k6EPzMBJsAEmAATYAJMgAm4PQE2gt1+iXmCTIAJMAEmwASYABNgAt0JsBHcnQh/ZgJMgAkwASbABJgAE3B7AmwEu/0S8wSZABNgAkyACTABJsAEuhNgI7g7Ef7MBJgAE2ACTIAJMAEm4PYE2Ah2+yXmCTIBJsAEmAATYAJMgAl0J8BGcHci/JkJMAEmwASYABNgAkzA7Qn8/9huAaa88hT9AAAAAElFTkSuQmCC;" vertex="1" parent="79">
          <mxGeometry x="19.190000000000055" y="182" width="111.61" height="60" as="geometry" />
        </mxCell>
        <mxCell id="PO05EdHQ-00gVQy-0LEZ-121" value="Client&amp;nbsp;&lt;div&gt;informations&lt;/div&gt;" style="text;html=1;align=center;verticalAlign=middle;resizable=0;points=[];autosize=1;strokeColor=none;fillColor=none;" vertex="1" parent="79">
          <mxGeometry x="30" y="126" width="90" height="40" as="geometry" />
        </mxCell>
        <mxCell id="PO05EdHQ-00gVQy-0LEZ-107" value="&lt;b&gt;EDA&lt;/b&gt;" style="text;html=1;align=center;verticalAlign=middle;resizable=0;points=[];autosize=1;strokeColor=none;fillColor=none;" vertex="1" parent="2">
          <mxGeometry x="110" y="430" width="50" height="30" as="geometry" />
        </mxCell>
        <mxCell id="PO05EdHQ-00gVQy-0LEZ-106" value="" style="image;aspect=fixed;perimeter=ellipsePerimeter;html=1;align=center;shadow=0;dashed=0;fontColor=#4277BB;labelBackgroundColor=default;fontSize=12;spacingTop=3;image=img/lib/ibm/data/data_services.svg;" vertex="1" parent="2">
          <mxGeometry x="80" y="144" width="60" height="60" as="geometry" />
        </mxCell>
        <mxCell id="PO05EdHQ-00gVQy-0LEZ-109" value="" style="swimlane;shadow=0;strokeColor=#4277BB;fillColor=#ffffff;fontColor=#4277BB;align=right;startSize=0;collapsible=0;strokeWidth=3;" vertex="1" parent="2">
          <mxGeometry x="320" y="370" width="137" height="100" as="geometry" />
        </mxCell>
        <mxCell id="PO05EdHQ-00gVQy-0LEZ-116" value="Kmeans" style="text;html=1;align=center;verticalAlign=middle;resizable=0;points=[];autosize=1;strokeColor=none;fillColor=none;" vertex="1" parent="PO05EdHQ-00gVQy-0LEZ-109">
          <mxGeometry x="30" y="68" width="70" height="30" as="geometry" />
        </mxCell>
        <mxCell id="PO05EdHQ-00gVQy-0LEZ-113" value="&lt;span style=&quot;color: rgb(66, 119, 187); font-size: 14px; background-color: rgb(255, 255, 255);&quot;&gt;Customers&amp;nbsp;&lt;/span&gt;&lt;div&gt;&lt;span style=&quot;color: rgb(66, 119, 187); font-size: 14px; background-color: rgb(255, 255, 255);&quot;&gt;SEGMENTATION&lt;/span&gt;&lt;/div&gt;" style="text;html=1;align=center;verticalAlign=middle;resizable=0;points=[];autosize=1;strokeColor=#6c8ebf;fillColor=#dae8fc;" vertex="1" parent="PO05EdHQ-00gVQy-0LEZ-109">
          <mxGeometry x="3.5" y="25" width="130" height="50" as="geometry" />
        </mxCell>
        <mxCell id="PO05EdHQ-00gVQy-0LEZ-125" value="" style="endArrow=classic;html=1;rounded=0;exitX=1;exitY=0.5;exitDx=0;exitDy=0;entryX=0.019;entryY=0.149;entryDx=0;entryDy=0;entryPerimeter=0;" edge="1" parent="2" source="77" target="79">
          <mxGeometry width="50" height="50" relative="1" as="geometry">
            <mxPoint x="452" y="290" as="sourcePoint" />
            <mxPoint x="502" y="240" as="targetPoint" />
          </mxGeometry>
        </mxCell>
        <mxCell id="PO05EdHQ-00gVQy-0LEZ-126" style="edgeStyle=elbowEdgeStyle;rounded=0;elbow=vertical;html=1;labelBackgroundColor=#ffffff;startArrow=classic;startFill=1;startSize=4;endArrow=classic;endFill=1;endSize=4;jettySize=auto;orthogonalLoop=1;strokeColor=#4277BB;strokeWidth=2;fontSize=14;fontColor=#4277BB;exitX=0.5;exitY=1;exitDx=0;exitDy=0;" edge="1" parent="2" source="PO05EdHQ-00gVQy-0LEZ-106" target="PO05EdHQ-00gVQy-0LEZ-107">
          <mxGeometry relative="1" as="geometry">
            <mxPoint x="42" y="260" as="sourcePoint" />
            <mxPoint x="220" y="240" as="targetPoint" />
          </mxGeometry>
        </mxCell>
        <mxCell id="PO05EdHQ-00gVQy-0LEZ-127" value="" style="shape=image;verticalLabelPosition=bottom;labelBackgroundColor=default;verticalAlign=top;aspect=fixed;imageAspect=0;image=data:image/png,iVBORw0KGgoAAAANSUhEUgAAAPwAAACFCAYAAAB/hpVuAAAYVmlDQ1BJQ0MgUHJvZmlsZQAAWIWVeQdUFEvTds/sbIQl55yj5Jwk55yDqCw5g0tGRUREBBWQIAqIAhdBFIyIiIAEAyJJBUVRFBRQVAxklG8Ieu973//83/n6nJ5+trq6qro61NQOANwVlMjIUJgBgLDwaKqDqYGAm7uHAH4SEAAfIAIhQKD4REXq29lZAbT8bv+zzA0CaK19LLMm67/7/7+F0dcvygcAyA7F3r5RPmEovgYAUuwTSY0GALdGF46LjlzDaAUsVNRAFKev4YANXLyGvTfwpXUeJwdDFHcAQKClUKgBAND1oXSBWJ8AVAbdDNrHFO4bFA4AK4LirWFhEb4AcBuhPBIoTySK1+ah7v0POQH/IdP7j0wKJeAP3pjLeiEYBUVFhlIS/o/u+N9LWGjMbx1iaKUNpJo5rM0Z9duzkAjLNUyL4ulwbxtbFDOheCHId50fxTApMMbMeYMf5vGJMkR9BthQLO9LMbJEMQ+KTcJDbaw26d7+QSbmKEZ3CBwfFG3uhGIOFKf7RRk7bvKcoUY4bOqC6/2phvqb9PsU6rreNV2vYkKc9Tflfwv0M9+Uj6FLDHRyRTEJxSKxQS42KKZDsWxUiKPlJo92YqChzW8eaozDmv0iKHbwCzc12JCPifWnmjhs8meERf2eL+ZMYJC5zSa+Eh3oZLbhH0yHD2XdfnQumD6/cH3n33L8otysfs/F18/IeGPumEm/cGfHTTkLkdEGDhtjEVJkqN0mPyLkF2q6RhdCsXJUrOPmWMQlGt2QG/IR/8hoO6cNO5HEYIqF3YY9SDawAobACAiAGLR6gwgQDIJ6pm9Mo782ekwABVBBAPADMpuU3yNc13vC0acjSASfUOQHov6MM1jv9QOxKP3nH+rGUwb4r/fGro8IAe9RHAYsQSj6O2Z9VPgfbS5gHKUE/Zd2Clp9UHtD0brW//+m/6b+TdFHKVablJjfGgXof3PijHFGODOcCU4S4UK2IlqIFfrUQ6sioo5o/J7H3/zY99h+7FvsU+wo9vnOoBTqv6y0BqOofJNNX3j/0xeIGCpTBTFAdFDpqGSEDeECMogyqkcf0UU1q6BUw02717wi8C/Z/zGDf6zGJh9RnggT2Yl6RIl/j6STolP5I2XN1//0z4at3n/8bfin59/6Df/hfV+0tfw3JyYdcxVzD3MH8wDThLkBBDAtmAZMN+b2Gv6zu8bXd9dvbQ7r9oSgcoL+S9/vlV3zZJR8jfyU/MpGX7Rf/NodDQwjIhOoQQGB0QL6aETwEzAP95HdIqAor6gMwFp82bi+vjusxw2IrfdvGgW9d9UV0aNu8DctAr0zavPRI3Pyb5oYeqY5NQC44uATQ43doCFrDyx6S9CjJ40TjV/CQAKdjyJQBVpADxgDC2ALnIA72IFaH4jucyqIA3vAfpAGMkE2yAenQCkoB1XgIrgCboAmcAfcBQ9BH3gKXqC75x34CGbAHFiGIAgPkSFmiBPih0QhaUgRUoe2QsaQFeQAuUNeUAAUDsVAe6ADUCZ0HDoFnYWqocvQTegO9ADqh55Db6Ap6Bu0BGNgWpgF5oXFYDlYHdaHLWEneDscAO+CE+FU+BhcCJfBF+B6+A78EH4Kj8If4VkMwNBg2DCCGBmMOsYQY4vxwPhjqJgkTAamAFOGqcU0ouv8GDOKmcYsIjiEGRFAZNAdbIY4Iz7ILiQJOYKcQqqQeqQDeYy8QWaQX1gylgcrjdXEmmPdsAHYOGwatgBbib2O7UTP0jvsHA6HY8OJ49TQs+iOC8btxh3BleDqcK24ftwYbhaPx3PipfE6eFs8BR+NT8OfxF/At+AH8O/wCwQaAj9BkWBC8CCEE1IIBYTzhGbCAGGCsExkIIoSNYm2RF9iAjGLWEFsJPYS3xGXSYwkcZIOyYkUTNpPKiTVkjpJL0nfaWhohGg0aOxpgmiSaQppLtHcp3lDs0jLRCtFa0jrSRtDe4z2HG0r7XPa72QyWYysR/YgR5OPkavJ7eRX5AU6ZjpZOnM6X7p9dEV09XQDdJ/pifSi9Pr0O+gT6Qvor9L30k8zEBnEGAwZKAxJDEUMNxmGGGYZmRkVGG0ZwxiPMJ5nfMA4yYRnEmMyZvJlSmUqZ2pnGmPGMAszGzL7MB9grmDuZH7HgmMRZzFnCWbJZLnI0sMyw8rEqszqwhrPWsR6m3WUDcMmxmbOFsqWxXaFbZBtiZ2XXZ/dj/0wey37APs8BzeHHocfRwZHHcdTjiVOAU5jzhDOHM4bnCNcCJcUlz1XHNdprk6uaW4Wbi1uH+4M7ivcwzwwjxSPA89unnKebp5ZXj5eU95I3pO87bzTfGx8enzBfHl8zXxT/Mz8W/mD+PP4W/g/CLAK6AuEChQKdAjMCPIImgnGCJ4V7BFcFhIXchZKEaoTGhEmCasL+wvnCbcJz4jwi1iL7BGpERkWJYqqiwaKnhC9JzovJi7mKnZI7IbYpDiHuLl4oniN+EsJsoSuxC6JMoknkjhJdckQyRLJPilYSkUqUKpIqlcallaVDpIuke7fgt2isSV8S9mWIRlaGX2ZWJkamTeybLJWsimyN2Q/y4nIecjlyN2T+yWvIh8qXyH/QoFJwUIhRaFR4ZuilKKPYpHiEyWykonSPqUGpa/K0sp+yqeVn6kwq1irHFJpU/mpqqZKVa1VnVITUfNSK1YbUmdRt1M/on5fA6thoLFPo0ljUVNVM1rziuYXLRmtEK3zWpPa4tp+2hXaYzpCOhSdszqjWwW2em09s3VUV1CXolum+1ZPWM9Xr1JvQl9SP1j/gv5nA3kDqsF1g3lDTcO9hq1GGCNTowyjHmMmY2fjU8avTIRMAkxqTGZMVUx3m7aaYc0szXLMhsx5zX3Mq81nLNQs9lp0WNJaOlqesnxrJWVFtWq0hq0trHOtX9qI2oTb3LAFtua2ubYjduJ2u+xu2ePs7eyL7N87KDjscbjnyOy40/G845yTgVOW0wtnCecY5zYXehdPl2qXeVcj1+Ouo25ybnvdHrpzuQe5N3jgPVw8Kj1mtxlvy9/2zlPFM81zcLv49vjtD3Zw7QjdcXsn/U7KzqteWC9Xr/NeKxRbShll1tvcu9h7xsfQ54TPR1893zzfKT8dv+N+E/46/sf9JwN0AnIDpgJ1AwsCp4MMg04FfQ02Cy4Nng+xDTkXshrqGloXRgjzCrsZzhQeEt4RwRcRH9EfKR2ZFjm6S3NX/q4ZqiW1MgqK2h7VEM2Cvsh3x0jEHIx5E7s1tih2Ic4l7mo8Y3x4fHeCVMLhhIlEk8S/diO7fXa37RHcs3/Pm736e88mQUneSW37hPel7nuXbJpctZ+0P2T/oxT5lOMpPw64HmhM5U1NTh07aHqwJo0ujZo2dEjrUGk6kh6U3nNY6fDJw78yfDO6MuUzCzJXjvgc6TqqcLTw6Oox/2M9WapZp7Nx2eHZgzm6OVXHGY8nHh/Ltc6tzxPIy8j7kb8z/0GBckHpCdKJmBOjhVaFDSdFTmafXDkVeOppkUFRXTFP8eHi+RLfkoHTeqdrS3lLM0uXzgSdeXbW9Gx9mVhZQTmuPLb8fYVLxb2/1P+qruSqzKz8eS783GiVQ1VHtVp19Xme81k1cE1MzdQFzwt9F40uNtTK1J6tY6vLvAQuxVz6cNnr8uAVyyttV9Wv1l4TvVZ8nfl6Rj1Un1A/cyPwxmiDe0P/TYubbY1ajddvyd461yTYVHSb9XZWM6k5tXm1JbFltjWydfpOwJ2xtp1tL9rd2p902Hf0dFp23r9rcrf9nv69lvs695seaD642aXedeOh6sP6bpXu649UHl3vUe2p71XrbejT6Gvs1+5vHtAduPPY6PHdJ+ZPHj61edo/6Dz4bMhzaPSZ77PJ56HPvw7HDi+/SH6JfZkxwjBS8IrnVdlrydd1o6qjt98Yvel+6/j2xZjP2MfxqPGVd6nvye8LJvgnqicVJ5umTKb6Pmz78O5j5Mfl6bRPjJ+KP0t8vvZF70v3jNvMu6/Ur6vfjnzn/H7uh/KPtlm72VdzYXPL8xkLnAtVi+qL95ZclyaW41bwK4U/JX82/rL89XI1bHU1kkKlrL8KYNAK+/sD8O0cAGR3AJjR/Iy0bSP/2ywY9OUDRlsXSBb6CHdgDiCOWD2cOJ6LwEHkJ+nQ2NCGkLPpbtJPM8ow+TGXs4yxSbEncLRw0XO78lTwfufXFkgVfCTMKOIgelTsoQSQVJLylz6xpUtmXk5C3l4hWbFG6akKrKqgtl09Q6Ne8402WUd9q5fuYb3L+i8NCUaqxj4m2aYNZq8sIEsRK1PrYJss22t2z+wXHNmclJxtXcJcj7rVuj/0eLNtxnN++/JO4EWicHrL+Oj7Ovjt9PcLoAQ6BmkHC4RAIaOhLWFnwg9EBEba7VKnCkQRor5ED8Y0x1bF5cYnJYQmuu8236OzVy1JdZ9Gsv5+yxTXA36p0QcPpuUdqki/erg1oztz8MjroxPHPmV9y57NmTs+mzubt1SAnGAt3HLS9JRP0b7iwpLa0y2lD888OTtcNlo+VfGjEnOOtUqq2uC8Z03chbyLV2r7675eZryidNXxWtT17PrqG40Nd262N7beutV0/XZdc3VLeWvJnfy2jPY9HcGdjndV73HcW7w/+qC36+7D9u47j5p66noL+6L6DQfIA48fFz3xf6oyiB0cGqp6Fvtcbxg3fA/dXyovJ0ZyXmm9Gnt9dFRr9OOb0rcOY5ixunHn8cV3ee+3vG+ZcJgYnzw4JTc1/qHqY/i00vTsp7rPPl8Yv1yfsZt5/3XPN/Zvd79n/Qifpcz5o/tofKnzp+zq6vr6C0OX4GCMImYSuYxNxrnhdQgyRHGSOI0QrTxZk86e3ochibGUqZl5ipWBTZ2dwpHOeY3rFQ8NrxLfNv5kgbOCLUIvhGdFacT4xVUkzCW9pBKkc7dclumWnZRHFAQVtZU8lKNVMlUr1G6qP9J4q/lDG6fDvVVB11ovVD/L4JJhn9EnE4Ipr5miubGFs6WPVbh1vE2S7QG7g/ZpDumOGU5HnDNcUl0T3ALdnTyMtul6mmz32BG3M9/rEqXNu8un0/e6X7H/7gDXQPkg2qDp4L6QxtDqsKLwrIiUSOouT6peFH/UcvTTmIuxaXHe8cYJ8okiu3n3cO5lTWLYh9s3l/x2f1fK5QP5qXEHt6dZHDJKtzpMydif+deRu0dfHfucNZs9nzN7/HvuTN6n/OmCzycWTjKc0igKL64s6Tk9Vjp15t3Z12XPy/sr7v/VXNl0rqvq03nBmu0Xii8+r2O5ZHM5Hb29Fq/L1vveKGoYaMTeUm7aeftgc2VLU2vznfNt2e17O+I6k+9m3Su5X/7gdNexhzHdjo9kepCe4d4rfZn9wQP2j42fGD+1H/QeinmW+vzQ8N4X/i8NR7hGpl/dfH1o1O2NzFvC2/dj7eMl73a915ugnXgyWT6170PQR9/pwE9hnyO/RM5EfqV+i/2e8CNuNmjOdJ5+/uqC8cLDRY/FT0t9K7Q/h9fXXxp0QJbQM9gPg8NkIdJILzYRJ4ebwv9FCCTKERdJXTSltHFkBzpFejr6OYbnjK1M1cy5LHtZA9gc2HU4JDlZOVe4JrkHeJp5a/nK+YsECgTzhLKE00RiRSlixuIC4gsS3ZKlUlHSZlsEZWCZKdkhufvyjQrnFQuVkpW9VDRUcaq9avnqbhqcGs81S7R8tRV1cDqvttbrZukF6hsZiBkyGAGj78YTJoOmt8wKzP0sRC1GLQutbK3x1u02B2zN7TjsPtg3O+Q6BjppOZOdX7lcdN3jZuHO6v7ao2pbBBr/F7ff3pG809CL4NVPKfYO8dH2pfUd9jvnvytAPWAlsCUoOVgvBIS0hu4PMwxHwjsjDkbqRy7sqqG6ozG7Oto2+kdMYax27Ku45Hje+NsJXolsicO7a/Yc2OuWJJE0t689OXd/QIrRAalUjoM0aSDtx6Gx9EeH6zKOZFKOKB/FHx0+dikrIzskx/Q40/G7udtyp/MS8/ULDE6knyScyigaL+E8rViqcUbjrEqZXLlEheBfnJWM50hVxGp6dCfpXPC6eKj2Yt3jSytXJK56XDt+vf8GS4P7zeLGoSbsbclm0xbv1n13Trc1t7/uWL0reM/wfsCDI12XHw52/+yR7N3Wd6L/1WPFJ0effh5yfHZzWPBF/ojca7o3ceOZkwmfbL7NLdqvrf/G/4BrBacKQC6aZ7ocResUADk30DzzFgDsJADsyAA4aQD4UC2ATWsBFHLwT/yA0MSTgOacbIAfSAJlNNO0Ah5o1hwPDqMZ5QXQDAbAe7ACMUGSkB6aH0ZBR9F8sBMagyFYEDaAfeFDaJY3AC9hhDHWmERMFWYIISCaSBhSjjzHMmEt0YysHQfh9HDJuDY8Fm+Bz8Y/IwgSQgk3iXiiK7GKuESyJp0lzdPY0FTRIrTetO1kUfJh8mc6J7omNNPJYQAMuxjGGd0Ze5lMmG4zqzPXs2iytLM6sI6xxbDj2As4xDgaOG04J7nSuRW4x3hKeb35pPkW+O8K5Av6CikL44RfiFwVzRILFbeUkJYkS85IPZW+teW0TJKsp5yGPIv8jMIjxfNKh5UDVSxUZdVY1VbVP2m80hzQ6tLu1OnYek+3R29Yf9JgzggY49B7jmBGMCda0FqyWAlaK9vY2Ibb5dk3ObxzIjsru7i77nU7497hMeFJs11+h8vOPV4VlB7vBV8RP0f/gwFNgUvBhiEnQxfDfSIGdplQm6KVY+riZOIvJ2rv7tsbsY8neTAlL9Xq4NyhvMNbMjqP+B1jzXqd8yh3JH+1UOCURrHV6Z1nEsrOVAyfk6k+c0G+dvTy2Ws7btDcrG3a3iLdxt9pcr+sm7ZXon/uSc6QxPP+l6dfn3g78N5ravET05cL38AP+TmN+dXFjKWG5Scrt36W/4pcVVu/P6D1/xyYADcQA4pAF1gDTxAGkkAOqAA3QS94B35CbJAcZAH5QwegMugO9BZGYHHYCqbCp+B2+AuGB2OJ2YOpw4wjXIgDkol0YiGsDnY39hZ2BaeLO4B7gGfAu+P/wn8j6BNyCe+JWsRc4jTJBF3zFRo3mmtoJkylfULWIJ+ho6GLp5ugd6fvYTBhaGXcytjCZMjUxezIPIJmpkusWWxSbA/Zd3GwcdRz2nO+50rgJnNX8OjxjPPm8Fnw0/GPCFwVPCYUJGwgwiHyUfS2WLa4v4SBpKgUkzRhC1aGIEsnxyTPqEBQWFScVBpS7lK5o3pHrUv9hcY3LTpteR37rUG60XpU/UADN0NTIw1jZRN1U1OzneZJFmct71nN2HDbGtuFoDEtz/GEU75znssZ1xa3rx4q25I9H+3g2xnt1est7OPvm+933b8nYDxwOZgtRCnUKSw2/FREa+QHKnuUSXRszLnY4XiGBOvErN3P9ool7d03tj/gAENqV1p0Ou7woUzkSPox7qz2nJRct3zDE1ontYq0SjRKJc8iZXcrYiu5z92u9q5hvTBS23mp98rsdYUbe24+bKJvNmqltlV2TN0zeHClW6GnuG9k4MeTr4MTz8aGJ1/+eA29IY2xvBOZMJsqmFb7kvG9cj50sWc5daX9549fi+vrD6OnnxHwARmwFdgDf7AXFIBLoBt8gIiQNGQNUaFCqBX6ALPBRnA0XAkPYxgx5phUTCvmJ6KFJCKNyApWH5uBHcJJ4vbjRvBb8WUEAiGC8ISoQSwhwaRg0lMaI5pbtBq0d8h25Pd0KfSC9K0MngxzjNlMMkyPmMNZyCxVrAasL9kS2PnYeziOcXpzGXBL8bDwLPOO8DXwHxcIE7QSkhfmEMGJLIp+Ffsi/l3ipxSdtMgWPRkv2WS5EvkGhceK35W5VMxVU9TaNWg1PbUu6eDRd9VmfSGDXCM241pTD3NGi36rUzYRds4Oio7Dzh4u3W5m7o+3+Xsu7DjgBVEivZ/6qvkVBxAD9weTQsrDrCNA5A1qRDRfTHtcTILv7s9JFckJ+wdTVlLhg4Q0hkNK6VGHn2Q6H5k6lp4tm/M8Nz1fq+BrYfWpHcWkknOlamdul+mWt/5lVNlVZVf9pMbpQl+tSd3NyxJXTlwjXN9bv9JwuFHsVt/tlBbV1qm24g7bu8i9Ww+iHkp3j/ec7nMbYHk88DRryOLZ6vCFl7Yjk69jRn++TRnHvEuZgCcPfEA+7pv+/NnkS8JMydej32K+G32f/3F+1mb2xVzg3Nx87PzUgudC76LhYs0SeSlyaWBZZblw+euK+UrZyvJPp58Xf2F+uf26sAqtOq+eX1v/jW9H6/GDAYDi12uoS+rB2X9/t9n4rvSP3OTfLViPLmtlLbqslbVIA/4Hq1Dbb1b6fAUAAABWZVhJZk1NACoAAAAIAAGHaQAEAAAAAQAAABoAAAAAAAOShgAHAAAAEgAAAESgAgAEAAAAAQAAAPygAwAEAAAAAQAAAIUAAAAAQVNDSUkAAABTY3JlZW5zaG90jTLqTQAAAdZpVFh0WE1MOmNvbS5hZG9iZS54bXAAAAAAADx4OnhtcG1ldGEgeG1sbnM6eD0iYWRvYmU6bnM6bWV0YS8iIHg6eG1wdGs9IlhNUCBDb3JlIDYuMC4wIj4KICAgPHJkZjpSREYgeG1sbnM6cmRmPSJodHRwOi8vd3d3LnczLm9yZy8xOTk5LzAyLzIyLXJkZi1zeW50YXgtbnMjIj4KICAgICAgPHJkZjpEZXNjcmlwdGlvbiByZGY6YWJvdXQ9IiIKICAgICAgICAgICAgeG1sbnM6ZXhpZj0iaHR0cDovL25zLmFkb2JlLmNvbS9leGlmLzEuMC8iPgogICAgICAgICA8ZXhpZjpQaXhlbFlEaW1lbnNpb24+MTMzPC9leGlmOlBpeGVsWURpbWVuc2lvbj4KICAgICAgICAgPGV4aWY6UGl4ZWxYRGltZW5zaW9uPjI1MjwvZXhpZjpQaXhlbFhEaW1lbnNpb24+CiAgICAgICAgIDxleGlmOlVzZXJDb21tZW50PlNjcmVlbnNob3Q8L2V4aWY6VXNlckNvbW1lbnQ+CiAgICAgIDwvcmRmOkRlc2NyaXB0aW9uPgogICA8L3JkZjpSREY+CjwveDp4bXBtZXRhPgpTaeDlAAAj1UlEQVR4Ae1dCXwURdZ/YEgIt4kESJQQSECFcCuwHomKaIR4oIKI4rFcIqDsyroIXhyyCCsq6AcKqOjKsQgICMjiLiAu4AFr8CQoEEmQI4FAIAQCfPWvSXV6JjPTPT09Mxl49fsl00fVq+p/1at69erVqyrFxcXniAMjwAhcEAhUvSC+kj+SEWAEJALM8NwQGIELCAFm+AuosvlTGQFmeG4DjMAFhAAz/AVU2fypjAAzPLcBRuACQoAZ/gKqbP5URoAZntsAI3ABIcAMfwFVNn8qI8AMz22AEbiAEGCGv4Aqmz+VEWCG5zbACFxACDDDX0CV7e5TD8z/J+2dPtPdK352HiIQcR5+E3+SSQTyl39Cvz0ykKpQHTq5M5uSX51iMiVHC1cEqvD22HCtOj/LXVBAWxPa0UUplxFVqUJnduRQ01VzqV56mp+EOXllRoAZvjLXTgDL9tMDf6SSrJ8ls8tszp2jM9m/0RUFP1F0dHQAc2bSoUSA5/ChRD9EeUOUP/HR2nJmRznEKI/RPnfUsyEqFWcbDASY4YOBcmXKQ4jye3oNcYjyruUSTH905j/pyLr1rm/4/jxBgEX686QizX5GBVHeNSGL9q6InFf3PMIHuDqFUpTo5ruInh9PJEbXUAYswVUQ5V0LVCba5wx50vVN0O8/f2cu/b3DdfTLlq+Cnvf5miEzfIBrNnpvLtHG1UQvLyJKSCCaOo1kJxDgfCuQF50NluAuat64wqsKDwTTH5+/OmSi/f8+Xk5/a9qePh81iUpyCyjvhx8rFJEfWEOARXpruPmWCiP8xl1EDaoT7f9dpN1PNH0G0R8f8o2OH7ENRXlX2iEQ7Xds/IKWP/FXyeRRCTGyRMd/+JVGFuzklQPX+rF4zyO8ReB8Sja8v4h+xJGkQUPB+G2Ihj5PFN2ESGjMAx1MifKuhQiiaA+RffqN3WnRPQNlKRSznz58nJIfvZeZ3bVu/LjnEd4P8HxKirVtMLprkCN+PaKP/kZ0262ub/2/F6L8NwnNKKJ5K0u0YJCTuPBNis3sbim9t0Rg9LV/m0L5m74jxeT6+BDne3/8LjXrdJX+MV/7gQCP8H6A51PSv4wWkvzJiknkiF+d6O5+RE06C9H/i4px/Hjyfd/+FJHS0jIFrM1jGc9OvcNeodf48PEn6R/pd1JRTp5bZkeBq9aIYma3XHPuEzLDu8fF/qcP3Cdo5nmm26Cp4x3m+/jLyvIc1+QbiPIl675xNrAxmVaLZqNof/DgIVo4YiTNSbmaclZtoJpXln2zlln5BcT5a54N/UpBeYnOjysW6YNZj027EJ09Z5yjlASE2WtmL6IJwvItJdk4jWsMP0V5V3L+iPaQDtZOfoW2TXyTIhs1oGoX13QlX+EeyrrHcr6l+vUvqfCOH1hHgBneOna+p4SCrtfjYi4vFHdmgmL8hwcRvfgMUVycmVQyzvcZPak094B/o7s+tzKtffvcbUQxDg26/rW7azD6F7Pfof+OnGCa0RWdWo3jadCSBeqWf21CgEV6m4A0Q6a4640imliSMxuwjAdF37vriBITTRvv2CLKu5axTLT/afhI1zdu72E0MzWpI339yiwpupsZ1RUhKOtu+PNwdcu/NiLADG8jmEak5C40T8o7b4kV45sx3jlwwLyBjbc83b0TTA9LPWy+8RS+XrSEXmrYkr4Y96pUxvnC6Hqaza+9Rn/L1zYhwCK9TUCaJgNlXKeuYuT2rLAypKVEfTfGO7aL8q6FEaJ9afb31CH3FyfRHtZxq0c8T2dPlHjUuruScncPZV3HP/WnrkOHuHvNz/xEgBneTwAtJcfymx1BruGfEFZ7k6XVHkT5vY88Zc581p/8BdNHtW5Bl38wm2Adt+a5l+joD7v9YnRVHCjrHs3+ki69VJghc7AdAWZ42yE1QXD2ew5LO7PKOyOSYHxB6+jxU7Qr3lgDbkTO1HvB9DkRVWh7XoEtjK7yZGWdQiIwvzyHDwyu3qnelSne+6C8805N0/rXqRlJbQpPU6MzJpb+jGgavRfz+cal5yi2zObdKLqZ91DWdXr4ATNROY5FBJjhLQLnVzIsa2GpzZ3lnV+EHYnjikqDxvidS20ocBmJ0sIj1PYOdIYcAoUAM3ygkDWi2/deEcOL5Z1RehPvJeMfKw3ciC9GeRKifXMbBAoo69qNYkWdiWr1KwozvF/w+ZFYLjvF+0HAZFJh2RdQxi8T7WuZLI6naKf27acr7of5MYdAIsAMH0h0jWhPhlgvFG7BCDrGx6hsd/BXtI/p0paSk5vZXSym54IAM7wLIEG97XW3yM5G5Z2ZwgvGb3NUzPGLz0hx3EwSwzh+ivYQ5zsPgc8ADoFGgBk+0Ah7ow/beGyQCZDyzlvWdOqsvYzvh2gPcb5l91u9Fpdf2oMAM7w9OFqnMhxeXgKrvPNaOD3je41o7qWvoj1G98sH389ebczB63csZni/IfSTQGWxGQfjizX8pLzj1j/IgmgPU9wO9wkph0NQEGCGDwrMBpm8JPa8h0Ksd1Msv413fBTt4dqKXVi5qYgAPWKGDxCwPpHt21tEFw4vKlHw13jHjGgPcf7qoQMq0Vef/0Vhhq8MdQzl3bVCaVVJRnk9JJbW8E2K9lDWXd7jNn12fB1gBJjhAwywafIjxJq8cmVtOlGQIurW8E3b6RuI9hjd4YKaXVgFqQ7LsmGGDy7ennOTLqqDvCbvuTTu3+gY36zxjifRHsq6jn1gXswhmAgwwwcTbaO8rHjDMaIZiPdmjXcMRHv2ahOIyvFOkxneOz7BfStdWVcu5Z1XAPRr+J7Mdd2I9lJZN0Y48+QQdASY4YMOuZcM4Y4ayrtwC3rG91B2vWgPZV2re2BWzCHYCDDDBxtxo/xwDl2wNtQYlcXX956Md1xE+wa3XksNGzbwlTrHtwEBZngbQLSThM+urO3M3CZabo13ykT76jn57NXGJpytkGGGt4JaANNYdmUdwDJZJV3BeEcwfZei4+zVxiqgNqRjJ5Y2gGg7CXFMFCW0d5C1y9Gl7YX0nWDu/m+p5qrVVC89zffEnMIWBJjhbYHRfiI4pil6xiyiZ2YL4kpzX7ssoxplv+KYaX3AgRXBDBUsA4+U5X5CV4pj4lqUOzPD+jl5Omp86R8CzPD+4Re81Bj188VfsWCmvWI7rdB0y+uD+UQHDol3h4m+3iGe7xNlcjXgUR2F1eKCafVB0MNBGimNiJITxZl34sDHenWJ6tRxXF8sOqIGQilXtw4V167NW1/10IX4mhk+xBUQ0OzRSSCUCteyhUcd1+o/Og5PIVpJECKCYFqKiJAxi6OjmXk9YRYmz5nhw6SiuJiMgB0IsJbeDhSZBiMQJggww4dJRXExGQE7EGCGtwNFpsEIhAkCzPBhUlFcTEbADgSY4e1AkWkwAmGCADN8mFQUF5MRsAMBZng7UGQajECYIMAMHyYVxcVkBOxAgBneDhSZBiMQJggww4dJRXExGQE7EGCGtwNFpsEIhAkCzPBhUlFcTEbADgSY4e1AkWkwAmGCADN8mFQUF5MRsAMBZng7UGQajECYIMAMHyYVxcVkBOxAgBneDhSZBiMQJgg4fBeFSWG5mIxAuCKwbt0GWvrxcjp5opi63nwj3XNPz5B8SsBdXB08eIg2bdpE323/gTZu3ERbt/1AhYW/iY+tRlXEX4o4Xql9x7bUvm1rSku/jlq3bh0SIDhTRsAsAosWLabIyGpa9OrVo6lbt67avevFSxMm0fjxL1N8/KXyVV5ePvXu053emTPTNWrA7wPG8FlZWTRBfOSy5cuobt2GVKtmNEVFRQp/iM6ziNLSs3T27Fk6ceIkHTp4jGrXrU6jn3mC+g94lB0mBrz6OQMrCOCwkLp1L5NJjxWepJtv7UxLlyx0S2rv3lw5qDVPcR7IsrP30MpVCyk9/Xq36QL10Jn7bMgFI/qdd/Wizp26UVbWj9Q85QpqEHcx1axZvQKzIzt0AJGREVSvXi1KFm6PEXfKlDcpNuZSQk/KgRGofAhUk+0UbbVxYn2KqhbpsYg7d/6idQ76SDExFxPeBTvYOofHPCUjowc1SUwRvZrwV+4Sjh8/SadPl9KZM2e1N9WrR1YY+cH89eol00MPPkmfrPzUZ9EHhzh88skqLQ9c1BE+072JXU6R+YYRsAmB5ORmcgqLzkEfCgoOE94ZBUjKO3bsdIqWlnY91a8vzgKwEGxjeAez3yJGdGfRBUyOOUt8fCz1uL0btWp5pWBmcWiBCEeOFNKB/Qdo1adr6Zuv/ic+Ik6O9Oo7MOL/e+1G6t3rAVqw8AP12NTvgw/21XpWiF29+mQww5tCjiPZicCllybQs2Ne0Obw1apF0J49+ykzs6spcf6zf6+n0aPGUp26jg4D+q9t28ArIWT433/fL0b2isyenf0r9evXm54cMYwuv7yFRxyfGf00gca8+QvlxyUmNpZiPhJgtF+/4UuC4gPxzIYqVEuKXYh/cb1SIXaVK1nM0uB4jIAdCKDddryqAy3+aCmVnD5N48bfYlpLH1G1qtNAeLTwhJgGWx+nrafUITH4sWFCjL9S94TIoZT4yFQvhoQ4L3zEk8Pogb59qOfdfWhf7gE578c7iEPjxr8gnt/pteNAXA6MQGVEANPJyjCl9FtphznGmtUbtBEZYGdn7xTLb+tNM7u+giCqfL7hX9QoIU6ckFQ+10eHMunlV/RR+ZoRYAR8RMBvhl+xfJWYn4uDA8tCfv5Ren3aFL9H4nfmzKBdu35VZGWHMn/eXIJCjgMjwAhYQ8Bvhp85c64meqMI0D727XuftdLoUkGD2a9fHzp1ShyEWBaw9rlly1fqln8ZAUbARwT8msNjtD148He5hIZ8IYKnp3e2zWAGJojvzZ0tLPJqyc86R0Vy7dLIWAGGEaEIP/30s1Q+qrzRaUFL62sArvniaOiCAnEUtAg1atSkhIR423A1Kg/yz83NE8ZQx7X869ata1kzbJSfp/ew6cjPzxedfgnFxMRSbGyMJQxAp7CwUH5PZGSUoBMb9G/x9I1Gz6Nr6E7yLYtcvXp1o2Qe3/vF8EVFaBDl2m9YzDVu7DAf9JijDy9gb9y9e4FhChj65ON8dF1ISmqi3cGwZ9Omr+i662/WnqmLo0eO0rPPPe1WawrDiMweveiSuBgZHXFfe32yk24Ccaa/MYPemjFHxIkWyyeOCsLyycuTptCw4Y+rrLz+wiJryeKltHDRUrFEuVXSqkIOAewcQZdRLC22evfuGRDl5Zo1a4Xl16e0aOEK0dGI8+YpSnS0+vxLxH00Pdjvdpm/FQUU8hj51GiqU6+OxKLg0BH6aPEHTtM/4DD3vQ/EtHA2HS08LPNEZIVBZmYGPTZkoFMdSGIu/1AvCxcsIkigBw8eEG+jdDGKKTGxCQ0c/LBUEltd4tIR9HqJJesnho/UvhvtaNz4MXT77ZlO6RDv8SF/pphL6mnPT5WUOi1Vp6QkUJ/7H9be6y9ydufRnpzv9Y8qXPvF8A5qZzSiVatWpZycvdq9HRdmRmsw+6EDBYT8VXA14cVzNDDXkF9QKO0BXJ/jvlScq75nT65Gd9eufWK0OaVFxVIhVg8S4ptLZtReiIsoYWvtrnfWx8E1Rh+s00KSiavflGrVqlGBlkoDCWrOnA/Fmu4U6nbrDTRl8kRTxhsqvbvfWbPeoeHDRomOqo40f46NrSNGQAdDuou/du3nYhPIGoq46CKa8840nzTPJ08WC4VuLiUloQMjoaPBnoryMPXVafTMqL9IPLEy42qsgpiw3rwt437x/X+geR++V2HEh3Qy6pnnaOaM6ZKOw4jLISGW5+S4evWVGTK/99//h9sO3zW+P/c7s/dRk7LvRpvzFHbv2u/0yl07RoehV2irBAcO/qouPf76xfDoGc9RiUYchVu37gupWDPDqFpCGy7A7O7A0ZN29x4N11uoQuX2/2r0RvzBg4bKhu9qaOSNlus7jHh33NFTNMykCgZLrnFxj/JHRFQXHUJT+vnHXyg1tRVNm/Ym9e//iLvoXp/B7uGWbrfT/gOHBb2KVpGeEsNEGn8Id97RR46Sr06d7Cm603NsMgGGqh6ArQpPjhgppKR5hjhAWsMo913Wz9Sxw/X09TcbNKZH55melkFFRScM6SBfR2fQmvo9OIR+E5IFloUDFbBHRH23tzzMxnNPq1za9pSHXwwPordn3i57XVQEQnx8PE195XWfjGRkQj/+ocfbtWu3oFAutqFR6AOUf7Bwcg3nyDFPdn3u6T4yMlLa+L8/d5m0/Uc89LaFhUVUeuYMwapPiZ/FJ054IkMYWYcNe0I0zCuc4sAyseh4sRBnj4rnp8veVdNGYMVswBudDUZnWCv6YpQEcTc1tR01TWpRYRQ9cqRISB0YgRwiPBogRGtgGxNTW1gv1tIaLjoeMGncJZf4lH/ZR8mfWrVqSTxBB3WGejp85Jju+6tKsb5RvGM/hkoLHIDVww8N0Kwwu97UXW7EAiNXpIOUjg4nNqau9g14ig7vmVGjqV3bNoZTBcQPZMBUEMY1KsBCVdW5eoZOWh9HPS9vL+VPXK/8Zvh7e/UUlnB/1RoOCjd+/FRq3iIl4GKS+phPVi6mkydPylsoNIqKiqh9u5tkA8JDVH7nP3Sk/6wbK9+pdOoXCikzAWL6oUOH6M9/elYyOxgdHQ3E6x7dM6R4HRPjmH/t3r1H2O+7p7ts2XLBqE85MTvKuHtPNg0aPEiMnJlyXltXiNmQlDByff/9D3I/9cwZM+VeBdXBorH6gjdE3japN0hm148SygR6wsSn6aYb0wR2KdrICWwwt169eg2NGTNRWC7W1uwuwKSY1vQQc2tftzajM0FdDR36V1lXEPfT0zvSayOGUrt2baViDeXNzs4mLP+OGz/Bqdxoa8uXrxNS5Qba9r9vhR7nqJyOwOird5876KF+famlMOWGJAo6UIRu3bqVJkx4hXL3/u40dUHn99jgEfTjT9+YaQoBidOp01W0fft3Gm20ZegzMI1TTA9mnz9/lmxrqs1rCUxc2LI9NrlZmwobYFB5Awf3oYkvjXVqOCbK5HcUVG5sTGPRiJpKWmCmtLQuNGPmdJ9oQ+veod3N2kiOxBgBMYLgt3GTeHr7relOSiejDNxtlwStli1T6K233zDU6kMUf/SRQaIDyHZS5uzIzpKdDywWvYVHHh1En6/frDUgxPWlroBtn/sfklMK1ekA3xZXNPO4RVSVB1OYfv2GaIMDnqOjQWPOzt5Jc99/2+sgoaYh6GhdOyvQctAxt+0U+hcoBvV6AuCwctWHhqN8dHQdrbPGt7dufYUmZaAcrgEd0n339dfyAtO+9dbfKyjtXNPhftrrb8jdo2hzCChj1vb1lnU35VouSc7av8VL3qdfd5X3TKCCnn/FsjWC8VJkoVFZ50NQzJ6RcYO0CPS2R8Dd9w4c8LiTGTKYHbRWrlpqyOygB4ZG3M6d20lmUXnAEhHKKm8BDQ/GS/BLoAIa0KRJowjzcDN6F8SBsgxit1IcgfE/Xb3aaUlS0Tf6VUy69OMFXpkddPDtn65ZVjZ9K6cMGg46v9LmLWsMGRYpMQXKuO0GKf0pShCf4ZXmfA62MDxEuQULFhJGGX1AJYDxsb+9aVIroV29U85dYY4brgGNHCO7r9ICvhcMt27d15o4jNGhXYeWlmip3YN6pps/b54UvT1hC/EWSj4s+0DsVSO72aVDRRdMP378KKm3UM/g5OTLL79Ut6Z/McKPGTPCtLYfTD9h4nNSwtJnAjpYZvNlWjFu7HNyFUbRQXvFIHU+B1sYHgBhTXGVWMdFQwL4+oBREeI1lrjGjZ1CXTr1oBrRDaWmG04uIOaGS8DS3BvT/26puK++Nl2s/5aL3Hv25IgpwZuWaCHRrNnTxGi3T0sfV/8y+qcXpyGYy0Kjj70KWdu/EIw2TE65NAI+XMD4qaDgmJYCHo3gxszXkJu3i0b8abhPyTJu7Sa9I+kTYQv24EH99Y8Mr2EUlSrEcdVpIgHKg2nL+RpsY3gAhEaQX7BL7nvHaO/K+Jh3gfmxzx3KpvXrN0mFTfOUDtTyyqsI67CYN1fmAInFl1FEfQs6tTWrP9NGd4jyY8Y85ZfFF/BOSmqkspBr+O/O+UC793YBK0CItWbEeHd0YPkHTb4K2Oedk+O8rq7eefqFhHNfnz4+lwHbp88JQyR9gJGQr9MrpO8ilLklJeW2FVWohlAkOiwM9fTPl2tbGR6goAFhPgglDBxeYE88lBSuzI+4mPtBaQLmR2cAQ4j27dKkRRwUPJUt4Btg6WYlbN68RSxrxWlJDx7Mp34PPaDdW73oP7CfJt4CQ+ANrX6gA+pZb4OB/A4frmjY5K0c8GN4zR86e4vi5Z3DeAcRMEK3v6qFl7ieX2FJ0TWUlJR3ZK7vwv3edoZXgEBcAuPnF+TQ3LlvljH/HoLFEUY3vRil0jhE/0RpEXfXHY/KOT/WjCtLgHuu2rXdW20ZlXHtv/4t0pbbRSclXWZKSWdEt+WVV1DJKbVeL1x5Cc8oWMILdIDEUoU8W+SZyR/lbtzY4QzSTHxvcWrXrOntNb8rQyBgDK8QxkgAu2sw/4ni32nTlhX01FNDyhRHO+XoD9FOHzBSQeyH6WVqaqvzwpklTFLVMhYkhZtvSdd/suVrMIzeCAOWg7AVCFQAo0Pv0v22nlIhG6h8mG5gEPDb8MbXYmH+iz9ohiF6wmf9yk8+FVLAPDE6iR1ROisoMAisyfo9OEBIBYWWTEh9LV8g4kMJBGWQsqrDsti+3H1yxcKbNZ5RWWCrDys7LCepcNFFVWlfXrkiTz03+4s62bcvj2A4tGd3Dv0iDItQ1u+++1ksvf4sR3WYx+rXr83S5nihRyDoDK//ZGiNod3H39RXJ0tPs+PGTpKjvr5BpaQkCzPUIXT11R0sKcz0eYbiGkogKINUgAQDBtq8eZt6ZPkXyjIsJ6mA+2PHitSt4S/sIzZu/EJ6B1618j9CWnCY0YKpYVkIevhzdL7OZsCGxDlCpUMgpAyvRwOiP7bD4s+xg+spITIma1Ew0mf26GO4/U9LUIkusBdbbH1xKhGYHjqLUAXYQjz3/HhpMBMbkyD1C+hk9R2tu7Jh+gVlG+bfRnHdpednoUXAuRWGtixa7lgrxmjeudMNTkyPRgY7dEgE4R6gtMSuLrsDTu8xCtiZpmzy1TRDnwZlw1IVlJTA3LEhCEtXp4V75Qy6udtNYpdfJiU2bsvzeD1wYXBdKRkeuGGeD994Lzz/srbJAZs2lixdEXYM7+qhBAzVqlULuvbaLlQqnIbYHZo1beKRZPm2XmfxHIpEGK+IRS5hT9GZml+eQs2SmlBik8bUpEkixcU1kKatesLnCDv6nHcl6t/zdeVDoNIyPKDCSI/tn8ohA+aRC+etEifRVD4gvZUIrpn0RioYPdu0STXtDccbbV/eQbs+d+5Sp1EZnQ+chY4Z8xdLO958yZ/jhh6BSs3wgAejDUxyMedFOEfHQ+JgQ2Zu8R/0E/oAJdi3327XPwrKtdqGqjLDfBzuu9at/9kviz9Fj38rPwIBX4f3F4IGjRpIpwbldKqFpekj9sxjNEWApLJi+YbyTwrCFUyW9ev1yBI73tZ8uswys+O4bw7hhYBlhoeWFyNXjej62p/rSGYHFD98v0PzKeegd1rYjIefVVVa2nVOSjp4xQmmFeGOHTukeylVJ7B2xI43q3Xm2GBiufmoYvBvkBGwXGPwiIK15ZSUptpfFYq1tRHDCGR71neaOA9s6tdvaLmRBhlbp+zgRUavQa9fvy4tX7HSKU4gbw4cOCQdT6o8UBashFgNOB9AHXBolQanCz4ClhkeI0Oq0KQrMRVFh8UXXAPbFd5+a7b0kafoQZN81923qVuffnGIXygDVh3g0knhhTV4nArq71ZM2Czgz0haUCf2KgwcfvfUne+/8+ctlF5ufU/JKfxBALsC4U3ZarDM8MhwwIB+Tk4QYPE1fvzLtmxxxZQBtPRWZFg2gr83c6F8uQtz5i83bzWXLICxXJ1GwOHniCdHWs4REhAsELF02To1TSybNRcn9Y5024nUqVNHOtlUmcEhpeu54+qd0S/0ATCF1teNURp+bw8CGDR83Yasz9kvhseRUvkFzs4rYB2Xnp5pOOLoC+F6DWbv3KmbmCoka68wMsJ5hNGpM0jgmJc6a8axESfUjjaAF47iUgEMAx/v8ANgJTzUr790l4VlS+zTh50CbODdzcuvFLvqHGazjpzgfXbyZN/zhUTSo3svp7qxUnZOYw6BRvGNnHZDwtEIDgyxGvxieDSsadNek7bv+gLA5LJ16tVS1NQ/N7rGiAXngg4LO2df6Vgr/r8ZU41IaO979+nu5K8sMTGBhg4bob0PxQXwmr/gbekVSOUPrEaPmuRxZFbx9L9gOpy2s2PHLm0HHt7D6+3YF8foo2rXDu8urbQpBZY5f993QOarRTK4QEd8eYuO0iee6w5Hg6T82iICrVq1FB01DJwcAYPEWzPel+7S1DNffv1ieGQE45i066/WnDCozDE6Q9SsEX2pZGL4c8MIq5+z4hpzT5jLwgIMWz3hklc/soMeHGjAMMTM6K7yh4tivR96iPU4vAEeduEJFHniD6MrOppgBZgFDxz8oFMnWe7wM0mWzdN8HM9R3tiYJPktepEaGD07ZrTXzUXjxo12cokFPcKSj1ZKhyOoH33d6PEAo6N+0BEjDY4Ug9tvZno9SoG5hhcfOIhRuh/kgvvbMnppLuLgLAZGVfgzCrYY3sChIhxUZonTQJRVHDLGNf7AxI6zwmA7DtdE+n4mSi4XQRx1d4oLHGYMGNzb54MO0DnAxzlEeTA7An7xB6easBFHgOP/YB9AAN8AhaLXxu40tQEFzIuKRNmefnqiKFmpvMc5bDhfbHtWtiwvtPuIpw/wx965S1tDjLp16yps4dPlLj21cQe/OIILbpQxknS4KlW4QG4qye/c+as45w4GQhFSIas6Yvji27pto+x4XMuiLxdf24MAzjPMyOihba8GVeAOF3ErVnym6WbQlrD5zFvQc563eIbv4Dr5nl49pGsrfW+EhGjMKAxGMjQa/VIenuGdYkqVEUYP+MV7bdqL0nmGeu7L73tzZ4mtoicquNdCI0ee+MN5bjjEINjhnTkzhdnwH8U3/ujUe6NsDpwcTA1mLBLbXR3PEirssIPTUOC+dMlCU5+Azhled9FJqADx3lE/Dm9Dm//7NeEPeaNhIW/UIeoVdbJ5y2dST3CO7N/8o8rEv+UIYPB6aeIE6b6s/KljAMOAqtpydvZOj1KaSmcbw4MgRq7NW/6juUHGMpovAQ0KBiFgAoiM+ABMGawG7LfP3rmVWrVuIWjluhVBcXjj4sXLPGYBZ4nofPCnpAKPkX18ASeSW7ZslHYGkGTc4QVmxJ8+oCwq/tKPP/C5Q4TXWnQSnhyNKklI5Yt6wZQB9zgZBUuMjnBawwY764wCDpPEzjuFp6vln1F6/Xt0NoqO3gmlPo7Z65MnT2m0zBzXhDgqbzPfjXLgW1UaK9+Nc+/mvj9T1pknF3E4Sgv2Ed6CLSK9PgM0BukGWcz7cDwQxPm8vDwRxSG6wwUTvLIgnDlzVnce23EhTranwcK3+F0977TF3xvygKIMox/mqO/N/QctmAc7AZiE4tPRSE+LhpwsfiuGiIgIMS24RvNjV3L6lKkTYStS8vwEeH2btUWWD4cgQCGDsukPrlSpHQ2lWByjdI84tvpe077cVXr9LzpnuHWeMXOWyHOOMKKqKe0E4PQCQdUNNPuprVvRi2NHVRAXO151LcULP/EIwKZRQrkHXfnQ5R+O3kpLb6/hCb9+OKvPSnDNu2FcnBUysiwdr06lqGqOcqBMqHdvwTVvo+8GLUwvlT9E5IGDNX0NENdxfPqst+fQjBnvygERTO4IJWKfSREdPQrfC56DLUdNeSbveAOlmHKbBIsvFWAMgvXhhg3jhNjofJaZihOIX3h5wZlm2LaKnWzulrECka9ZmlDOQcGJyjsldA2RggnBLNC0w710IAIUc1jSU/WDurlEeHSF0sjo+KpAlIdpGiMAJSvOy0OIiooytSciKAxvXHSOwQgwAsFAwHlyGIwcOQ9GgBEIGQLM8CGDnjNmBIKPADN88DHnHBmBkCHADB8y6DljRiD4CDDDBx9zzpERCBkCzPAhg54zZgSCjwAzfPAx5xwZgZAhwAwfMug5Y0Yg+Agwwwcfc86REQgZAszwIYOeM2YEgo8AM3zwMeccGYGQIfD/1dtPRjHZ7TcAAAAASUVORK5CYII=;" vertex="1" parent="2">
          <mxGeometry x="510.00000000000006" y="110" width="113.68" height="60" as="geometry" />
        </mxCell>
        <mxCell id="PO05EdHQ-00gVQy-0LEZ-128" value="" style="shape=image;verticalLabelPosition=bottom;labelBackgroundColor=default;verticalAlign=top;aspect=fixed;imageAspect=0;image=data:image/png,iVBORw0KGgoAAAANSUhEUgAAANAAAABJCAYAAABMzaj/AAAYVmlDQ1BJQ0MgUHJvZmlsZQAAWIWVeQdUFEvTds/sbIQl55yj5Jwk55yDqCw5g0tGRUREBBWQIAqIAhdBFIyIiIAEAyJJBUVRFBRQVAxklG8Ieu973//83/n6nJ5+trq6qro61NQOANwVlMjIUJgBgLDwaKqDqYGAm7uHAH4SEAAfIAIhQKD4REXq29lZAbT8bv+zzA0CaK19LLMm67/7/7+F0dcvygcAyA7F3r5RPmEovgYAUuwTSY0GALdGF46LjlzDaAUsVNRAFKev4YANXLyGvTfwpXUeJwdDFHcAQKClUKgBAND1oXSBWJ8AVAbdDNrHFO4bFA4AK4LirWFhEb4AcBuhPBIoTySK1+ah7v0POQH/IdP7j0wKJeAP3pjLeiEYBUVFhlIS/o/u+N9LWGjMbx1iaKUNpJo5rM0Z9duzkAjLNUyL4ulwbxtbFDOheCHId50fxTApMMbMeYMf5vGJMkR9BthQLO9LMbJEMQ+KTcJDbaw26d7+QSbmKEZ3CBwfFG3uhGIOFKf7RRk7bvKcoUY4bOqC6/2phvqb9PsU6rreNV2vYkKc9Tflfwv0M9+Uj6FLDHRyRTEJxSKxQS42KKZDsWxUiKPlJo92YqChzW8eaozDmv0iKHbwCzc12JCPifWnmjhs8meERf2eL+ZMYJC5zSa+Eh3oZLbhH0yHD2XdfnQumD6/cH3n33L8otysfs/F18/IeGPumEm/cGfHTTkLkdEGDhtjEVJkqN0mPyLkF2q6RhdCsXJUrOPmWMQlGt2QG/IR/8hoO6cNO5HEYIqF3YY9SDawAobACAiAGLR6gwgQDIJ6pm9Mo782ekwABVBBAPADMpuU3yNc13vC0acjSASfUOQHov6MM1jv9QOxKP3nH+rGUwb4r/fGro8IAe9RHAYsQSj6O2Z9VPgfbS5gHKUE/Zd2Clp9UHtD0brW//+m/6b+TdFHKVablJjfGgXof3PijHFGODOcCU4S4UK2IlqIFfrUQ6sioo5o/J7H3/zY99h+7FvsU+wo9vnOoBTqv6y0BqOofJNNX3j/0xeIGCpTBTFAdFDpqGSEDeECMogyqkcf0UU1q6BUw02717wi8C/Z/zGDf6zGJh9RnggT2Yl6RIl/j6STolP5I2XN1//0z4at3n/8bfin59/6Df/hfV+0tfw3JyYdcxVzD3MH8wDThLkBBDAtmAZMN+b2Gv6zu8bXd9dvbQ7r9oSgcoL+S9/vlV3zZJR8jfyU/MpGX7Rf/NodDQwjIhOoQQGB0QL6aETwEzAP95HdIqAor6gMwFp82bi+vjusxw2IrfdvGgW9d9UV0aNu8DctAr0zavPRI3Pyb5oYeqY5NQC44uATQ43doCFrDyx6S9CjJ40TjV/CQAKdjyJQBVpADxgDC2ALnIA72IFaH4jucyqIA3vAfpAGMkE2yAenQCkoB1XgIrgCboAmcAfcBQ9BH3gKXqC75x34CGbAHFiGIAgPkSFmiBPih0QhaUgRUoe2QsaQFeQAuUNeUAAUDsVAe6ADUCZ0HDoFnYWqocvQTegO9ADqh55Db6Ap6Bu0BGNgWpgF5oXFYDlYHdaHLWEneDscAO+CE+FU+BhcCJfBF+B6+A78EH4Kj8If4VkMwNBg2DCCGBmMOsYQY4vxwPhjqJgkTAamAFOGqcU0ouv8GDOKmcYsIjiEGRFAZNAdbIY4Iz7ILiQJOYKcQqqQeqQDeYy8QWaQX1gylgcrjdXEmmPdsAHYOGwatgBbib2O7UTP0jvsHA6HY8OJ49TQs+iOC8btxh3BleDqcK24ftwYbhaPx3PipfE6eFs8BR+NT8OfxF/At+AH8O/wCwQaAj9BkWBC8CCEE1IIBYTzhGbCAGGCsExkIIoSNYm2RF9iAjGLWEFsJPYS3xGXSYwkcZIOyYkUTNpPKiTVkjpJL0nfaWhohGg0aOxpgmiSaQppLtHcp3lDs0jLRCtFa0jrSRtDe4z2HG0r7XPa72QyWYysR/YgR5OPkavJ7eRX5AU6ZjpZOnM6X7p9dEV09XQDdJ/pifSi9Pr0O+gT6Qvor9L30k8zEBnEGAwZKAxJDEUMNxmGGGYZmRkVGG0ZwxiPMJ5nfMA4yYRnEmMyZvJlSmUqZ2pnGmPGMAszGzL7MB9grmDuZH7HgmMRZzFnCWbJZLnI0sMyw8rEqszqwhrPWsR6m3WUDcMmxmbOFsqWxXaFbZBtiZ2XXZ/dj/0wey37APs8BzeHHocfRwZHHcdTjiVOAU5jzhDOHM4bnCNcCJcUlz1XHNdprk6uaW4Wbi1uH+4M7ivcwzwwjxSPA89unnKebp5ZXj5eU95I3pO87bzTfGx8enzBfHl8zXxT/Mz8W/mD+PP4W/g/CLAK6AuEChQKdAjMCPIImgnGCJ4V7BFcFhIXchZKEaoTGhEmCasL+wvnCbcJz4jwi1iL7BGpERkWJYqqiwaKnhC9JzovJi7mKnZI7IbYpDiHuLl4oniN+EsJsoSuxC6JMoknkjhJdckQyRLJPilYSkUqUKpIqlcallaVDpIuke7fgt2isSV8S9mWIRlaGX2ZWJkamTeybLJWsimyN2Q/y4nIecjlyN2T+yWvIh8qXyH/QoFJwUIhRaFR4ZuilKKPYpHiEyWykonSPqUGpa/K0sp+yqeVn6kwq1irHFJpU/mpqqZKVa1VnVITUfNSK1YbUmdRt1M/on5fA6thoLFPo0ljUVNVM1rziuYXLRmtEK3zWpPa4tp+2hXaYzpCOhSdszqjWwW2em09s3VUV1CXolum+1ZPWM9Xr1JvQl9SP1j/gv5nA3kDqsF1g3lDTcO9hq1GGCNTowyjHmMmY2fjU8avTIRMAkxqTGZMVUx3m7aaYc0szXLMhsx5zX3Mq81nLNQs9lp0WNJaOlqesnxrJWVFtWq0hq0trHOtX9qI2oTb3LAFtua2ubYjduJ2u+xu2ePs7eyL7N87KDjscbjnyOy40/G845yTgVOW0wtnCecY5zYXehdPl2qXeVcj1+Ouo25ybnvdHrpzuQe5N3jgPVw8Kj1mtxlvy9/2zlPFM81zcLv49vjtD3Zw7QjdcXsn/U7KzqteWC9Xr/NeKxRbShll1tvcu9h7xsfQ54TPR1893zzfKT8dv+N+E/46/sf9JwN0AnIDpgJ1AwsCp4MMg04FfQ02Cy4Nng+xDTkXshrqGloXRgjzCrsZzhQeEt4RwRcRH9EfKR2ZFjm6S3NX/q4ZqiW1MgqK2h7VEM2Cvsh3x0jEHIx5E7s1tih2Ic4l7mo8Y3x4fHeCVMLhhIlEk8S/diO7fXa37RHcs3/Pm736e88mQUneSW37hPel7nuXbJpctZ+0P2T/oxT5lOMpPw64HmhM5U1NTh07aHqwJo0ujZo2dEjrUGk6kh6U3nNY6fDJw78yfDO6MuUzCzJXjvgc6TqqcLTw6Oox/2M9WapZp7Nx2eHZgzm6OVXHGY8nHh/Ltc6tzxPIy8j7kb8z/0GBckHpCdKJmBOjhVaFDSdFTmafXDkVeOppkUFRXTFP8eHi+RLfkoHTeqdrS3lLM0uXzgSdeXbW9Gx9mVhZQTmuPLb8fYVLxb2/1P+qruSqzKz8eS783GiVQ1VHtVp19Xme81k1cE1MzdQFzwt9F40uNtTK1J6tY6vLvAQuxVz6cNnr8uAVyyttV9Wv1l4TvVZ8nfl6Rj1Un1A/cyPwxmiDe0P/TYubbY1ajddvyd461yTYVHSb9XZWM6k5tXm1JbFltjWydfpOwJ2xtp1tL9rd2p902Hf0dFp23r9rcrf9nv69lvs695seaD642aXedeOh6sP6bpXu649UHl3vUe2p71XrbejT6Gvs1+5vHtAduPPY6PHdJ+ZPHj61edo/6Dz4bMhzaPSZ77PJ56HPvw7HDi+/SH6JfZkxwjBS8IrnVdlrydd1o6qjt98Yvel+6/j2xZjP2MfxqPGVd6nvye8LJvgnqicVJ5umTKb6Pmz78O5j5Mfl6bRPjJ+KP0t8vvZF70v3jNvMu6/Ur6vfjnzn/H7uh/KPtlm72VdzYXPL8xkLnAtVi+qL95ZclyaW41bwK4U/JX82/rL89XI1bHU1kkKlrL8KYNAK+/sD8O0cAGR3AJjR/Iy0bSP/2ywY9OUDRlsXSBb6CHdgDiCOWD2cOJ6LwEHkJ+nQ2NCGkLPpbtJPM8ow+TGXs4yxSbEncLRw0XO78lTwfufXFkgVfCTMKOIgelTsoQSQVJLylz6xpUtmXk5C3l4hWbFG6akKrKqgtl09Q6Ne8402WUd9q5fuYb3L+i8NCUaqxj4m2aYNZq8sIEsRK1PrYJss22t2z+wXHNmclJxtXcJcj7rVuj/0eLNtxnN++/JO4EWicHrL+Oj7Ovjt9PcLoAQ6BmkHC4RAIaOhLWFnwg9EBEba7VKnCkQRor5ED8Y0x1bF5cYnJYQmuu8236OzVy1JdZ9Gsv5+yxTXA36p0QcPpuUdqki/erg1oztz8MjroxPHPmV9y57NmTs+mzubt1SAnGAt3HLS9JRP0b7iwpLa0y2lD888OTtcNlo+VfGjEnOOtUqq2uC8Z03chbyLV2r7675eZryidNXxWtT17PrqG40Nd262N7beutV0/XZdc3VLeWvJnfy2jPY9HcGdjndV73HcW7w/+qC36+7D9u47j5p66noL+6L6DQfIA48fFz3xf6oyiB0cGqp6Fvtcbxg3fA/dXyovJ0ZyXmm9Gnt9dFRr9OOb0rcOY5ixunHn8cV3ee+3vG+ZcJgYnzw4JTc1/qHqY/i00vTsp7rPPl8Yv1yfsZt5/3XPN/Zvd79n/Qifpcz5o/tofKnzp+zq6vr6C0OX4GCMImYSuYxNxrnhdQgyRHGSOI0QrTxZk86e3ochibGUqZl5ipWBTZ2dwpHOeY3rFQ8NrxLfNv5kgbOCLUIvhGdFacT4xVUkzCW9pBKkc7dclumWnZRHFAQVtZU8lKNVMlUr1G6qP9J4q/lDG6fDvVVB11ovVD/L4JJhn9EnE4Ipr5miubGFs6WPVbh1vE2S7QG7g/ZpDumOGU5HnDNcUl0T3ALdnTyMtul6mmz32BG3M9/rEqXNu8un0/e6X7H/7gDXQPkg2qDp4L6QxtDqsKLwrIiUSOouT6peFH/UcvTTmIuxaXHe8cYJ8okiu3n3cO5lTWLYh9s3l/x2f1fK5QP5qXEHt6dZHDJKtzpMydif+deRu0dfHfucNZs9nzN7/HvuTN6n/OmCzycWTjKc0igKL64s6Tk9Vjp15t3Z12XPy/sr7v/VXNl0rqvq03nBmu0Xii8+r2O5ZHM5Hb29Fq/L1vveKGoYaMTeUm7aeftgc2VLU2vznfNt2e17O+I6k+9m3Su5X/7gdNexhzHdjo9kepCe4d4rfZn9wQP2j42fGD+1H/QeinmW+vzQ8N4X/i8NR7hGpl/dfH1o1O2NzFvC2/dj7eMl73a915ugnXgyWT6170PQR9/pwE9hnyO/RM5EfqV+i/2e8CNuNmjOdJ5+/uqC8cLDRY/FT0t9K7Q/h9fXXxp0QJbQM9gPg8NkIdJILzYRJ4ebwv9FCCTKERdJXTSltHFkBzpFejr6OYbnjK1M1cy5LHtZA9gc2HU4JDlZOVe4JrkHeJp5a/nK+YsECgTzhLKE00RiRSlixuIC4gsS3ZKlUlHSZlsEZWCZKdkhufvyjQrnFQuVkpW9VDRUcaq9avnqbhqcGs81S7R8tRV1cDqvttbrZukF6hsZiBkyGAGj78YTJoOmt8wKzP0sRC1GLQutbK3x1u02B2zN7TjsPtg3O+Q6BjppOZOdX7lcdN3jZuHO6v7ao2pbBBr/F7ff3pG809CL4NVPKfYO8dH2pfUd9jvnvytAPWAlsCUoOVgvBIS0hu4PMwxHwjsjDkbqRy7sqqG6ozG7Oto2+kdMYax27Ku45Hje+NsJXolsicO7a/Yc2OuWJJE0t689OXd/QIrRAalUjoM0aSDtx6Gx9EeH6zKOZFKOKB/FHx0+dikrIzskx/Q40/G7udtyp/MS8/ULDE6knyScyigaL+E8rViqcUbjrEqZXLlEheBfnJWM50hVxGp6dCfpXPC6eKj2Yt3jSytXJK56XDt+vf8GS4P7zeLGoSbsbclm0xbv1n13Trc1t7/uWL0reM/wfsCDI12XHw52/+yR7N3Wd6L/1WPFJ0effh5yfHZzWPBF/ojca7o3ceOZkwmfbL7NLdqvrf/G/4BrBacKQC6aZ7ocResUADk30DzzFgDsJADsyAA4aQD4UC2ATWsBFHLwT/yA0MSTgOacbIAfSAJlNNO0Ah5o1hwPDqMZ5QXQDAbAe7ACMUGSkB6aH0ZBR9F8sBMagyFYEDaAfeFDaJY3AC9hhDHWmERMFWYIISCaSBhSjjzHMmEt0YysHQfh9HDJuDY8Fm+Bz8Y/IwgSQgk3iXiiK7GKuESyJp0lzdPY0FTRIrTetO1kUfJh8mc6J7omNNPJYQAMuxjGGd0Ze5lMmG4zqzPXs2iytLM6sI6xxbDj2As4xDgaOG04J7nSuRW4x3hKeb35pPkW+O8K5Av6CikL44RfiFwVzRILFbeUkJYkS85IPZW+teW0TJKsp5yGPIv8jMIjxfNKh5UDVSxUZdVY1VbVP2m80hzQ6tLu1OnYek+3R29Yf9JgzggY49B7jmBGMCda0FqyWAlaK9vY2Ibb5dk3ObxzIjsru7i77nU7497hMeFJs11+h8vOPV4VlB7vBV8RP0f/gwFNgUvBhiEnQxfDfSIGdplQm6KVY+riZOIvJ2rv7tsbsY8neTAlL9Xq4NyhvMNbMjqP+B1jzXqd8yh3JH+1UOCURrHV6Z1nEsrOVAyfk6k+c0G+dvTy2Ws7btDcrG3a3iLdxt9pcr+sm7ZXon/uSc6QxPP+l6dfn3g78N5ravET05cL38AP+TmN+dXFjKWG5Scrt36W/4pcVVu/P6D1/xyYADcQA4pAF1gDTxAGkkAOqAA3QS94B35CbJAcZAH5QwegMugO9BZGYHHYCqbCp+B2+AuGB2OJ2YOpw4wjXIgDkol0YiGsDnY39hZ2BaeLO4B7gGfAu+P/wn8j6BNyCe+JWsRc4jTJBF3zFRo3mmtoJkylfULWIJ+ho6GLp5ugd6fvYTBhaGXcytjCZMjUxezIPIJmpkusWWxSbA/Zd3GwcdRz2nO+50rgJnNX8OjxjPPm8Fnw0/GPCFwVPCYUJGwgwiHyUfS2WLa4v4SBpKgUkzRhC1aGIEsnxyTPqEBQWFScVBpS7lK5o3pHrUv9hcY3LTpteR37rUG60XpU/UADN0NTIw1jZRN1U1OzneZJFmct71nN2HDbGtuFoDEtz/GEU75znssZ1xa3rx4q25I9H+3g2xnt1est7OPvm+933b8nYDxwOZgtRCnUKSw2/FREa+QHKnuUSXRszLnY4XiGBOvErN3P9ool7d03tj/gAENqV1p0Ou7woUzkSPox7qz2nJRct3zDE1ontYq0SjRKJc8iZXcrYiu5z92u9q5hvTBS23mp98rsdYUbe24+bKJvNmqltlV2TN0zeHClW6GnuG9k4MeTr4MTz8aGJ1/+eA29IY2xvBOZMJsqmFb7kvG9cj50sWc5daX9549fi+vrD6OnnxHwARmwFdgDf7AXFIBLoBt8gIiQNGQNUaFCqBX6ALPBRnA0XAkPYxgx5phUTCvmJ6KFJCKNyApWH5uBHcJJ4vbjRvBb8WUEAiGC8ISoQSwhwaRg0lMaI5pbtBq0d8h25Pd0KfSC9K0MngxzjNlMMkyPmMNZyCxVrAasL9kS2PnYeziOcXpzGXBL8bDwLPOO8DXwHxcIE7QSkhfmEMGJLIp+Ffsi/l3ipxSdtMgWPRkv2WS5EvkGhceK35W5VMxVU9TaNWg1PbUu6eDRd9VmfSGDXCM241pTD3NGi36rUzYRds4Oio7Dzh4u3W5m7o+3+Xsu7DjgBVEivZ/6qvkVBxAD9weTQsrDrCNA5A1qRDRfTHtcTILv7s9JFckJ+wdTVlLhg4Q0hkNK6VGHn2Q6H5k6lp4tm/M8Nz1fq+BrYfWpHcWkknOlamdul+mWt/5lVNlVZVf9pMbpQl+tSd3NyxJXTlwjXN9bv9JwuFHsVt/tlBbV1qm24g7bu8i9Ww+iHkp3j/ec7nMbYHk88DRryOLZ6vCFl7Yjk69jRn++TRnHvEuZgCcPfEA+7pv+/NnkS8JMydej32K+G32f/3F+1mb2xVzg3Nx87PzUgudC76LhYs0SeSlyaWBZZblw+euK+UrZyvJPp58Xf2F+uf26sAqtOq+eX1v/jW9H6/GDAYDi12uoS+rB2X9/t9n4rvSP3OTfLViPLmtlLbqslbVIA/4Hq1Dbb1b6fAUAAABWZVhJZk1NACoAAAAIAAGHaQAEAAAAAQAAABoAAAAAAAOShgAHAAAAEgAAAESgAgAEAAAAAQAAANCgAwAEAAAAAQAAAEkAAAAAQVNDSUkAAABTY3JlZW5zaG90XqJZmQAAAdVpVFh0WE1MOmNvbS5hZG9iZS54bXAAAAAAADx4OnhtcG1ldGEgeG1sbnM6eD0iYWRvYmU6bnM6bWV0YS8iIHg6eG1wdGs9IlhNUCBDb3JlIDYuMC4wIj4KICAgPHJkZjpSREYgeG1sbnM6cmRmPSJodHRwOi8vd3d3LnczLm9yZy8xOTk5LzAyLzIyLXJkZi1zeW50YXgtbnMjIj4KICAgICAgPHJkZjpEZXNjcmlwdGlvbiByZGY6YWJvdXQ9IiIKICAgICAgICAgICAgeG1sbnM6ZXhpZj0iaHR0cDovL25zLmFkb2JlLmNvbS9leGlmLzEuMC8iPgogICAgICAgICA8ZXhpZjpQaXhlbFlEaW1lbnNpb24+NzM8L2V4aWY6UGl4ZWxZRGltZW5zaW9uPgogICAgICAgICA8ZXhpZjpQaXhlbFhEaW1lbnNpb24+MjA4PC9leGlmOlBpeGVsWERpbWVuc2lvbj4KICAgICAgICAgPGV4aWY6VXNlckNvbW1lbnQ+U2NyZWVuc2hvdDwvZXhpZjpVc2VyQ29tbWVudD4KICAgICAgPC9yZGY6RGVzY3JpcHRpb24+CiAgIDwvcmRmOlJERj4KPC94OnhtcG1ldGE+Cmfmwt4AABbBSURBVHgB7V0JeFVFlj4YtoQlyJaQIAqGJSyGFmQz2DRLsyjSsgyYFpQMdqugnU+kxZHBbkem6cF2EEW7xQkKPcH5QFFA2cQvSNjXsAVCCGs2thCS8CCEMPXXS91Xd3kvN3lZX6r4wr23btWpqr/qVJ0659R9dRwOxz1SQSGgECgTAveVKZfKpBBQCHAEFAOpgaAQ8AIBxUBegKeyKgQUA6kxoBDwAoG6XuStkKxp57NNdPPzHRQU0oQCA5uY3qkIhUBVIlCtGCgnJ5f+NDOWbly/qcMkL/cmzZk/hfoPCtfFqweFQFUjUK0YqLCgiPavO0NplEV1yCVdFtINysn9TVVjpcpXCJgQqFYMhNrV8/ejOo77qCH5aZXNp/ravbpRCFQnBLxioKuXc+j7b/bSjbxsCmjor7XrRvYdGjWuL3UKD9Hi1I1CwBcR8I6BruTT0vmb6GjmSSZyuVYMiFzhj7RTDOSLI0a1SYeAVwwESvc1vstYp6FB5CrUFaIeFAK+ioBrp+6rLVTtUghUIAKKgSoQXEXa9xFQDOT7faxaWIEIeL0HqsC6KdI1HAEYxpd/voHSUnPIr4Hz1Mzd23Xo6QmP+4xRXDFQDR+k1bn6MIzHbzhICQmnNSXTTbpFHbsG+wwDKRGuOo/AGl63W46iGt6CkquvGKhkjFSKMiLQ0N/3h5fvt7CMna+yKQTsIGC5Bzp66BzFfvSDZf6350dRi1aBlu/cRcLlJ/ajDZSRdk2XJPfGTfrD2+Ope88HdfHqQSFQUxCwZKC081coLi6e7pFehoWH9Mx3JpnaVkR3yCGlvcee5XCVufxsWL2HjqacN3lZj588SDGQDJa6r1EIWDIQWuD0hnb5tyHOTzpigOcWLRtR/2FdKKJPGB61gJUltF1L7blRI6ejKRiwpnhZ42Df+dRMysrMJv+ABtS0aQC16xDM2nW/1q6y3EC1e+HMNcIk5bh5m9MGVg+0b16hBwYhBSQfS6cbrG9EaN+xDQU91JoC/d0OA5HUdE1OSqerWTkavfLCRy6ovOss0xb3cjtEf5SmLaVHTpTMrhDlZlmsSEhSXU+Pblyzn1Ytj0cVtRA9fRRXq+Y4CunCyTT6atkmOrgjla4k36QLjhyeLpgaU5uIJtS5WzuawFbNrn07lmrggSG3rN9P235MpMNbzlOW4zIVsGMa/lRI7YJDKKx3EA0cGkFDRvbSmPSt6Z/TlUvO8lEJHDT8bFWMDtsNa3fT18sStLbgZtyUSBoxui+PQ7mrV/5I2zacoLP7r+jac39YAz75oT12DisCn+O7T9Galdtpz89JlJ1ymzIpj7WigIL8W1HLTgE06Nc9KXLwI7bo6SotPaDOcZ9von07k3mdrziuMgmnLqEPUOcOXUIIkkvv/mF8DCL9x3/9WodVp/C29LuZo3RYiSLQjl2bEyl+40FdO8R7ua+fGBZBjw0I1/pEpBFXrxgIRKoro4gGGq+nTqXSd+u2s7WwHn91l3UNBhzCd8vi6cuP19PplAxmrbjL48SKmU6XKT3xMu1PTKXEPSk0emIkTX11qK32Y5ZbMHcF/bTuIOUXi7egi4GHUpIyz1HSunP8PRhM7At/WnGEzjrSNbG3gK6y1DG8XuK/6znZ9O26rYyac5W/y2o+ZEw3/npnfBLFLv6BNq/bb92eFKJjKRd5e/44L4qGP91LkDVdhVF0+bwEOufI1N4LfBB3LpHRSzxH6+MO0AuzhlG/J7qSf6OGWlo7N5jgsP/exmxHRaxvEARWvA+K64xJaPCzPWjGm+MIR/5lrLClGH6nJxUWjDAVCeZBPy+M+ZZAzyqks3JFX8fHHeMT57K1sy33/l4zENFtqzqwuAZu4qs2GueWcPRCdPxNNrOlJJ9nA/wsvb9glTZYRS2NjIR4DLqj8+Lo/JlMeueD5zwyEQbx29O+oGNpqWyI19PKBR1BG/cIYK4163bxFWrhNy/xOFnsLSxmev5C+q8Oa4OrPX50JSuXUO64kX9lDJqvaxPKRFqRHmSwN31r4lIK3dnScj8KUWre7Di+L0Z6Oa+xDXg+nnaW5sbE0tiogXQt08kEyFdSWPaPH2l2zD95nYEVNg0iGMsBw/5P7AVKTc6gJ8f358mceYCr+wDm+WPMEp5AtAO0G0nY3mWsK8oDk2Um5rkl6B0D3WVaNcdGotyz5gKaj2Y81N0cX81isBKt/mIXnU1xHSPvFtaWiwmoKsSmy2fy+KAQgDuvfnxAdejakmbMnGDZKgy892Yv05hHJELn3MfYqVdEGwp5wLlXRDmnErL4rIhVB/kguogyRd6SrmjP7m1JtH7lAT4QBQNCxGocWpeLXRgUMl0MPByj/3DeKlqycqapiOX/+Im3Vc6DRGhHePCD1DqsCTVtFsCxupSSy1dUvPsmbhtjAf2+10S8OAKa38VvreWrjmAEUQYGd6+IBzWs0i9coYOJGTzn1oSjhDKBVUkBot4XCzbzZKItqF8UY/R27YOpeSvnR2uy0q5SctJFStmXRccymbTxVB+qW9/a4uMdAxWmE12IJiaJmEPT3jWCgQCkENnQUf8SPYh+++IwvqlHo+COgs035P4VsT/xQSPAx/vYOVtp0JA+ljM3VPd7E09SABuuImBgdQ19SBNx8LUhhLycQjp6KJWLL/EJh7moKJcj8pd0RZ4dG5NZKUV85cFkAHGzb2QXasIGOZQXkP3RFjlg0GL1e58pOWSxHAN74byVclINg6nRw7hfW9dftNXeHz94kb5fk0Cxn25n6RxSy7UkphtMNBDbMHHIzONgK3LviDB6MWY034c0DnQO16z0XNr183EubkMaOJN50UTTKuJIYjIdTTul9QfcimbNmmjaK0HMK8zL1/odrkcyJjJt7xhIpmS8v51PbF2sMQErwt+W/o5+M2mAqc79BwXyTXFoh0B6f85q7T0GK2bu/12ymf6yeJoWjxvse1Z9vIPNb869FuLAPA/6B9OiVa+YGC6QmdZC2/XiG2NZXEK+0gYwDwZfdPRwmjpjlO5kMGxu2OvAuXPJp5t0A7aIieO7tiZreyEMJChUQEse2KjPuwujacrvh5qqBmUE/jp1bs/FMevZVZ9t764TfIWTywBWTz/Vj2a9+6yu/siJwYzPBTzKFDlvvvR325PNiUQ24UvhHivjkd5hJubgWkl/9Lmz37H/cxes1yV3qX00HgNkUlRfS+aRmzx52ggu1yO9COh0zOZGkI8nnuWbbXkVgV3trU8mmphH0MIVms3oV0cRVg4MorIEvsoFt6c3/jTBNPgEvSkvPslqo9+/Yi8FJYsIWWcv0c7NJ3R7KLQ9KmoQjZnk1PKJtMbrmCmD6PnoSM58xnfG503fHtDZHFF/tB/aUU/f1cBk8Nq/jdflNdKWn+v6F8qPbHKrzzWymOw8BXerD/IoBmIgYJ/w0htjPGHI3wFIqHwxc8khn6lyIbqIgJl7374juo7FoBgU+QgNHOLUkIm0VlcMDIhdRkO2VVqrOOR7c9E4S62RSI+B2YiphY3BkeMynsPOAwWDPAn4sVzAwNOgAk3M4ji2EEpBJU4E2CvJqw/qD/uiHdV6P6ZmhphnZ7Lp1as762uXYgJlrl23h14a/SHBZPDtVzuYGH3ONBkaMZKfaz0DidlO7EVkcKzu0amyWIY0mLl3J5zQkkN+PpV4STdzQ7U6cEQXj4NaI8Bu8FEWMHZpA9rzkH8I9YjoVGLW5tRcN/AwuHLybmj5ko6d1k0WoD0gMoQblLVEHm46dQuhDpFNPaQgtifLZtNPti5NEdtU9+5T8kSDTGDUcZMfZyznkgp0xKQH1AeTmCxBYHKA1jA2diPNnPoJ/WHyInpj2mcEjSCYqaTg3R6oDrPKN2HatiLDEljArN3122llQ09/z1GXN1Lv8mOlfdCyVcoNZjvuSVHf9VmukgoOoVZcWyZmZgy8rAyXFghu/Fcyr+vIIE3LIKfCQPfCzQO8BAR9N0ncRsOgaccTOjA4gNIz3ZKh1NMZuhkbWDVv3ZjEZt59TucbiKNIj3yySlrOl33tBivDtU90vrtHYV1C5WQe70PatfL4XrwU4jFsTA6m3hernhNnPzY9FHETBRQTsNk9FBZEz88YycVVdyuudwxUnzWy7XKiu0xhYAx+zbUYzO4wrF273E+Lw82dggLCQKnq0KChsQM918hq4N2+pZ8B89L08jYoNgtkE47NINyfbCYvU7I6fnU85sPpUavgbjBZpW3dpoVVtBaXa/iMM17Al/L+5p5XLo0AuwlsYj8tFChL/+9VWvSfq7gqXDbWgqaYtAQzwWZ0aM8pcudE7R0D8VYwg6mfZ6MpAMem0hQKHCXK0qY8FRDB3WVYXcjf3gpxMvOSqRYBxSpW8QI2F0oRTxgUdwleA3YDZuaqDs1bNCkW4ZwTjBApoTCxy0SXpJXZqj1QrRudj7Eiof12/Q5zckuHFZgIE/cPX+9mXhp7KCMxl0sUWCmF3Qx1FcwUFxfP7UQxc54xNaEcGMhE0zLC0mHR5oC1JFhOkQAM3+O2G2CzgHVfLP/IB+aA2lYEiE8hDwfyDbgQXSDCcZn6OZHK8zXlRBrfn4hO9Jy6Yt527PqAifDpw1cJdhg7DIT9TdrpXI97uTahzUxlYFd5gPnc2T3mcmTvWQsanqOgROnEGGICm9hhf8vKyOYrDdy0hF1Qxn7ZvC00+feDTXtYrxgIg2nblmN0I8fl4SuqLTtF8rgbbvY7TeuLLFVyBUgX2fwj2z88VQSfMnZq4Vxi3z3mEAqbhAiQtfsODKdNG4+IKD6INscep5dfyy5xZuVavD3HWDnu9w4a4Qq8wT5ENgIDK+wPDuw/7FG9LKoEwyU8BuSBKN6JK7CqzzV1MLo6NWRQLyf8vIdLLZYTr8jMrhiDKxZsMyl2pCQeb7HKwf6GANW8MNLCV+4a+4eAesF7AwZ12Ibk4B0DsXM+Sxau5Q6E8lEH+HR92cZVMQLzLGKehpcs/KKm9yDqbH9vIFe+vO6xOsAS3u+XnTzOrJhRv1+1U9dZ0EzVY9qsBzrrN71tQ0N1My86AZb2lcviyUoUkNsCj+cfPk3U5ZffV9Y99iHdmAsNHGjF4EbZyz/eSsOG9zfNxnK9IOYtXbSJTQHoc5fqWE4j7qNffpw++3S9lg5Swb5v0mnnpP2aV7lIa7xiQsMEKDO6MY3dZ6yq+MMRj+RTp2nJ4h91koZ8FETQLL2eVOQsvt7KL+CiBjZdrj8Do2QwJcO8A0RLtpv/DnlQAxnKqqhHiGPwqfrz6//kHgRW5cDYht8uQjp5MGGVeO/98aajDb8a2YP5b3XQqYlRzvx5X3EVKWZOY8DKAyfQmLF/5zOeXI4xbWU8Y3YeOeHR4pXQWSLqBPek2a987hYrTDTAEi5JdtowacqvqS2FaFghD2b8d56PI3hnAxdjAIMK51OjWcGYVjyD1pzXl/B6W9EU6bDqtWzWWjzyK+okn3ETL71agQQRX7nCoAdfsWf/dYimRoWW6BQ7I4SVx8g8WH1gxIsc/KgJAsxk8OHaN/W/2Tv9DPznmC+4vD18TB+tU1AObElr4NjKViqxYTcRruSIZyYMJXGEQTADZnsYIOEAC09oWXzF3gVHMvDebhuweo96OYK7FgmsUBY8rue+sIzGzxjAzxhB4YAg/Pk2xh7iK5yoV0nQbPxuD3cZwlmvYcxBFP6BLYIC+cFQOIvC7xEmCOyJVnwQr9Uf/QwXLKOUgfIUAzEQYFDMoev8OAGYZF/CSWrp34J7L0MdDU9fiKVyRwFU+M/BlcSdu8mvGIP8NmqwzpMZNEALmh2cNWkW2ojqMBcTlINDdqCLAA9g2CKwqldlwCoE96NXpn7G6ubap6AdAiscCMSPDBTl+dH5zHTePqzM3cOctkDsm2TsjO3BjP9yzHjuNgTPB6GgQR4w0eIF3/F9Dg7TwZ54PS2f70+AFdJAzIQmTexZjPTF81dxu/ktRFKcW0K/45AkPOJbtg4kmCLAnMIrXtQZRtpnX2feF6yexmCOMabw8Wd0AjomZsYL3J0eHYYBns+uQg0NIAWYgAN5MCNN/8tozfHSCiYADvsB7EyyJ7eghQ5PT7tsygqmQ75RW+aa/OlMiSshAg62UBThuIHsMY12gMFxIFAOgnne+2gaX1WPzFvOXutXYTk97sGoHy5/jf5j1jLOmIiTcYdIly6ZBfAeE9j0WSP56gSx95bDyVB4ZydwmuyQ5L5EPWGsnChbTGbPRQ3jhyetaNZ6BhKgPDn2MWrNDL44Hv39uiNMrwYLOfu1PAYmgMSggPYN8vYvI7tzh09PJzgFXWiZ4NQJmwq8szEAEWTxBrQR4DcGUQazMfJh5cOJWRz6Q3DnroKNutCDQiPI96U2PmqImVxP30HujKfwvA5iiqH/ejuOa+JQF3nvIfCpS01pYOTDFMO+tgS3J4ilwFLUD/fuAtTW/75gCnVg3u1fxiawPK4+EHkEVt1CO3DjvNCcyVgBA0e++VgdDKgQ47avZsfbWT+gP0UfC/q4ooybrH1oCxxicerVndq+chioDTvX8GI4UYZBuYDa9gzG/1UaIBZABsZ3BB7r14Wdt0+hw/tS2GaT6XfY4S2Exk0CqGOPYO6jBYdQDHC7AWlnvTuRRo7tx+0b2CPIdHEYDd9DwF5Ctn38bekrZhOBweWoe/dw+mDhTF1VmgYG2HK3mbs0ykS/Y2e9NlEmjAmje88OtHdHEju0d5yfBsUPQCNADMJ3CHA8QHyrAPFDn3qUHVSbjVstyHsmLbL4Bu3H0ZBBw39BSYfPM1ErVYcVNvI9+3Tkx8Vl0dmIFZi9bmM27qSA+uPv6KvneD8kHT7L2wC3K4wBiNII+OaCaEtJk2TlMBBsPe/p3Xi0dlWxHUirR/ENBjtAg5dv3uVcft4er+BaAx8wdzORkY7VMwYH/rDa4VNfIuDrRlYMaXU2SeQRV0FTPJfmaoe+kZ7TbjKAoGWEzUQEjg870WncJ5S1fmKwQ6MHX0oRrLBCn5SmLaJO0OThICPoF9x2umLVb1CP9zXaaSdUDgOhJtWMUUoCBwMhkINoD8iS6MnvwSxWDCOnqe73GLTeTCZ22+ccyOXfByjf2QbclZ1+pTGQO727ccZCc1RQCNQUBCqFgWA0hMX4GhOJjEH9mrcREfVckxAoFwaC1sKs83DBAOMUvrdmtAfkM4Wx8de87zBVpJHePcuvlrjoqzuFQFUh4BUDYePY54lw7RNQohGwUFu5PYj3rus91y27gyas11Ptqc2FJlzrJV5CS1KaMx8in7oqBCoaAa8YCBs82Disgr1Nsv7AFjZ18z+ZZiKHFaxx8Te7TC9VhEKgChHwioFQb3uMYr+F5U3PqmQYMfFdaoSGSjy0gkjF2UTAawayWU61SRbe7WGaOWusrj5BoS3YNxzsfxNBl1k91GoEah0Dwb3EzueSavWoUI23jYDX54Fsl6QSKgR8EAHFQD7YqapJlYeAYqDKw1qV5IMIKAbywU5VTao8BBQDVR7WqiQfRKBStXBGFx0cXVJBIVCTEagUBsKHBkc804ci0sJ0WBl/zVv3Uj0oBGoAApXCQPAuwIlMFRQCvoaAxz2Q+KgCGi3f+xoIqj0KgbIi4HYFgq8YuEt8kBf3roO1ZS1O5VMI+BYCdRwOh2knjwNw+A6wVVBuMFaoqLjaioAlA9VWMFS7FQKlRcDjHqi0xFR6hUBtQ0AxUG3rcdXeckVAMVC5wqmI1TYEFAPVth5X7S1XBBQDlSucilhtQ0AxUG3rcdXeckVAMVC5wqmI1TYE/h/fl5vfQqYdmwAAAABJRU5ErkJggg==;" vertex="1" parent="2">
          <mxGeometry x="67.25999999999999" y="254" width="85.48" height="30" as="geometry" />
        </mxCell>
        <mxCell id="PO05EdHQ-00gVQy-0LEZ-129" value="" style="shape=image;verticalLabelPosition=bottom;labelBackgroundColor=default;verticalAlign=top;aspect=fixed;imageAspect=0;image=data:image/png,iVBORw0KGgoAAAANSUhEUgAAARgAAABjCAYAAABAHB86AAAYVmlDQ1BJQ0MgUHJvZmlsZQAAWIWVeQdUFEvTds/sbIQl55yj5Jwk55yDqCw5g0tGRUREBBWQIAqIAhdBFIyIiIAEAyJJBUVRFBRQVAxklG8Ieu973//83/n6nJ5+trq6qro61NQOANwVlMjIUJgBgLDwaKqDqYGAm7uHAH4SEAAfIAIhQKD4REXq29lZAbT8bv+zzA0CaK19LLMm67/7/7+F0dcvygcAyA7F3r5RPmEovgYAUuwTSY0GALdGF46LjlzDaAUsVNRAFKev4YANXLyGvTfwpXUeJwdDFHcAQKClUKgBAND1oXSBWJ8AVAbdDNrHFO4bFA4AK4LirWFhEb4AcBuhPBIoTySK1+ah7v0POQH/IdP7j0wKJeAP3pjLeiEYBUVFhlIS/o/u+N9LWGjMbx1iaKUNpJo5rM0Z9duzkAjLNUyL4ulwbxtbFDOheCHId50fxTApMMbMeYMf5vGJMkR9BthQLO9LMbJEMQ+KTcJDbaw26d7+QSbmKEZ3CBwfFG3uhGIOFKf7RRk7bvKcoUY4bOqC6/2phvqb9PsU6rreNV2vYkKc9Tflfwv0M9+Uj6FLDHRyRTEJxSKxQS42KKZDsWxUiKPlJo92YqChzW8eaozDmv0iKHbwCzc12JCPifWnmjhs8meERf2eL+ZMYJC5zSa+Eh3oZLbhH0yHD2XdfnQumD6/cH3n33L8otysfs/F18/IeGPumEm/cGfHTTkLkdEGDhtjEVJkqN0mPyLkF2q6RhdCsXJUrOPmWMQlGt2QG/IR/8hoO6cNO5HEYIqF3YY9SDawAobACAiAGLR6gwgQDIJ6pm9Mo782ekwABVBBAPADMpuU3yNc13vC0acjSASfUOQHov6MM1jv9QOxKP3nH+rGUwb4r/fGro8IAe9RHAYsQSj6O2Z9VPgfbS5gHKUE/Zd2Clp9UHtD0brW//+m/6b+TdFHKVablJjfGgXof3PijHFGODOcCU4S4UK2IlqIFfrUQ6sioo5o/J7H3/zY99h+7FvsU+wo9vnOoBTqv6y0BqOofJNNX3j/0xeIGCpTBTFAdFDpqGSEDeECMogyqkcf0UU1q6BUw02717wi8C/Z/zGDf6zGJh9RnggT2Yl6RIl/j6STolP5I2XN1//0z4at3n/8bfin59/6Df/hfV+0tfw3JyYdcxVzD3MH8wDThLkBBDAtmAZMN+b2Gv6zu8bXd9dvbQ7r9oSgcoL+S9/vlV3zZJR8jfyU/MpGX7Rf/NodDQwjIhOoQQGB0QL6aETwEzAP95HdIqAor6gMwFp82bi+vjusxw2IrfdvGgW9d9UV0aNu8DctAr0zavPRI3Pyb5oYeqY5NQC44uATQ43doCFrDyx6S9CjJ40TjV/CQAKdjyJQBVpADxgDC2ALnIA72IFaH4jucyqIA3vAfpAGMkE2yAenQCkoB1XgIrgCboAmcAfcBQ9BH3gKXqC75x34CGbAHFiGIAgPkSFmiBPih0QhaUgRUoe2QsaQFeQAuUNeUAAUDsVAe6ADUCZ0HDoFnYWqocvQTegO9ADqh55Db6Ap6Bu0BGNgWpgF5oXFYDlYHdaHLWEneDscAO+CE+FU+BhcCJfBF+B6+A78EH4Kj8If4VkMwNBg2DCCGBmMOsYQY4vxwPhjqJgkTAamAFOGqcU0ouv8GDOKmcYsIjiEGRFAZNAdbIY4Iz7ILiQJOYKcQqqQeqQDeYy8QWaQX1gylgcrjdXEmmPdsAHYOGwatgBbib2O7UTP0jvsHA6HY8OJ49TQs+iOC8btxh3BleDqcK24ftwYbhaPx3PipfE6eFs8BR+NT8OfxF/At+AH8O/wCwQaAj9BkWBC8CCEE1IIBYTzhGbCAGGCsExkIIoSNYm2RF9iAjGLWEFsJPYS3xGXSYwkcZIOyYkUTNpPKiTVkjpJL0nfaWhohGg0aOxpgmiSaQppLtHcp3lDs0jLRCtFa0jrSRtDe4z2HG0r7XPa72QyWYysR/YgR5OPkavJ7eRX5AU6ZjpZOnM6X7p9dEV09XQDdJ/pifSi9Pr0O+gT6Qvor9L30k8zEBnEGAwZKAxJDEUMNxmGGGYZmRkVGG0ZwxiPMJ5nfMA4yYRnEmMyZvJlSmUqZ2pnGmPGMAszGzL7MB9grmDuZH7HgmMRZzFnCWbJZLnI0sMyw8rEqszqwhrPWsR6m3WUDcMmxmbOFsqWxXaFbZBtiZ2XXZ/dj/0wey37APs8BzeHHocfRwZHHcdTjiVOAU5jzhDOHM4bnCNcCJcUlz1XHNdprk6uaW4Wbi1uH+4M7ivcwzwwjxSPA89unnKebp5ZXj5eU95I3pO87bzTfGx8enzBfHl8zXxT/Mz8W/mD+PP4W/g/CLAK6AuEChQKdAjMCPIImgnGCJ4V7BFcFhIXchZKEaoTGhEmCasL+wvnCbcJz4jwi1iL7BGpERkWJYqqiwaKnhC9JzovJi7mKnZI7IbYpDiHuLl4oniN+EsJsoSuxC6JMoknkjhJdckQyRLJPilYSkUqUKpIqlcallaVDpIuke7fgt2isSV8S9mWIRlaGX2ZWJkamTeybLJWsimyN2Q/y4nIecjlyN2T+yWvIh8qXyH/QoFJwUIhRaFR4ZuilKKPYpHiEyWykonSPqUGpa/K0sp+yqeVn6kwq1irHFJpU/mpqqZKVa1VnVITUfNSK1YbUmdRt1M/on5fA6thoLFPo0ljUVNVM1rziuYXLRmtEK3zWpPa4tp+2hXaYzpCOhSdszqjWwW2em09s3VUV1CXolum+1ZPWM9Xr1JvQl9SP1j/gv5nA3kDqsF1g3lDTcO9hq1GGCNTowyjHmMmY2fjU8avTIRMAkxqTGZMVUx3m7aaYc0szXLMhsx5zX3Mq81nLNQs9lp0WNJaOlqesnxrJWVFtWq0hq0trHOtX9qI2oTb3LAFtua2ubYjduJ2u+xu2ePs7eyL7N87KDjscbjnyOy40/G845yTgVOW0wtnCecY5zYXehdPl2qXeVcj1+Ouo25ybnvdHrpzuQe5N3jgPVw8Kj1mtxlvy9/2zlPFM81zcLv49vjtD3Zw7QjdcXsn/U7KzqteWC9Xr/NeKxRbShll1tvcu9h7xsfQ54TPR1893zzfKT8dv+N+E/46/sf9JwN0AnIDpgJ1AwsCp4MMg04FfQ02Cy4Nng+xDTkXshrqGloXRgjzCrsZzhQeEt4RwRcRH9EfKR2ZFjm6S3NX/q4ZqiW1MgqK2h7VEM2Cvsh3x0jEHIx5E7s1tih2Ic4l7mo8Y3x4fHeCVMLhhIlEk8S/diO7fXa37RHcs3/Pm736e88mQUneSW37hPel7nuXbJpctZ+0P2T/oxT5lOMpPw64HmhM5U1NTh07aHqwJo0ujZo2dEjrUGk6kh6U3nNY6fDJw78yfDO6MuUzCzJXjvgc6TqqcLTw6Oox/2M9WapZp7Nx2eHZgzm6OVXHGY8nHh/Ltc6tzxPIy8j7kb8z/0GBckHpCdKJmBOjhVaFDSdFTmafXDkVeOppkUFRXTFP8eHi+RLfkoHTeqdrS3lLM0uXzgSdeXbW9Gx9mVhZQTmuPLb8fYVLxb2/1P+qruSqzKz8eS783GiVQ1VHtVp19Xme81k1cE1MzdQFzwt9F40uNtTK1J6tY6vLvAQuxVz6cNnr8uAVyyttV9Wv1l4TvVZ8nfl6Rj1Un1A/cyPwxmiDe0P/TYubbY1ajddvyd461yTYVHSb9XZWM6k5tXm1JbFltjWydfpOwJ2xtp1tL9rd2p902Hf0dFp23r9rcrf9nv69lvs695seaD642aXedeOh6sP6bpXu649UHl3vUe2p71XrbejT6Gvs1+5vHtAduPPY6PHdJ+ZPHj61edo/6Dz4bMhzaPSZ77PJ56HPvw7HDi+/SH6JfZkxwjBS8IrnVdlrydd1o6qjt98Yvel+6/j2xZjP2MfxqPGVd6nvye8LJvgnqicVJ5umTKb6Pmz78O5j5Mfl6bRPjJ+KP0t8vvZF70v3jNvMu6/Ur6vfjnzn/H7uh/KPtlm72VdzYXPL8xkLnAtVi+qL95ZclyaW41bwK4U/JX82/rL89XI1bHU1kkKlrL8KYNAK+/sD8O0cAGR3AJjR/Iy0bSP/2ywY9OUDRlsXSBb6CHdgDiCOWD2cOJ6LwEHkJ+nQ2NCGkLPpbtJPM8ow+TGXs4yxSbEncLRw0XO78lTwfufXFkgVfCTMKOIgelTsoQSQVJLylz6xpUtmXk5C3l4hWbFG6akKrKqgtl09Q6Ne8402WUd9q5fuYb3L+i8NCUaqxj4m2aYNZq8sIEsRK1PrYJss22t2z+wXHNmclJxtXcJcj7rVuj/0eLNtxnN++/JO4EWicHrL+Oj7Ovjt9PcLoAQ6BmkHC4RAIaOhLWFnwg9EBEba7VKnCkQRor5ED8Y0x1bF5cYnJYQmuu8236OzVy1JdZ9Gsv5+yxTXA36p0QcPpuUdqki/erg1oztz8MjroxPHPmV9y57NmTs+mzubt1SAnGAt3HLS9JRP0b7iwpLa0y2lD888OTtcNlo+VfGjEnOOtUqq2uC8Z03chbyLV2r7675eZryidNXxWtT17PrqG40Nd262N7beutV0/XZdc3VLeWvJnfy2jPY9HcGdjndV73HcW7w/+qC36+7D9u47j5p66noL+6L6DQfIA48fFz3xf6oyiB0cGqp6Fvtcbxg3fA/dXyovJ0ZyXmm9Gnt9dFRr9OOb0rcOY5ixunHn8cV3ee+3vG+ZcJgYnzw4JTc1/qHqY/i00vTsp7rPPl8Yv1yfsZt5/3XPN/Zvd79n/Qifpcz5o/tofKnzp+zq6vr6C0OX4GCMImYSuYxNxrnhdQgyRHGSOI0QrTxZk86e3ochibGUqZl5ipWBTZ2dwpHOeY3rFQ8NrxLfNv5kgbOCLUIvhGdFacT4xVUkzCW9pBKkc7dclumWnZRHFAQVtZU8lKNVMlUr1G6qP9J4q/lDG6fDvVVB11ovVD/L4JJhn9EnE4Ipr5miubGFs6WPVbh1vE2S7QG7g/ZpDumOGU5HnDNcUl0T3ALdnTyMtul6mmz32BG3M9/rEqXNu8un0/e6X7H/7gDXQPkg2qDp4L6QxtDqsKLwrIiUSOouT6peFH/UcvTTmIuxaXHe8cYJ8okiu3n3cO5lTWLYh9s3l/x2f1fK5QP5qXEHt6dZHDJKtzpMydif+deRu0dfHfucNZs9nzN7/HvuTN6n/OmCzycWTjKc0igKL64s6Tk9Vjp15t3Z12XPy/sr7v/VXNl0rqvq03nBmu0Xii8+r2O5ZHM5Hb29Fq/L1vveKGoYaMTeUm7aeftgc2VLU2vznfNt2e17O+I6k+9m3Su5X/7gdNexhzHdjo9kepCe4d4rfZn9wQP2j42fGD+1H/QeinmW+vzQ8N4X/i8NR7hGpl/dfH1o1O2NzFvC2/dj7eMl73a915ugnXgyWT6170PQR9/pwE9hnyO/RM5EfqV+i/2e8CNuNmjOdJ5+/uqC8cLDRY/FT0t9K7Q/h9fXXxp0QJbQM9gPg8NkIdJILzYRJ4ebwv9FCCTKERdJXTSltHFkBzpFejr6OYbnjK1M1cy5LHtZA9gc2HU4JDlZOVe4JrkHeJp5a/nK+YsECgTzhLKE00RiRSlixuIC4gsS3ZKlUlHSZlsEZWCZKdkhufvyjQrnFQuVkpW9VDRUcaq9avnqbhqcGs81S7R8tRV1cDqvttbrZukF6hsZiBkyGAGj78YTJoOmt8wKzP0sRC1GLQutbK3x1u02B2zN7TjsPtg3O+Q6BjppOZOdX7lcdN3jZuHO6v7ao2pbBBr/F7ff3pG809CL4NVPKfYO8dH2pfUd9jvnvytAPWAlsCUoOVgvBIS0hu4PMwxHwjsjDkbqRy7sqqG6ozG7Oto2+kdMYax27Ku45Hje+NsJXolsicO7a/Yc2OuWJJE0t689OXd/QIrRAalUjoM0aSDtx6Gx9EeH6zKOZFKOKB/FHx0+dikrIzskx/Q40/G7udtyp/MS8/ULDE6knyScyigaL+E8rViqcUbjrEqZXLlEheBfnJWM50hVxGp6dCfpXPC6eKj2Yt3jSytXJK56XDt+vf8GS4P7zeLGoSbsbclm0xbv1n13Trc1t7/uWL0reM/wfsCDI12XHw52/+yR7N3Wd6L/1WPFJ0effh5yfHZzWPBF/ojca7o3ceOZkwmfbL7NLdqvrf/G/4BrBacKQC6aZ7ocResUADk30DzzFgDsJADsyAA4aQD4UC2ATWsBFHLwT/yA0MSTgOacbIAfSAJlNNO0Ah5o1hwPDqMZ5QXQDAbAe7ACMUGSkB6aH0ZBR9F8sBMagyFYEDaAfeFDaJY3AC9hhDHWmERMFWYIISCaSBhSjjzHMmEt0YysHQfh9HDJuDY8Fm+Bz8Y/IwgSQgk3iXiiK7GKuESyJp0lzdPY0FTRIrTetO1kUfJh8mc6J7omNNPJYQAMuxjGGd0Ze5lMmG4zqzPXs2iytLM6sI6xxbDj2As4xDgaOG04J7nSuRW4x3hKeb35pPkW+O8K5Av6CikL44RfiFwVzRILFbeUkJYkS85IPZW+teW0TJKsp5yGPIv8jMIjxfNKh5UDVSxUZdVY1VbVP2m80hzQ6tLu1OnYek+3R29Yf9JgzggY49B7jmBGMCda0FqyWAlaK9vY2Ibb5dk3ObxzIjsru7i77nU7497hMeFJs11+h8vOPV4VlB7vBV8RP0f/gwFNgUvBhiEnQxfDfSIGdplQm6KVY+riZOIvJ2rv7tsbsY8neTAlL9Xq4NyhvMNbMjqP+B1jzXqd8yh3JH+1UOCURrHV6Z1nEsrOVAyfk6k+c0G+dvTy2Ws7btDcrG3a3iLdxt9pcr+sm7ZXon/uSc6QxPP+l6dfn3g78N5ravET05cL38AP+TmN+dXFjKWG5Scrt36W/4pcVVu/P6D1/xyYADcQA4pAF1gDTxAGkkAOqAA3QS94B35CbJAcZAH5QwegMugO9BZGYHHYCqbCp+B2+AuGB2OJ2YOpw4wjXIgDkol0YiGsDnY39hZ2BaeLO4B7gGfAu+P/wn8j6BNyCe+JWsRc4jTJBF3zFRo3mmtoJkylfULWIJ+ho6GLp5ugd6fvYTBhaGXcytjCZMjUxezIPIJmpkusWWxSbA/Zd3GwcdRz2nO+50rgJnNX8OjxjPPm8Fnw0/GPCFwVPCYUJGwgwiHyUfS2WLa4v4SBpKgUkzRhC1aGIEsnxyTPqEBQWFScVBpS7lK5o3pHrUv9hcY3LTpteR37rUG60XpU/UADN0NTIw1jZRN1U1OzneZJFmct71nN2HDbGtuFoDEtz/GEU75znssZ1xa3rx4q25I9H+3g2xnt1est7OPvm+933b8nYDxwOZgtRCnUKSw2/FREa+QHKnuUSXRszLnY4XiGBOvErN3P9ool7d03tj/gAENqV1p0Ou7woUzkSPox7qz2nJRct3zDE1ontYq0SjRKJc8iZXcrYiu5z92u9q5hvTBS23mp98rsdYUbe24+bKJvNmqltlV2TN0zeHClW6GnuG9k4MeTr4MTz8aGJ1/+eA29IY2xvBOZMJsqmFb7kvG9cj50sWc5daX9549fi+vrD6OnnxHwARmwFdgDf7AXFIBLoBt8gIiQNGQNUaFCqBX6ALPBRnA0XAkPYxgx5phUTCvmJ6KFJCKNyApWH5uBHcJJ4vbjRvBb8WUEAiGC8ISoQSwhwaRg0lMaI5pbtBq0d8h25Pd0KfSC9K0MngxzjNlMMkyPmMNZyCxVrAasL9kS2PnYeziOcXpzGXBL8bDwLPOO8DXwHxcIE7QSkhfmEMGJLIp+Ffsi/l3ipxSdtMgWPRkv2WS5EvkGhceK35W5VMxVU9TaNWg1PbUu6eDRd9VmfSGDXCM241pTD3NGi36rUzYRds4Oio7Dzh4u3W5m7o+3+Xsu7DjgBVEivZ/6qvkVBxAD9weTQsrDrCNA5A1qRDRfTHtcTILv7s9JFckJ+wdTVlLhg4Q0hkNK6VGHn2Q6H5k6lp4tm/M8Nz1fq+BrYfWpHcWkknOlamdul+mWt/5lVNlVZVf9pMbpQl+tSd3NyxJXTlwjXN9bv9JwuFHsVt/tlBbV1qm24g7bu8i9Ww+iHkp3j/ec7nMbYHk88DRryOLZ6vCFl7Yjk69jRn++TRnHvEuZgCcPfEA+7pv+/NnkS8JMydej32K+G32f/3F+1mb2xVzg3Nx87PzUgudC76LhYs0SeSlyaWBZZblw+euK+UrZyvJPp58Xf2F+uf26sAqtOq+eX1v/jW9H6/GDAYDi12uoS+rB2X9/t9n4rvSP3OTfLViPLmtlLbqslbVIA/4Hq1Dbb1b6fAUAAABWZVhJZk1NACoAAAAIAAGHaQAEAAAAAQAAABoAAAAAAAOShgAHAAAAEgAAAESgAgAEAAAAAQAAARigAwAEAAAAAQAAAGMAAAAAQVNDSUkAAABTY3JlZW5zaG90GISPqAAAAdVpVFh0WE1MOmNvbS5hZG9iZS54bXAAAAAAADx4OnhtcG1ldGEgeG1sbnM6eD0iYWRvYmU6bnM6bWV0YS8iIHg6eG1wdGs9IlhNUCBDb3JlIDYuMC4wIj4KICAgPHJkZjpSREYgeG1sbnM6cmRmPSJodHRwOi8vd3d3LnczLm9yZy8xOTk5LzAyLzIyLXJkZi1zeW50YXgtbnMjIj4KICAgICAgPHJkZjpEZXNjcmlwdGlvbiByZGY6YWJvdXQ9IiIKICAgICAgICAgICAgeG1sbnM6ZXhpZj0iaHR0cDovL25zLmFkb2JlLmNvbS9leGlmLzEuMC8iPgogICAgICAgICA8ZXhpZjpQaXhlbFlEaW1lbnNpb24+OTk8L2V4aWY6UGl4ZWxZRGltZW5zaW9uPgogICAgICAgICA8ZXhpZjpQaXhlbFhEaW1lbnNpb24+MjgwPC9leGlmOlBpeGVsWERpbWVuc2lvbj4KICAgICAgICAgPGV4aWY6VXNlckNvbW1lbnQ+U2NyZWVuc2hvdDwvZXhpZjpVc2VyQ29tbWVudD4KICAgICAgPC9yZGY6RGVzY3JpcHRpb24+CiAgIDwvcmRmOlJERj4KPC94OnhtcG1ldGE+CuaOGNEAABz2SURBVHgB7V0LnE3V/v/NjDEMM2OIxjAZwyB59CnUpUsIldzcPCoikqhJf+VR3a5H3dStVEpUCkXUFaKhjFchEVJ6EMKUSZP3mMYYzPjv7xp77M5Za5+995wz5+H3+3zOnD3r+Vvfs/dv/9b6/dZvheXn558jJkaAEWAEfIBAuA/a5CYZAUaAERAIsIDhG4ERYAR8hgALGJ9Byw0zAowACxi+BxgBRsBnCLCA8Rm03DAjwAiwgOF7gBFgBHyGAAsYn0HLDTMCjAALGL4HGAFGwGcIsIDxGbTcMCPACLCA4XuAEWAEfIZAOSstn/v9OIXNXkO0cndx8WY1qah/GwpvlmylurJM7obdlLfuZwrPOUVFcRUoomktiu3QiKKiyivreMrIOfQnZe44REeO5omi1apWopp1qlCNOvGeqprmbz14mjYfP0t7KJzqURG1rFKOroijUvFq2iFnMgIhgECYx71Ii78iuuNFbaiXaJ9I7WNQetJaEE3saxuGgoLT9OeoBRS27zidjYmis1ERJW3kly9PMf+60ZFA2PvtAdqzOUu0dbZcBBWVK+b1TPkIqlszhpq3rVvSj9UL8Dplez7lRoRRXoViwVcYHk755YEF0eOXFFFS9AX+rbbL5RiBiwEBg7RwH27Rd5kK4RKlFdY+U7YQPb/YvaKHFKNw0Yue0bQWfMqFEeU+s4ygidihg78co32rz2tYhooQLqB9v+fStrX7DDnWLnXh4lq64ukzIunZw+EEIcTECDAC7giYCpjwa17Rauiai3tloopE4zYQplBWCdMiXXMxq3Pi0+/Nst3yti3fTUUxGj8mBCFjRxhsyy7WXEyaFFmzc4q1GU/lOJ8RuNgQUAqYYqHxmyU8wjbttFQOhbDmYoVOr8+0UkyUgbYTnpvvsXyhpiHt3nfCYzm9wMYT1iJZbD2l1+BvRoARMCKgFjCHrGsldND6QxuZZaNdI6cm1wUni6crJkVEVoTNqUxenrV2PfXL+YzAxYqAUsCQtkhqmWrEWi5aGFPBclmrBaOifTNFqVQpkmIKrWkxVnnlcozAxYSAUsCEN07ScMD6i2c616qh50LnS4RdV89S2fJtki2VQ6G46pUtl02qZl3AXRsbJqxHnhq/ynqTnprifEYgpBBQChgxyoWDtK/D2kc1VSgiSmtKYTWrWAal+k3NhGm6XG6BaZ3Ym5qa5rtm1u2Q6nEdBqZqO8KoeUJFSxpMl8oaDkyMACPghoC5gLnpaqIn+2qVXIUMhIP26VLLkR9M1Cu93YRM5Pn1kbPajKTGgBa2BAFGlXJlIl16dZKbkIk8XYhswgKvEz+YtMZyy5TuB3NvhTPsByMQ5j+MgDsCnh3ttDrwhwkfm06Usbe4hS4pRENaE0EAlYKOf/Q15WTsooonNHOwZmLGtAiaix0tw7V7+MP88M1vVHCsWEOKio+iGo0SqEkja9M91/bwP0zbP+YQpWefKnG2a1AlivrFnWFPXhlghrQNG7+in3buEik33diZEi691JAbfJfZf/xBny5bLhhv1LAB/e3aa3wyCNxzGcuXax7px6ha1Xj6R7dbfNKPrxu1JGB8zQS3H5oI9Ojdlz5Z9QVVrxZHhYVFdPTAHkpf8gnd0LF9UA545arPqNstN1PVxHoUERFOh47k0M0dr6MF8+Z4dTw/79lLV7bpTFGaoaVSdBTlnSygS6rG0ZoV6UEnoFnAePXW4MZ0BJ597gV6bdq74sHQ0/C964ettC8zM+geFGguKcnNKLVJfeNwKOv3wzRy2L30+KOj/pJemn+uvrYd5Z86RZGRF7YKnio4Qyl1kujT9AWlabrM65qvwZQ5O9xhqCAw/6MlFBdTyW04ePuvX/+lW3qgJ4Dn+MTqbmxeekkVwli9Rdt37KDtuzP/IlzQdoWoSFqz8guCoAsmYgETTL9WkPCK9YOzhWfdHhKwj6nFidw/g2QkF9gEz+DdlYxahmuek/9zck5QdEW530N4XAwdPXrUSbN+q+OOmN9Y4Y4ZAUYg1BBgARNqvyiPhxEIIAQurCIFEFPMijMETuTmioqxMTEeG9DLomBU+aigN7cbx4MxWcEA5bxFWBuJjo5WNleWGOtY+AIDjDO+Srzl+4UFjPKWCJ4MrHnAajPjvf8Jk2Zy7QR6bsL4v5iDYfpc98V6WrJ0GWX+mkXZh44QLBNYPIQJtH7dZGp/fVu6sUsnql8vJeAHjzFjPMsyltPWb7+n37IP0uGjmrOSRhhPrYQadNWVTbXxdP4LDr4YGNabrm7dUTQNTGWExeBRDz9IA+/uJ8v2ShoEyxNjxtPiT1aI+6B541Sa8NQYr/jqLFj4ET3z/CTKzMrWFu+jafCAPpYsZyxgvPLT+reRPv0G0savt4kHK15bCISJE/4aqz/7nKpXr07jnnyaFi5dJfxRKlaoUCJUjFzv2PUzbdYe1FFjnhG+HY+OephatWxhLBIQ1xAsb02fSeOeeUnwA2ESER4mxlS75gVnyuyDhyh92SqaOXehyHt67KM+fbjBhyd64JF/U17eSXrwgSGeijrK797jTvo581fCPYAPMOjQ/npas3ZdqX5LCJd+fYdScsNk0jGeOPltOvB7Nk2ehGiXauI1GDU2QZGzafMW4cxmvMFh2WjQ5CoacN8w4bD1zXc/UoOU2uKmg8YiI9TBTYlyEDbXt+1GI0c/bitAl6xdb6ZhrM1aXkfPvjhZ3Oi42TEemSUHachDGWDz76eeo4bNWhHa8BcBWwhwfQrjTT7gBLjpu5/Eb6i3CwzqNmxG4556Vk9y9H3fQ48J/x8jzsB1+pvvETRjM7IsYIq27ydCfF7tI0JpmrVqMQ9vI7iSf5y+hACQt4BHACrE58UHWwe8Qb7itbS87d+/n6pWka+54AGrl3Sp9AE06xc3UmqTFJq3aCm1btcpIHwvZr47WxN6XYXQMApTs3EY81AHmg7aQFv+oojISMrKyvJ699iOUTXWfQ0Iv+XnX24h+Nc4ITybKqpYrQplZv6iyhbpHqdI4kSBu9+m8HW6pIo8H/a7EhV9dZ/jkwXA+PDRY+jgsVyKq1RBrAcUnC2kJx4eYmluJxsVBMuuNXvouLYPCUG/QQj8fab8fmp9bZKjQOJoAyriqCee8iqvaDfQSZ9utevUza9u6q9NfVO8+Ru4eNHaxa9YcNYnX09VzPgqysmlqlWrmhVxlFdTW3PCdgwZXVbrUpoxcxZNfN6+JvP6tJmE9SMZncw/RbGx8pebXt5Ug8FbOyzlX0RCuEC1jtI+qIIdxkWEmL1OtBm8Qe7oPZhiKkeLNyzeLlC58LaFe3nf/vdo7dsj8Lpp0XYhXPSaxcKlWNB8uXG/I20GN3e/vg9IecU8dPDQNL27kPzGQ4k3f9dbe/tlfHgRYVqB6YW3SJ+qmL2dvdWXsZ1jmnDpe3dPn2yTaNOmNR09XmxFNPaJa2iyU6bPtT1DgNazbvM2qQZ85sxZapya7HFtx1TARN3+5nle5fN2CJzwa6bZmqdjzpY2dLRQwV2BwP8QNouXrxVagyxflfZdumcVcN039tyswevoEWOVvEIovr8oQ0zxVHwFYjosHbC4YB8NvlWWD513CJljmofpsOEj9KQy+YZJFC8iT8IFNzseXowFH1wjzYzQ5u0D0rw2/dPxBKayz669WfT3a1vQa6+8bMaW4zzsUk8b1Idy/zwpbQMbTmfNnivNUyW+/ubbVKuGXNvKyc2jB++/V1W1JF05RYJGEJWxTit4YWW+pFbJBeRTEUWt/t5y6IZlGSvokiT3PR0lTWoXlyVUo7dnvkc9bvunMVl5DV5P/KrF+vVwqgBi8v7w02HLoRvAa0JyorJfZIBXqJHBsJ0eN9/ZwkLq3b2rZrpsRXFxVejkyTxau269WG8pFxEhNDXZgKFtvj17PvW5o7dXzJ6yPlzT0oY9QkmpiKwoJwiRX7OP0N9bNqfePbtTUu1iLQfrEUs/XS7evtCKVYSpw4hRj9OcWTNURSyll4soR+9Om2xaNjExgRpffrlpmdJm3jOwP70x60Ppb4jp7tRpMyxbsCDcZ36wWMwqVHz1uK27KqskXSlgIvfYeNtnWd8fse277wimUjPCG3PNSusb4nKy88yac5yHBegKWqAqMyrm9QuzIgGRt2f/HzS0fy8aO+Zfbk5oEI5If+nlV2ni1JnKm6puUgJNfOlVr4cnkAEE7BHqQaW96BrKikVz3AQewkHAFIw2YEkDYZrgSkiD+R6WpdKa5AMhBAUEWJe21wgrIO5LV/rj8HFhTLHC6/wFi6SLxmgTL6rBd9/pdh+59of/TadIsgpllyZfsCq7/olOnSoOWuW5zwCGUWMewmXyc+PEIp/KuxPp48c+IcpBnZcRblo89GVh6oUgg4YhIwgXvKQ2rlvpJlyM5REMavP6VVQ5uqJyyoQ+Xpk81VgtqK/vH3IvQZDICIu1mPZ4IswIXpr8xl9M3sY6vx88Snf1vdOYpLxWPhln6sl/XFlLuU2SZclllhaX4B4WQNV5jYrFi76q/FBLx9tm5AMDLTuZwdN07OgHxTqGDIua2pz8k08zZFleS4N6/mn6aqnWgU7wAC1dPM/SGxSCE2UxlZIRtJiPPlxqewFU1lYgpEE7UVl99BeEJ5P1kqVLKSdXvpYD4X5b146Wvb2VAkYcQJ92q4YZ4vGqSNMyIqMp5m+pqgJlkg5eYy+r4haP17VzxOWtUSfeNTmk/4/U/C7sBkNCedU0Fmsx2JLgS9q0abMWe6WatAsspk6c8G9blhgsgEKDw+KvjBDn5fPP18iygjINWxJUY9VN1mYDm/LGdKWQgqC244msFDCCAXGwfYp2Kd9fgTLndj4kivr7T7Nul3s8OvaGNt4zdfp7vFb6h/YybOggyxvTjG0+NmKY8iZFqEhPHpzGtuxeY9G5ciV3pzG0E1U+Ulv897y46Non6qj8RNDm1m+2uVYJ2v8x1sPatFhGuskaWqKMMP3d8PX3StM0Fs3txCE2FzAaBwXHn9KOJmmjXUHIYE0CayP54kSBc3sfs3VkiVbRZwQtpm3/K6lmg2KrVznNaS/8bBHhVIHYqHDqcHPdUgUT9xnjPmwYTowd2rd11MM1rVrQ0RNyNRkBkTx5cDrq9Hylrd9+L3xvXNuAOb1ju9aWpkaudTFVurlTO6lJHgv5a7/Y4FolaP/HWB8Ydo+pyRqLuDLCPi/V2hdM02MfHymrpkxzX2p2KSqmSpomUzChF0XuPCByw6pXEYIlzKWsv/8Fr03apVDqtbVJtyxhfUaMwd/M+aF/BI126jVaL6WekmO8Bff7wN1d7/DIsWPSNyg2cTZv1kwvZvs7pW4yrVrzpdvaDtYmsEkwlGjokME0dfI7FKNt+XAlmKyxWdR1qgOtZs6788W+I9c6+B8C/pauXWVZyjSPGoxeEw9peLNk8bFz0Jpevyy/wSvWWvC5WIUL8IYgQOwOp1QjXu4GLgsd6bQP13qwYJg5/lVSTJ1c25H9HxMTK/yAZHmYPqHvUCGE3Phnr5tMsXT1ZJ75ziyl35cwFmjBze0+T5YFTKgAz+OwjgCc8sqaCk4XaCZl9ZpfWfMTzP3BIvibZlKWESxNkzRTtE4Qrq9Pny110kMZTLcHDuivF7f8zQLGMlRckBEILgRgsm6YXEvqA4RpIcI76CZrmKZVi+DQKO/s3sWW5U5HigWMjgR/MwIhiAD2C2FxVkbYZ6Q73sE0LTtmBvWgBQ0eNFDWhMc0FjAeIeICjEDwImBm0sca3dKM1WJj8c497mcxYdRwrGvVrJHjrRQsYIL33mHOGQGPCMBkjX1DWKSVERwnEetIFcQL2k+a5kvllFjAOEWO6/kMAXgfM3kPAewbwv4hFUHIqCgn75Rt07SxLRYwRjRC7BqLc8eOOwsZCnOkytFOtRjoDfjwxoXqriIEzS4NISSFjGB6t2uC1dvBqQKBbOKGyRr7h8zM//pYjN/QehBh0ikuaIsFjBHRELtGCFKnR42abQXAjarHXvEFZNXi46WWD+yPQrgPp4S6Mu0I6wz1ky8zbTY2prLSyoL9UTCvBzLBqU5lslbxnZ2Z7cg0bWzPloCBlA5kSW0cWDDxauTbm9cIAr36s7WOmsSZQ7Ig0mgMsViTk+s4atdKpSsaN6TConNuRaHZrP1ys6N7EPdDxup1Uu0IfeEMJTNCcC6VBoD0H3/cblbd73nYP4R9RBCmVghj6nv3bY5M08b2LQkYRPzv0bsvpTS+Snw6dL6FEKs2EEnnNbVpixJe/RlF3p8Y6VHMnLwUJr32hoijIuMfe5F8eTjb9W2voz8VUyGkw2fDLpn5eaBNRPgzIwhUaIQywgLpDM0LNtAJ+4hUJmtX3n/97Q/HpmljWx4FzPinJlC33gO0UJO7xUozwMSBTjibBoLGyc1rZMCb1zqvONcHD5fO68gnng44Xr05brO2/jyZTy9NesWsiFseXh5Q++GM5Up4s/XpeYtrslf/Nwtgjd8UVg87R9yg7MOPjVNaSo4dOETo04wgUBEeVUbQrBCbGRH0Apk6dbpBqYUZ+YaW87ermzo2TRvbMhUwOK7juVemibCFxoU33Hj4oTP3/0b3DB5qbM9v19BSdF6NDwauEZwbvD74fw/7jT9/dQxBO+HlNy0HUYcGiCj++H1lhHk84vL6khC/5frWLZTqPNZRbu8zwNLLDS9AnHioim8DgXlTtxssTQX63dlTae7F9OOWnv19GsaitJhjAX2ktp9IZbLW20dAr+HDvPNcmwqYh0aNUcZEBTMwbyGmqe5urDPoj+9xE17wyOt7Hy4J6BvAV7jh5r9r8HBxfrVK40Q6NBdoq2ZxcOF0ZSceiNMxjRj+oGkUur2/aGddaYfCmd17yEMZnFttfEEaeYLAHPmItZhG2IuTnVkcUcDYhn6NF1nTVu0tC3O9Xll+9+rZQ+wrMusTL5cunTubFbGc564Dn68KKwLOWVG9yfQecKrgV5u2+Dxiut6f7Bu8IggS3tZmBF63bdvm0/UDs/79mQehgc1s78z5kAb07UUtW7QQh2adOJFLm7dsodnvzydMp1TCBbwjmtmrL/63TIaBfTQ4LeCX/VnSqRoEBsI3XH3djcIEe1v3bpSYWHwCxIEDB2jhonRx/A2mNSrhgqkAgmRbFZjQrBBnZWH6MuWmQOCHo1ZxUPzA/n2oUcMGhB3gdesmW9KSfA0upnq3dm5LOE7YqOnr/SIS3ujhaaUyTett4VspYJCJYy49kS+37nvqW88/rZkIrfCql79Yv3UB/NY7cwmHxukUF6OFPdW0UT1fTzd+Q63GhjcrEemN9UpzPXnSC0IjUAk9PCDIw8Py+fpNJesLECjYVwPNzYz27c+mjxe8b1bELQ+nL7y/IJ3MXmXQZCD8EDhbj20Ly9u9/XrSxOee9drD68achQSsR23Y/I1SQML3qWcP+xEDVV2bChhVJU4PbgQgTMy8N11Hp5s2X3yhbLQXvX+8bae+9DQNe/RJU2EBQeNJ09bb1L9xcgLatmsNwzrG/DnTqWP77soD+dAHeMLHiPPC9Awt5Gd5R0e46nyX9nvBwkWaz84ZqYDEetTAO271qqZlugZT2sFw/eBHAMIFb/ovP1/mKFRlaRFATBOcioCjV7xFaAsnJ6BtJ4Qp1ew5U0l1vIuqTQjBqZNn2LKAqdpymv7a628rd03DNI1jT7xJLGC8iWaItaVbG77f9Jntt5qu9XgDEpzXBJf13T/sLXVzEAr/HTvK9kkLrh3j1NH/vTNF8GRnrOHaOmGWD8ONuvJp/B8R7DKzsqVrLxgDTNPePn2SBYzxFwjBa/iz2HkAAAHK40FEgG0cbmZ3GoG9K3WSakv7xRzfyTYDHKXy8ZK54txnXfDZ+bmweAks0ue94xaL1k47xrI4EXPL1tXCBI7zqK1QUU4e1a6tPt2ibt1kyj8iPzitSBuDWV2z/mEIGXj/COGyISvnTdO0sX0WMEY0Quwac2qsFyTUqC4EBh5MlbBBOvIhWOAzggfxrTemOJ4WwcycuTPzL4iifSy8Ol0oRr19O7ZQf80fZfcPPwuBgTGqCHkQKih7/6B+tOPbDY77VvWBN/7XG9eIs5rQFwSNCmdMzcaMf8QUU91S5SqwiuuONK2r4hHm+nad/6E86wj1sDDuLdO0kQ9e5DWiEWLXxS7w19Dq5UuEv8jij5fQilVrRAT9vJMFwvUdJw9Uio4Sm/06dWxHHTu094oHJ4TBB/Om0/DRY0r8LmAefX2KPa9i158Ei6yYMj3y8EO0YsVKWrZ8Ja3fuEWc9qi78mNMiDnbtnVLurHzDSLcQGl2BLvyIPsf6zn4wJs3Q+Mp/ZPldOjoMTLijGmelUPwJj7/LFWuXJkmT5tV8htZrWvkDYJlxsxZNGX6XFP3AwjGp8c+6hPrFgsY4y8SgtdwoMPDhTctPrjBYao8efJC2IPo6GhHb0ZPcGEKgY9+yBfezt4iCBqsg+AD0vvQ2/dmX3qbVr6xAIwPhKARZ7sY60IUvxNOhrAiICHcsCdqz95fCBHqEMsFYTFVZn6MB5prQvVqmnf27VaGZ7sMCxjbkAV/BTyc+JQVlcXDXhZ92MWrtDjbqY+tMmlDR1JSah1xaB0sVlZM97AQrlm2wJIAszt+lGcB4wQ1rsMIBBAC0JQgXFKb1LfFFdbb4AvUqmULW/XsFGYBYwctLssIBCACP/20k2D+tkMw+b/w4njHvkBW+2IBYxWpAC2HncUqSwrSrczdA3RozJYPEICFC9sXYPJ3as2zwxabqe2gFYBlW7VqKSLMubKGG8nXcVtc++T//YMApjiIPqhyQQBXuB+gtXTt0oF+/HptmQgX9MsaDFAIYsLiJjxKb+/di6onpRKCWuMNlVw7gSb8Z3wQj4xZt4PA/Dkz6Pq23Sg+sZq23ylSnMGN4OywJIGw3QKnC9h1mrTDg6wsCxgZKkGWBlPwvsxMmr9gEeXmnqArGl8uzMNBNgxmtxQIQIvJPrhLi0WziLKzsykmJpYuS6pF9evX87r7vx02WcDYQSuAy0KTQeR4posXAZi1nW7g9BVqvAbjK2S5XUaAEeBzkfgeYAQYAd8hwBqM77DllhmBix4BFjAX/S3AADACvkOABYzvsOWWGYGLHgEWMF65BYq80go3wgiEGgKmAqbwjDqYjw4EnHlwMLhViouNtVQ0PrG6pXIoVL58FFnhFWVlh58jXUaJiQnSM5Jdy9rdB+Jan/9nBEIVAaWAgcdfTS2WhCc6duAINW/e3FOxkvy2f28jooyVJEgu4NZ8Z49ukhx5Eni9rJbnWCM456lx48byRiSpnbSgSQjGY0bgdWj/XmZFOI8RuGgRUAoYIDLp+f+I/QsqdBDndNCQPrbcj+F1Cjd2s30T2ZnZNHTIYFW30vQXJow1jfIOXtMG2ecVZ9yY83qARo4YLuWJExmBix0BUwEDYfC8tqUbMU2NO3bxwCFm6BUNU8VBUnZBXLp4nph6QDswPrz6hqwP5r1lS2ihf/CKoyiwocuVV8QzbXllU21vzpN2WaUFH8zW2jtNEFAyXj9e8oHtiPu2meAKjECQIhCWn59/zhPvmzZvobemz6T3F2UQIpu3u+E6unfgXSXhCj3Vl+UjlCPanDlrLu3Y9hMlJCfSbd1uFJpLaTZk6WEDi3nN03htXWpeEdBn1uy5gtft2zZRzeRGIvD0UO0MmUCMpCbDm9MYAX8gYEnA+IMx7pMRYASCHwHTKVLwD49HwAgwAv5EgAWMP9HnvhmBEEeABUyI/8A8PEbAnwiwgPEn+tw3IxDiCLCACfEfmIfHCPgTARYw/kSf+2YEQhwBFjAh/gPz8BgBfyLAAsaf6HPfjECII8ACJsR/YB4eI+BPBFjA+BN97psRCHEEWMCE+A/Mw2ME/IkACxh/os99MwIhjsD/A1F/fuECBiqAAAAAAElFTkSuQmCC;" vertex="1" parent="2">
          <mxGeometry x="67.26" y="310" width="113.13" height="40" as="geometry" />
        </mxCell>
        <mxCell id="PO05EdHQ-00gVQy-0LEZ-130" value="" style="shape=image;verticalLabelPosition=bottom;labelBackgroundColor=default;verticalAlign=top;aspect=fixed;imageAspect=0;image=data:image/png,iVBORw0KGgoAAAANSUhEUgAAAIkAAABdCAYAAACRi0XwAAAYVmlDQ1BJQ0MgUHJvZmlsZQAAWIWVeQdUFEvTds/sbIQl55yj5Jwk55yDqCw5g0tGRUREBBWQIAqIAhdBFIyIiIAEAyJJBUVRFBRQVAxklG8Ieu973//83/n6nJ5+trq6qro61NQOANwVlMjIUJgBgLDwaKqDqYGAm7uHAH4SEAAfIAIhQKD4REXq29lZAbT8bv+zzA0CaK19LLMm67/7/7+F0dcvygcAyA7F3r5RPmEovgYAUuwTSY0GALdGF46LjlzDaAUsVNRAFKev4YANXLyGvTfwpXUeJwdDFHcAQKClUKgBAND1oXSBWJ8AVAbdDNrHFO4bFA4AK4LirWFhEb4AcBuhPBIoTySK1+ah7v0POQH/IdP7j0wKJeAP3pjLeiEYBUVFhlIS/o/u+N9LWGjMbx1iaKUNpJo5rM0Z9duzkAjLNUyL4ulwbxtbFDOheCHId50fxTApMMbMeYMf5vGJMkR9BthQLO9LMbJEMQ+KTcJDbaw26d7+QSbmKEZ3CBwfFG3uhGIOFKf7RRk7bvKcoUY4bOqC6/2phvqb9PsU6rreNV2vYkKc9Tflfwv0M9+Uj6FLDHRyRTEJxSKxQS42KKZDsWxUiKPlJo92YqChzW8eaozDmv0iKHbwCzc12JCPifWnmjhs8meERf2eL+ZMYJC5zSa+Eh3oZLbhH0yHD2XdfnQumD6/cH3n33L8otysfs/F18/IeGPumEm/cGfHTTkLkdEGDhtjEVJkqN0mPyLkF2q6RhdCsXJUrOPmWMQlGt2QG/IR/8hoO6cNO5HEYIqF3YY9SDawAobACAiAGLR6gwgQDIJ6pm9Mo782ekwABVBBAPADMpuU3yNc13vC0acjSASfUOQHov6MM1jv9QOxKP3nH+rGUwb4r/fGro8IAe9RHAYsQSj6O2Z9VPgfbS5gHKUE/Zd2Clp9UHtD0brW//+m/6b+TdFHKVablJjfGgXof3PijHFGODOcCU4S4UK2IlqIFfrUQ6sioo5o/J7H3/zY99h+7FvsU+wo9vnOoBTqv6y0BqOofJNNX3j/0xeIGCpTBTFAdFDpqGSEDeECMogyqkcf0UU1q6BUw02717wi8C/Z/zGDf6zGJh9RnggT2Yl6RIl/j6STolP5I2XN1//0z4at3n/8bfin59/6Df/hfV+0tfw3JyYdcxVzD3MH8wDThLkBBDAtmAZMN+b2Gv6zu8bXd9dvbQ7r9oSgcoL+S9/vlV3zZJR8jfyU/MpGX7Rf/NodDQwjIhOoQQGB0QL6aETwEzAP95HdIqAor6gMwFp82bi+vjusxw2IrfdvGgW9d9UV0aNu8DctAr0zavPRI3Pyb5oYeqY5NQC44uATQ43doCFrDyx6S9CjJ40TjV/CQAKdjyJQBVpADxgDC2ALnIA72IFaH4jucyqIA3vAfpAGMkE2yAenQCkoB1XgIrgCboAmcAfcBQ9BH3gKXqC75x34CGbAHFiGIAgPkSFmiBPih0QhaUgRUoe2QsaQFeQAuUNeUAAUDsVAe6ADUCZ0HDoFnYWqocvQTegO9ADqh55Db6Ap6Bu0BGNgWpgF5oXFYDlYHdaHLWEneDscAO+CE+FU+BhcCJfBF+B6+A78EH4Kj8If4VkMwNBg2DCCGBmMOsYQY4vxwPhjqJgkTAamAFOGqcU0ouv8GDOKmcYsIjiEGRFAZNAdbIY4Iz7ILiQJOYKcQqqQeqQDeYy8QWaQX1gylgcrjdXEmmPdsAHYOGwatgBbib2O7UTP0jvsHA6HY8OJ49TQs+iOC8btxh3BleDqcK24ftwYbhaPx3PipfE6eFs8BR+NT8OfxF/At+AH8O/wCwQaAj9BkWBC8CCEE1IIBYTzhGbCAGGCsExkIIoSNYm2RF9iAjGLWEFsJPYS3xGXSYwkcZIOyYkUTNpPKiTVkjpJL0nfaWhohGg0aOxpgmiSaQppLtHcp3lDs0jLRCtFa0jrSRtDe4z2HG0r7XPa72QyWYysR/YgR5OPkavJ7eRX5AU6ZjpZOnM6X7p9dEV09XQDdJ/pifSi9Pr0O+gT6Qvor9L30k8zEBnEGAwZKAxJDEUMNxmGGGYZmRkVGG0ZwxiPMJ5nfMA4yYRnEmMyZvJlSmUqZ2pnGmPGMAszGzL7MB9grmDuZH7HgmMRZzFnCWbJZLnI0sMyw8rEqszqwhrPWsR6m3WUDcMmxmbOFsqWxXaFbZBtiZ2XXZ/dj/0wey37APs8BzeHHocfRwZHHcdTjiVOAU5jzhDOHM4bnCNcCJcUlz1XHNdprk6uaW4Wbi1uH+4M7ivcwzwwjxSPA89unnKebp5ZXj5eU95I3pO87bzTfGx8enzBfHl8zXxT/Mz8W/mD+PP4W/g/CLAK6AuEChQKdAjMCPIImgnGCJ4V7BFcFhIXchZKEaoTGhEmCasL+wvnCbcJz4jwi1iL7BGpERkWJYqqiwaKnhC9JzovJi7mKnZI7IbYpDiHuLl4oniN+EsJsoSuxC6JMoknkjhJdckQyRLJPilYSkUqUKpIqlcallaVDpIuke7fgt2isSV8S9mWIRlaGX2ZWJkamTeybLJWsimyN2Q/y4nIecjlyN2T+yWvIh8qXyH/QoFJwUIhRaFR4ZuilKKPYpHiEyWykonSPqUGpa/K0sp+yqeVn6kwq1irHFJpU/mpqqZKVa1VnVITUfNSK1YbUmdRt1M/on5fA6thoLFPo0ljUVNVM1rziuYXLRmtEK3zWpPa4tp+2hXaYzpCOhSdszqjWwW2em09s3VUV1CXolum+1ZPWM9Xr1JvQl9SP1j/gv5nA3kDqsF1g3lDTcO9hq1GGCNTowyjHmMmY2fjU8avTIRMAkxqTGZMVUx3m7aaYc0szXLMhsx5zX3Mq81nLNQs9lp0WNJaOlqesnxrJWVFtWq0hq0trHOtX9qI2oTb3LAFtua2ubYjduJ2u+xu2ePs7eyL7N87KDjscbjnyOy40/G845yTgVOW0wtnCecY5zYXehdPl2qXeVcj1+Ouo25ybnvdHrpzuQe5N3jgPVw8Kj1mtxlvy9/2zlPFM81zcLv49vjtD3Zw7QjdcXsn/U7KzqteWC9Xr/NeKxRbShll1tvcu9h7xsfQ54TPR1893zzfKT8dv+N+E/46/sf9JwN0AnIDpgJ1AwsCp4MMg04FfQ02Cy4Nng+xDTkXshrqGloXRgjzCrsZzhQeEt4RwRcRH9EfKR2ZFjm6S3NX/q4ZqiW1MgqK2h7VEM2Cvsh3x0jEHIx5E7s1tih2Ic4l7mo8Y3x4fHeCVMLhhIlEk8S/diO7fXa37RHcs3/Pm736e88mQUneSW37hPel7nuXbJpctZ+0P2T/oxT5lOMpPw64HmhM5U1NTh07aHqwJo0ujZo2dEjrUGk6kh6U3nNY6fDJw78yfDO6MuUzCzJXjvgc6TqqcLTw6Oox/2M9WapZp7Nx2eHZgzm6OVXHGY8nHh/Ltc6tzxPIy8j7kb8z/0GBckHpCdKJmBOjhVaFDSdFTmafXDkVeOppkUFRXTFP8eHi+RLfkoHTeqdrS3lLM0uXzgSdeXbW9Gx9mVhZQTmuPLb8fYVLxb2/1P+qruSqzKz8eS783GiVQ1VHtVp19Xme81k1cE1MzdQFzwt9F40uNtTK1J6tY6vLvAQuxVz6cNnr8uAVyyttV9Wv1l4TvVZ8nfl6Rj1Un1A/cyPwxmiDe0P/TYubbY1ajddvyd461yTYVHSb9XZWM6k5tXm1JbFltjWydfpOwJ2xtp1tL9rd2p902Hf0dFp23r9rcrf9nv69lvs695seaD642aXedeOh6sP6bpXu649UHl3vUe2p71XrbejT6Gvs1+5vHtAduPPY6PHdJ+ZPHj61edo/6Dz4bMhzaPSZ77PJ56HPvw7HDi+/SH6JfZkxwjBS8IrnVdlrydd1o6qjt98Yvel+6/j2xZjP2MfxqPGVd6nvye8LJvgnqicVJ5umTKb6Pmz78O5j5Mfl6bRPjJ+KP0t8vvZF70v3jNvMu6/Ur6vfjnzn/H7uh/KPtlm72VdzYXPL8xkLnAtVi+qL95ZclyaW41bwK4U/JX82/rL89XI1bHU1kkKlrL8KYNAK+/sD8O0cAGR3AJjR/Iy0bSP/2ywY9OUDRlsXSBb6CHdgDiCOWD2cOJ6LwEHkJ+nQ2NCGkLPpbtJPM8ow+TGXs4yxSbEncLRw0XO78lTwfufXFkgVfCTMKOIgelTsoQSQVJLylz6xpUtmXk5C3l4hWbFG6akKrKqgtl09Q6Ne8402WUd9q5fuYb3L+i8NCUaqxj4m2aYNZq8sIEsRK1PrYJss22t2z+wXHNmclJxtXcJcj7rVuj/0eLNtxnN++/JO4EWicHrL+Oj7Ovjt9PcLoAQ6BmkHC4RAIaOhLWFnwg9EBEba7VKnCkQRor5ED8Y0x1bF5cYnJYQmuu8236OzVy1JdZ9Gsv5+yxTXA36p0QcPpuUdqki/erg1oztz8MjroxPHPmV9y57NmTs+mzubt1SAnGAt3HLS9JRP0b7iwpLa0y2lD888OTtcNlo+VfGjEnOOtUqq2uC8Z03chbyLV2r7675eZryidNXxWtT17PrqG40Nd262N7beutV0/XZdc3VLeWvJnfy2jPY9HcGdjndV73HcW7w/+qC36+7D9u47j5p66noL+6L6DQfIA48fFz3xf6oyiB0cGqp6Fvtcbxg3fA/dXyovJ0ZyXmm9Gnt9dFRr9OOb0rcOY5ixunHn8cV3ee+3vG+ZcJgYnzw4JTc1/qHqY/i00vTsp7rPPl8Yv1yfsZt5/3XPN/Zvd79n/Qifpcz5o/tofKnzp+zq6vr6C0OX4GCMImYSuYxNxrnhdQgyRHGSOI0QrTxZk86e3ochibGUqZl5ipWBTZ2dwpHOeY3rFQ8NrxLfNv5kgbOCLUIvhGdFacT4xVUkzCW9pBKkc7dclumWnZRHFAQVtZU8lKNVMlUr1G6qP9J4q/lDG6fDvVVB11ovVD/L4JJhn9EnE4Ipr5miubGFs6WPVbh1vE2S7QG7g/ZpDumOGU5HnDNcUl0T3ALdnTyMtul6mmz32BG3M9/rEqXNu8un0/e6X7H/7gDXQPkg2qDp4L6QxtDqsKLwrIiUSOouT6peFH/UcvTTmIuxaXHe8cYJ8okiu3n3cO5lTWLYh9s3l/x2f1fK5QP5qXEHt6dZHDJKtzpMydif+deRu0dfHfucNZs9nzN7/HvuTN6n/OmCzycWTjKc0igKL64s6Tk9Vjp15t3Z12XPy/sr7v/VXNl0rqvq03nBmu0Xii8+r2O5ZHM5Hb29Fq/L1vveKGoYaMTeUm7aeftgc2VLU2vznfNt2e17O+I6k+9m3Su5X/7gdNexhzHdjo9kepCe4d4rfZn9wQP2j42fGD+1H/QeinmW+vzQ8N4X/i8NR7hGpl/dfH1o1O2NzFvC2/dj7eMl73a915ugnXgyWT6170PQR9/pwE9hnyO/RM5EfqV+i/2e8CNuNmjOdJ5+/uqC8cLDRY/FT0t9K7Q/h9fXXxp0QJbQM9gPg8NkIdJILzYRJ4ebwv9FCCTKERdJXTSltHFkBzpFejr6OYbnjK1M1cy5LHtZA9gc2HU4JDlZOVe4JrkHeJp5a/nK+YsECgTzhLKE00RiRSlixuIC4gsS3ZKlUlHSZlsEZWCZKdkhufvyjQrnFQuVkpW9VDRUcaq9avnqbhqcGs81S7R8tRV1cDqvttbrZukF6hsZiBkyGAGj78YTJoOmt8wKzP0sRC1GLQutbK3x1u02B2zN7TjsPtg3O+Q6BjppOZOdX7lcdN3jZuHO6v7ao2pbBBr/F7ff3pG809CL4NVPKfYO8dH2pfUd9jvnvytAPWAlsCUoOVgvBIS0hu4PMwxHwjsjDkbqRy7sqqG6ozG7Oto2+kdMYax27Ku45Hje+NsJXolsicO7a/Yc2OuWJJE0t689OXd/QIrRAalUjoM0aSDtx6Gx9EeH6zKOZFKOKB/FHx0+dikrIzskx/Q40/G7udtyp/MS8/ULDE6knyScyigaL+E8rViqcUbjrEqZXLlEheBfnJWM50hVxGp6dCfpXPC6eKj2Yt3jSytXJK56XDt+vf8GS4P7zeLGoSbsbclm0xbv1n13Trc1t7/uWL0reM/wfsCDI12XHw52/+yR7N3Wd6L/1WPFJ0effh5yfHZzWPBF/ojca7o3ceOZkwmfbL7NLdqvrf/G/4BrBacKQC6aZ7ocResUADk30DzzFgDsJADsyAA4aQD4UC2ATWsBFHLwT/yA0MSTgOacbIAfSAJlNNO0Ah5o1hwPDqMZ5QXQDAbAe7ACMUGSkB6aH0ZBR9F8sBMagyFYEDaAfeFDaJY3AC9hhDHWmERMFWYIISCaSBhSjjzHMmEt0YysHQfh9HDJuDY8Fm+Bz8Y/IwgSQgk3iXiiK7GKuESyJp0lzdPY0FTRIrTetO1kUfJh8mc6J7omNNPJYQAMuxjGGd0Ze5lMmG4zqzPXs2iytLM6sI6xxbDj2As4xDgaOG04J7nSuRW4x3hKeb35pPkW+O8K5Av6CikL44RfiFwVzRILFbeUkJYkS85IPZW+teW0TJKsp5yGPIv8jMIjxfNKh5UDVSxUZdVY1VbVP2m80hzQ6tLu1OnYek+3R29Yf9JgzggY49B7jmBGMCda0FqyWAlaK9vY2Ibb5dk3ObxzIjsru7i77nU7497hMeFJs11+h8vOPV4VlB7vBV8RP0f/gwFNgUvBhiEnQxfDfSIGdplQm6KVY+riZOIvJ2rv7tsbsY8neTAlL9Xq4NyhvMNbMjqP+B1jzXqd8yh3JH+1UOCURrHV6Z1nEsrOVAyfk6k+c0G+dvTy2Ws7btDcrG3a3iLdxt9pcr+sm7ZXon/uSc6QxPP+l6dfn3g78N5ravET05cL38AP+TmN+dXFjKWG5Scrt36W/4pcVVu/P6D1/xyYADcQA4pAF1gDTxAGkkAOqAA3QS94B35CbJAcZAH5QwegMugO9BZGYHHYCqbCp+B2+AuGB2OJ2YOpw4wjXIgDkol0YiGsDnY39hZ2BaeLO4B7gGfAu+P/wn8j6BNyCe+JWsRc4jTJBF3zFRo3mmtoJkylfULWIJ+ho6GLp5ugd6fvYTBhaGXcytjCZMjUxezIPIJmpkusWWxSbA/Zd3GwcdRz2nO+50rgJnNX8OjxjPPm8Fnw0/GPCFwVPCYUJGwgwiHyUfS2WLa4v4SBpKgUkzRhC1aGIEsnxyTPqEBQWFScVBpS7lK5o3pHrUv9hcY3LTpteR37rUG60XpU/UADN0NTIw1jZRN1U1OzneZJFmct71nN2HDbGtuFoDEtz/GEU75znssZ1xa3rx4q25I9H+3g2xnt1est7OPvm+933b8nYDxwOZgtRCnUKSw2/FREa+QHKnuUSXRszLnY4XiGBOvErN3P9ool7d03tj/gAENqV1p0Ou7woUzkSPox7qz2nJRct3zDE1ontYq0SjRKJc8iZXcrYiu5z92u9q5hvTBS23mp98rsdYUbe24+bKJvNmqltlV2TN0zeHClW6GnuG9k4MeTr4MTz8aGJ1/+eA29IY2xvBOZMJsqmFb7kvG9cj50sWc5daX9549fi+vrD6OnnxHwARmwFdgDf7AXFIBLoBt8gIiQNGQNUaFCqBX6ALPBRnA0XAkPYxgx5phUTCvmJ6KFJCKNyApWH5uBHcJJ4vbjRvBb8WUEAiGC8ISoQSwhwaRg0lMaI5pbtBq0d8h25Pd0KfSC9K0MngxzjNlMMkyPmMNZyCxVrAasL9kS2PnYeziOcXpzGXBL8bDwLPOO8DXwHxcIE7QSkhfmEMGJLIp+Ffsi/l3ipxSdtMgWPRkv2WS5EvkGhceK35W5VMxVU9TaNWg1PbUu6eDRd9VmfSGDXCM241pTD3NGi36rUzYRds4Oio7Dzh4u3W5m7o+3+Xsu7DjgBVEivZ/6qvkVBxAD9weTQsrDrCNA5A1qRDRfTHtcTILv7s9JFckJ+wdTVlLhg4Q0hkNK6VGHn2Q6H5k6lp4tm/M8Nz1fq+BrYfWpHcWkknOlamdul+mWt/5lVNlVZVf9pMbpQl+tSd3NyxJXTlwjXN9bv9JwuFHsVt/tlBbV1qm24g7bu8i9Ww+iHkp3j/ec7nMbYHk88DRryOLZ6vCFl7Yjk69jRn++TRnHvEuZgCcPfEA+7pv+/NnkS8JMydej32K+G32f/3F+1mb2xVzg3Nx87PzUgudC76LhYs0SeSlyaWBZZblw+euK+UrZyvJPp58Xf2F+uf26sAqtOq+eX1v/jW9H6/GDAYDi12uoS+rB2X9/t9n4rvSP3OTfLViPLmtlLbqslbVIA/4Hq1Dbb1b6fAUAAABWZVhJZk1NACoAAAAIAAGHaQAEAAAAAQAAABoAAAAAAAOShgAHAAAAEgAAAESgAgAEAAAAAQAAAImgAwAEAAAAAQAAAF0AAAAAQVNDSUkAAABTY3JlZW5zaG908TWbrQAAAdVpVFh0WE1MOmNvbS5hZG9iZS54bXAAAAAAADx4OnhtcG1ldGEgeG1sbnM6eD0iYWRvYmU6bnM6bWV0YS8iIHg6eG1wdGs9IlhNUCBDb3JlIDYuMC4wIj4KICAgPHJkZjpSREYgeG1sbnM6cmRmPSJodHRwOi8vd3d3LnczLm9yZy8xOTk5LzAyLzIyLXJkZi1zeW50YXgtbnMjIj4KICAgICAgPHJkZjpEZXNjcmlwdGlvbiByZGY6YWJvdXQ9IiIKICAgICAgICAgICAgeG1sbnM6ZXhpZj0iaHR0cDovL25zLmFkb2JlLmNvbS9leGlmLzEuMC8iPgogICAgICAgICA8ZXhpZjpQaXhlbFlEaW1lbnNpb24+OTM8L2V4aWY6UGl4ZWxZRGltZW5zaW9uPgogICAgICAgICA8ZXhpZjpQaXhlbFhEaW1lbnNpb24+MTM3PC9leGlmOlBpeGVsWERpbWVuc2lvbj4KICAgICAgICAgPGV4aWY6VXNlckNvbW1lbnQ+U2NyZWVuc2hvdDwvZXhpZjpVc2VyQ29tbWVudD4KICAgICAgPC9yZGY6RGVzY3JpcHRpb24+CiAgIDwvcmRmOlJERj4KPC94OnhtcG1ldGE+CjM/GKgAAC+QSURBVHgB7X0JmFxVmfZbt5beO92dXtJZ6BgSDBBAEiQYQCAwgAiKIogi4iiigqKMv8roOA/4jKP+jKOyuAH+joqOigiCshlIQiQkEGJIAlk6W2frfd+r6t7/fc+tU13dXdXdCZ2EYJ/k9t3Ods95z7ed75wKtLa2epgIEy0wQgs4I7ybeDXRAqYFJkAyAYRRW2ACJKM20USECZBMYGDUFpgAyahNNBFhAiQTGBi1BSZAMmoTTUQITTTBgbeA53lwXRfxeByxWAy611nPhoZgMIhQKIRAIGDOuneco2tsToBkaK+muVfnR6NR9Pf3m6O3t9cAIysry3S8Oj03NzeZUqDRoecCko2vs/ISaBQ/EokgHA6/4UETmLC4Jvs2eWEpgzq4r68P3d3dhhLk5eUhOzsbAoc692BDV1cXenp6oLPKEmCUr/IUxdHxRgoTIEn0hgWGKIZYhw6xhpycHHNo9B+KoHIsYER5BJBUwByKMg80zwmQsMUEjM7OTjOqxQJ0CByHChjpOkkgFTsT1RL1UsjPz39dFCtdOQfz7NAMj4OpyRFII3bS1tZmZIbi4mJD9i3JH606nhcfLUra94FAMMPzgGFjAqjqJVbU3NwMsTixoyMp7P5DUhLbCeqIwsJClJSUpO24kR6ON0jSlSVWtG/fPsP2VE8B6EiEfyiQCBzSMETWxUpGanjff8JDANaTQlc8PBdOwDXX6rCBt7qTCqwnVvD0VV2ltDnpiYdgIlacMfWWsgifD+RmbvjHf0rlwrAhURUJzYdbsP2HYTdW7hA7KSoqMsKh7Yp0Z3WroKBONR1LcLjsM59dEAyxbsQ798Nr2wenoxZeTzO8aBdjxxHq60QsqwBegOptFqlUXgUCxVOBwqlws4sNLAyghCcdjkriha6TYUDLmTRpkqEiAouoi2SVwxn+IUAi6tHS0mLYSkFBQcaRKCphe0rjO0hQ0Kph+sMLcNS31cDd+yLcmhcRalgBJ9oEL9aFIKmSF8tivH4m7+A5jzKEWAM7Wh0f7wRCYXjBCKLFZyA493IEqs4CcssRYxkhUSDPpzq2fKZKBlEOySWiInv37jUCtr7jcIU3NbuR4aq9vd1oCxUVFaaRhzesetFnCKICNlDZYMf3I9CzBx6BEd/0GIL1zyDYL2oRRpwUIuj1+tGVLBDlH71jrzuTmFgCKjMhuBDoI1Uh4IiYQG8UDh/Hw2Xwqq5AcN4VQNnx8LJyBSk/Pf8qZBJya2pqjEAr9nM4WM+bFiSSOzo6OozQJ4AMBIHCBhF5mdVlNhcqAojLkNXdjEDtS/D2LAG2P4tQ53YOdHZhiO88WlY9GdIa2YukHh6PQMxmyCyCCLgJqiANyLASPktSCkY1xjKWG6flNtQPt/J9wLyPIDjtdCAyydQpIJQqLwMcm71ARIBRtqqvrzdqumwqhxoob0qQCCCye4hESzhNbcRUrcSMbHZegIKoAOL201aycykCW36BQONGUpH97CiCwNEoF7nQMc7Bi8Jze+Dlz4Y3bTHc+TciWDzTZ1NDABIIWJYEY4ATCxXbOdRaz5sOJFb+KCsrMyBJBYi6NxUkug+QTbhkH6hbC6z6PpzGNRRAu+E6ZBEu2QY7JhTfzTPjBHKUZPyCJGERtgDLEUULtFFOqYB3zvfgVJ1nZI+BwkhTUkCi52KlopalpaUD0Q7B1ZsGJLJYCiDSAKZNm5bWUinBVGxFlFxBadDXAqy7D/j7PdRiaOn0KHAGCRDkUJwQhWHEAJ9JkJBgOo7BsCb0kEDxIGtxKQA78SyyIWpWi75NeeVKijY5rIIU6OEgUVWsfHIoNZ43BUgsQGTSlvyhORcbBlEOsXT2tUegOP2kFjXLEH/lRwjvW0oVo5AdJU1GGs4RDgSvG8yDd+oX4LztE4hTM5J0YgCbqJoVaqUS79+/37BVySeHIrwpVGDZQGQ9lWk9FSDDGkwqhv73t6P/xXsQ3vJLhPtrCZBidgDBYTSUAYANS3+4HlCwDbjtwNrvUk4KIbjoEyxZCB8eZBSUxVjTC4fK0DYgCQ0v/6h4opEkAU4GMk3KjRQkn3ide9D3hw8g/Mr3CZYOUhXJHUxHLeSNFAKkHSJqztrbEKP6zauM1RMF0eCwE4MZIx7ki8wlH2SGhzOZVEEBRPx4uM1AMoQOP4glxfYsg/vQlchu3cQ2z2MnkIjHKZNQLvCkxUiAfcMEmv89yiqkFHj+Frj1683XSHsWq5E92Abr0iCQGDnLvhin81ELEjWGWIzUv6ETdJJDJKQaC6palUYvd8fjCK74MkI92wgQCYI0fjmyY8hyyXtPto6Bhh+n9n0d2QjgVM+9fla3C+7LP4HXTQsvNSIp4hJkU4OoqKiqjvEORy1INGpkUZ08efKIbcLxCG/LM8DfbofXuotx30jUYqSqq2sIlEAhHPZ7aNejwO6lfBYjZxxMJZWLZBPNS8lGNN7hqASJwCFNRsayTIKqbArmeO1xOEs/g2BPLeEilnK0fDLZjOQkr45CLFkjrbNY/wDcvi6abjhAhnyH5C0ZDmUGGO9wtLTYoO8WFVGjSA4ZCAkTO0eaOIzr0nt95xI4yz/J0Uj7iFiJMZ8PyCkDad+IVwIIhdcA2aHDOSQnC8G6FYjvXWEqq+8ZpN7zqbQbURJpe+MZjjqQ2Ek7qbvpvLXMVJ3kkebXEFj9XbbV0QKKUbpVIgjtJe7ffwiXGKDUlTaBqOt4U5OjDiSak5HKp1GTLkgkBf06Yut+DjStY5T0jZku7Rv7Gb+DLDSb1AT164YJrrbu0vTEisdTyzmqQCKVN9NchVRCURHZF2I7nkRky6/JdnyfDtuAR/dZ7JIkJJCH2NZHfAssP2goy7FajijueAVKRwcfhFYdqpA6UOqX7sUXdW+DpG5J32IPOiRs6pBcoWOsQUsPNFKGsRmW7xljGD+nm/4fK++m/YNSfvioGgMjN4MIoviMXJTqltLXpZ2EpZDfPdDOykDtqfaWXJJJqFe8AwkHDBKBQGBQJayAJJCocqqUKqhOTLV+WkugTaP0imtBIwDJ3jGs81O+RKATr02n8gogVAzp29OBwIofINy5hm1JSyrrKu6T+JOS21F4aWaA9TEEQQe905p2w62Yl9BxhKCBwaa2VD+NVzggkKiTZcDSWTKBPUbr4KETT5bqiOIIMOp8sRHlJ8FLoBkaVKbK0TE0BNhUEcKkbx/dCnf9iRSEk3X0E/GozRjz9tAER+W9QJCN/nAWIi6Ng3SldCrm8vuk5YgiD8w5qb3VtqkD9fV88vDeSJObUCnfBQlEmiPRaLZUIE30UR+JiugQKJS3KJHAokmquro6o++n2kAURx89GIxideLT+k9pJNqL8OZfkc3QjqAGM2rvwOgatVJv+AhkK2IlZKMeZS2X2lvQu4DPhlMMDTKxZrXbgbDzTE0wKkg0gjXKVdj06dPTjvJMmY/luWVTAk15ebmZydWipIaGBgMWjQYr86SjIiQZ5p9bv5Uuh+tNQ/rmdQHkzQQSvzUlnNPhBAHKXgFNPxjhfHBLq51SZcLBbw/8LiNIhEKxAVEQUQ9Z88YShkrbqWl8z6qRO04yjcCikaCyRUEs+xHlSRtczm/ULaO74S5/om7kItJmcXQ9JBvtr4Mndp3NnQkO8fdmFP/VSRI4xVqGAsRXrkTmEmqW5hJ0iPzbwIqT+AwK5m0iLjHIMaEn0ojIV1NiirqI3VgXRIFFQBks2CpzHvJN7etFfNvTvKTwOiinlEwP6aXkJH6L1504uMSC6qpnfGd5berJd+5gTeSgq6TGilJ7Y35ymBMtTRc00McjpKUkAofkD/lOphu9/jwk3e348QF28MBcQsR00mBhUbxUzaTVasSkcQNk1Wly9ihcxggINaOxISa/SYKYryrL0VcsZzBA/E/3KRPbivw51EIDE2dyvSC3bxinxhl7A0s1DSLuUFaji2MABARy+VX0wvea+C359JktYntlI+RxDY4ZHGPPPW1MshqXbR80Avpw8I2HLGLLHQYSK0Bq1Vg6gPgJo+xyOdSJJ8bRE42guT+GbRzxqxq6sLuhE83dAxNN5fk5mJwVx3GlkzC/oghl2dzEJcyVbnIjZD6+w5imuC1hS6LFFGfZja20f/YFVwOmfasop3bwMV3+nB4KrxnY0uAMxu/OpZc9NE3A8eDKP0WaBm1CAotcETi971HmCrl1jDDOk4yDm2r8viklp0EgEXmSI7FUqKEsJiUNGySLDRDH/u4o/lrbjnV72vE0j62doho2pmovdqCTAMOLQCuPnXjv1GK8fVoBTi3JxsIpk5BHVqKVcmYSziYf5exrNgIKqceWJ8wKukCQvRSnfQQDAB0lm/F5TQoS4Mo9lz6y7pTTEKirRqzkeITb1hKw8pbrJ2za4U4+Hk7bXtZRlEes1g6Kg6iGNDihMkMYL1aj7AeBRHKIyPpQg5U6xCVbcMT/yWc9zrCu3NuBn26qx6N7W9EX1cghIJIAsTUXMOw1zySNIhuP7Ong0Y5jcoM4rbIAn5hVhLOqyowA5uv9+nihSyDw01vWYu4k19CApoXXaN8Jp2UNnc0pFyTYmp/iAP5ycRY8f08Qf6STJQS0CEsdyXcCuZY/uIxjnJT4XPKGhK4YF6Bn0X7DtcFu+Di4b70e4cavInj8xzi1z3w6qpmugMm5xLPqvYis/ym8ykWsL9lvzQrmpwZKfOQBVFnzOJ4joGiqz7hJD0s9XiwnCRKpmQKJtYGklugDRA3GOvHfs/s6cO3y19DWQVVLHuZGzhjtQy1abDwPNT39qKluw7O7O3HWMY349turMCs/l3IKV8IQCPJqTxvM40R+uzewkXrZZj6LMR5naROleaiO5wg3wckhbaSZm50Z0nPJDh6pgFmmSf6fcxx6p54Gp2kXIk3L+M10BqJc5R5zEbuIdd3zGGf09yP28o+4RGcS68OlEBxwko+ieWVcHrodwS1PUeBsgTf9EsoTFMZ3v8iiE+D0azG2v6QigewyOGFaVlXVQSNxbFkcSKwkSCSsis2ks0VIZ4irw4iTR2sa8eFntvDb6L6vBgzyoSjEwYREupb+KB6tjmJfw1Z857xjsaCY+4eFRHXSZyozvKQZlRrd+xzCYjMHEVwCy0EZ7TABdHGNb8RpRhapRixURaCIUnBPM67ec0Ml8C66E5HuRjiLToH7/F2kAg+j77xvAjlhZEUnEyxnI/73XyPr8vvg/fpcLoMgS8miv8uib3InAWpmK+8HTr+Rs9MPcOHV2+htRseh6mPhtL56wDXXep143ltI9Uk9iRLH+Mkku5LUl60zAis60AJNzspUIJHaOZxE+eAQWfwzAfKZ5TUksUwmcKibdMo04kesjUYxg3zzNByY15rmKC54+FX826kV+PgJUzElJ8HGOMZNWXbEJJJ6tD66zcv4isLhmIIS8nv0nw3c0e9gW30rVu0pwNodQZw7byaunMsRbxZhqV6KSIN/Lo2IUQqna3/EheJTWNM2UoOTEekNIbrsX9genJqfeyPiEYrhxuLLJsmmW+X8L5ErcTA9+UE4XNfjOdlw2l9BdNNfEczmbBOXkkKDIdNoGPRNqjvlL2pI8tlF3gzeUyBOo/bLnUL2JR0K6lNr5TYPDvCPAYlYjY5UbcYIhiYzWjPI+2paenDXun1o62PDCRz2ww4KICm1NNQk0etBP+87XmnA7i4XX31bJaZP4kq6hGOzGkViAP+ydLKAriY6NnPh9hiDaVB2Ypxa0PKtufh/K7vwKhWOrfvrUJkfRmN3AJccm4Uih53ghJkr1Wm3m/uP7ER81/Nw5n0cQRr73O0PIihZopdWT04HIN6GwGs/4V4kU5mGTdpP9sOrYDeBVVzOrLhXibaeiJMiq+n0BVxU7tENkdvo6cEYAsujwBsPFhHEHDTFxzAtg0wQBEpqECAc1s+CxBIBGSrFLXRWnLEGk7tM70LbYFajz9RB/MZjeHhXC15sIAmVwGYBkjybaAf5x3xqSlpSNS5z/M3mZty2cjc6+uSOaLBsytUH65DNxeunDeIADFRm2SZljnZSkDuXtuEPa5qwcU8Xbjp/Jm6+IAd1HAi9bhHLYYcGNEfC76VsEiqbD6e3EaEnb4a7mVTgtFvoktCCePYksiWO7lAR4gv/FV7JCeY7AnRRCHA9MTbcg3jrRjgLv0jPSS0hpXquusfb2c2c6tCSUr+rTbpR/3B9EFfXcJkQZ8yLSUlE6UwfDG5DaaZTp04zqwi0kkCHVjYKINJeNT+miVoRhrGEJEhSqcjQhA1dUfyCVKR/bHkOTX5Q9/3BfvxmZwu+umwTemNSGQeCBFqZ5tBRz8Yf/G4gVpqrAEHADl25pxxPbGglp3SQnx3E7e8rxIzSGKZV5NEFRXuMsCOp7QRi2bRvlKKFWo1z6nWIn38n1+deQ6emZxFvIVvKKYZ3wU8Ru/A+ONSuwp3cskL7l2jJBimQlkPEn/sSnCnzEat8j9EMDRX0suEWn0Olp5JliZWOJfiNH6CgHZ10Npz8MpModfbX5mLZi+QSHaIaoh6yfVVVVRFAU82EalNTU5La2LTpzmaISh6Rz+jwIIR6eHZ/BzZ3kTyF+EEHK6QOz3zkJy7JPeWen23rQdXkWvzLgum0LvojR3TE/OskJTGNPEbSydV6YbKG7z8li6jyiuFLF5VzqedOanZ5xt0g5LVxcKstuE9IRIY5B0W1L8B7+kvwyufB3VHLtcMrmZps5rmvITD1fFazHR7XFTsxAm/ZbT7AVt9B0aEN2fRx8Z68hRp7B2WQp5kfnYGqfwmvq5oakJp/MKvggwyBIOHOBtpYx6l4B8sXO7SUREkGU5MMmZjHIgiaH9N0hw6BRyDKFEIi3bKypqMkHlmQNJunq8m4Q6yQBILDFtQALI/l3vVqI86dXojTKgrYAXqqUeXA7WlglQ7AZ4T7gLxQPw0rtrzKra4CKC2I4IqTKHzSQru7I4TKQjY9N6rRODCUwGUnsgoOTf2gYcxroXFMfUqWpZZB7z541T/nNe8kw1B2c5ro8KT7rp08E7xhbjLTsZ7lWSBzdLuUo3Y9xPgHABKj64rVMtfZFxqWywJ4TlCYZP56OrYgtqT+FwvSJG4moDiaUhZvGirIiGSR66OTlXq0liT09QqoY6t32ljNvXHcvbYB7b3k/2wM1cuEGJdBGsCkTTb8IVXe//7tDnahdgfycP6cbJTnNaAzmoM1O3owZ3opssO0/Jqln75m4GdCpAgYxmAnOcIG2iuoJQWMkGuf6azBZEGhW6XRvQ69E/L0bKxUREk00vsQm3IOZZ8qmiR4mxL8VYs0rBkhP/M5JYm5FFB0aOck+fMINEODo4fpdGrFVfTtTR3o9UXyoWkP272sIqsbO7CugZoGG5iQZtlifZRHEka0kSujL3GxsTmCl5oJtAin2EklTprJReacZ9/TOxmb6vowv6yemr7M6CIlEmCVTod6RCNW1zaog+293imOvVccXdv71B6113pnrxXfXkut9a/FVgfyIGg5oAMnXkNQcmOdobKMIbHMc5TzUFcOEQOBZObMmaqEYT/mIuVPRiirnqpiUxdHK7WBIx129USxqrmLwrMmF9UWBHe0lWxhlMk8GspcyjayDD/5CnlwN6cmueVhUV4Qs0q4cyLZwZ1P7cb8mQWYM0Xknw3taAtMAtCY3qWVEKYEpL8To9Rv0jIOHN8izPic4ONmZzy4YDsx02FMP2zBOKmWx3dSijUZSlWI2VG2INC9gFV/2dJaiMW6amY8Kssvc4tzMpC6Hp8zLsuPFR6H4PSFTO+zW0ZhUC8ZhqdqMh/dK/gQ0zuX2qJhjyau/07v/UP3/GQCT9Z2Wd2HOiypVdIGZaF8uqkevzECZaOaelz/1jJMyrYNoTqSDJt9RTLUMkj1vr8YbdE2vLAjgN6o38CzKyKYUx7Dhv25eHxdA352XSkKw2JfiQGhBuDUgBsswKvNITz7SgCb6/pRUhrBohkRnHVcGPlxNp8jIVhNpY5QZ/eYKfzNDcV4aG0ntrd0oyTbxcfOLsPcyXUUvrmFlXMcfrViH95SkYULjyVdlF2Gz/f3FOEPL3qoru/CdYsiOLWSeZNVxTk/81x1ETagEh+7vBj5xgyhUh1uLd6CPXt2Y+vWrehob8OVV32QKxtlFA1iy6ZN+MsTT2Dz5i143/veh/PPP8+AwcoxyiFVO7Iih0wi9lpxMoDEoiylMxT7SAZ22Kr6TtRF4yim2qpgRjRJ3si19O0sO5o9sk65I4Sp5kYxncSikHMs7/95LS6anYtzZxEgItX6dAWO+nikAt//azfueqYBJXR3EMD2renGveEufPCsYnz7shiyo3RRCIpasB70kItln4Cv/XEPfvdCHTp64vjA/BKsr+nDZ3/bgP/7gVI0N/Xisw9uQX+3h+++n+Z6yRoUZBujU3Hro3147OUGluOhO1aAH3yAGhddERtoWPzaI61YfNXxCEW0PZaYrkNgbMa1115ndjqShvrpT99gnLPipBwPPvg73H777bSJ7KeHYR/Wr19HW0kZTj75ZP/7MvwV65ERTjYVGzLwEY0Iv+lLsjXJZaMf2XOUAuYq2k6SFTKqhu3VDHXjDGw8VMuOysVre/1Rz+GEY6bk4dcvdqORkvl3PsAdDKUlieSb4GF/ZyE+9osu3PanVnx0QTFWf20aHvncTBTlxtFKX5ll67vwSo3KpmtCvIiqKeWm2mmYe+truOupZhRnhfDI50/Cj68O4/7PUCsLRXDZ3fW44v4G7GnuxZTSbArKbNgATfrs8JVbAliyvgU9/ZouDCPCnYZzIn0E017897I8bKyL46R5C9h5BCMpp8tB89hjfzEUpLWpwbCJ448/gZ8WxC9+8XP88z9/DDt37uDzXuO3s3lzNbZv3+l/3gh/pekOFV7TgkSfLpcAaQAFtO4hIingCAeZwWm2f4E2G2kJmpn2wrRnOJIHMgc31IH+zihea6XKbGw89Iah/0p7bwRPbe3D96+tRGku54C4xYPLORjO95PFurjj8S48uKoO82bk4Rvv5s+a9NdgcriVDU4THMHZQ4rW26vmC3DWOsz5nzBu/FUDatujyOOE3o0XTsGZ02v5tg9FaMBJ5Zzx6eiT7GlCFad2qsposKNltof+OS/sctFEyhMMxVCY5eDsOQXYQTb3zWcnEXRbcfrC+Tj9jAVMKy0nbLSRpUuXGnCIg55y8kmYfews/PCH9+DOO+/GZZe+G6WTS0xZel80qYBqLgEtanmAISSBZShyRDjkOyJiUppHwVA8MDnKDrCEcY6+tInzJKof/3kh2U18GSNTMU48wm6KYFMte8ffBxy9HK1LaHH95Nm5WDyTlEnfGpLPTAk/tRvLt+Xit2ubmaVLa2wxcVMHpy8XNW0hCs4qPY45pUEevKZ1takngG883IqNe3sJoBB9Y3Jw5SkSdLkIjWtkPC7N7NWmwCZwIRrlpJMrYpgUobznliEe4+oAAkSAU+BWNHhqm4v7V/bhpZ3csJj2lDlz5tJSWsm+MlGw9uWXecgm44ey8go8+tifseal1bj33ntJaeL41Kc+jcYmfQcwfcYMzOBqB8sh/FRj++tIBVIQmbHBUBJW2GXjlZP/L8xJS3Bs9MNzNkANYBf5cydbSiZ1Nyw/0lFmgDkL20HN4OVdpDia5+E3xdlx86d7+MQZHPUep/lJ1h12vlwp48FJ+PffNNL9EphMF4RZJXI27kMn392ztBdNpEoFuRHcsLgUFYXUegiK+57rwIodPitzaae45dJyFIWa5BcloodYtAwNrQKBY+ShAs5uLz5emgvV2th+UjYHs8s4H8O0cbKtbs5XPftqG6ob+tEXC6KgMBfvufRdSWNXnFuHbtq8OQmAYDCEtWvXYdmy5fje9+7EggULsGHDRmzbti3ZN5WVnFWvrCR3SD4a8wUJCStOk6wk2kFBg4SkiWMM51aJ7xIo5IMHg8RB+R7sjchagqLFqAIac3xOKSuZkDMy5cu9PXp7S9HAyTt/Qi2GmaVZuOcaTnxlU70kC/Hccg0JjvpGrN4XwYa2GGfwY5RbuBcb50rqOrPwgxU5+POGTkydFMbvPj4Zl83mpjikrl39+fiPv9A1kXWTS/fcgiAdqKgKSyCl7EAxG7XEwtrNDayh30P5dCk4sTKMmCPn6CBX5LXjU2f14tL55SgvDOGPn5uD3910HI6l3KQm1wTdwncsSn5hV1c3Vq16IXkvlTUrK4zbbvt3zJ5zLDq5Tmr5s88kB74cyc84YyHXUafu55JMPuqFIRECiZ1WVgp9Cq1sBAQv2DkXzq7kAzaohob/nYp2ZALrs6eVq/TYvIG8UnZwBgXN1o4UYm+bTwmD7HjRiwVV+XTMJrgSs8tB+qfKJqHjyXW+p5pStHM6/77VufjM74N4fnMjPn9eLl78aiXeWUXLJG0cHoXO370icLCryco8ak1Xnct9ZJmfytEAC8b348lXo6jr05Qk10+z1xfMKiaridHlURrUFD4LYcmrPdhHw+VPPlyKxTP2Y9krW7Bik1hFFJdecokvT5gOoVmCKxnWrl1rv9B0/he/+H9w9tnv5LMA9tfW4tnlzyXfa27mPe95r2FVPrs6sE5MgkQqVKYwtygH51QmLJGZIh2O5wKpqLYJFF4L+UsPJLUjBsoMuzhnl0A8z3EUTKJ6R1cAyRw2OHTk6Y2G8NfX6I2mWGzN7fsJBprirzuzDPdeHcIt5/CHlCLsuGA+qVInf2miEL99SaAiAPSjAzxOnVno5y0ZjjacptgM/HgJZRpNJyT65l0nJYx17NCw14LVdWX4ztMxXHJiAc6h3aQ+VoH/Wala+PW78sorbTXJLhxqKdXcCXp38pnmXa6++ipqNtJ8HCxZssSsgLQRzn3nWWaXbLWB3jcZOWXsQEmCRDJJJv8Cof6yYyiOi9wn0GwrcFjP0k6SIGFfFdJLLKd81Cp0Eg9inRLQpV4GuyifmKkGdqQJnNOlbeLbSxxs3Ee2xDhme3HGvnhWDO+Z3YwpJVywTtbl0IDmhuTWWIyfPx/CyzuobUVEMwzZRW6EoJWfSIDUKbsc332iHzub6KpI0LhGeA1g4Vs44LTbI2WdtfXFuPonTZhRGMYN7+hFdrAJq2toA2mi3cb0DnDc3LmmlurgTZtew4c+dE2i3v7p/PPPNz9EYB8++ODv7aU5f/gjH6FIwTmpRPqvf/3feH2AIJF1TbJJ6jZKssTZQ76g50wv4RKIg+Npg2r8um4GRr5GWYDzLF7ZO3lpSEX6nDlFHw75YJCnoITTJ7d0oVuuCDR+yZbd0t2Pby7Jx73PtaIgywJHozKCO/7aypFN4TjOzXG496tcJjs533nn8hC+RXuI2IfxdkyUvqmRO9RHubgtlo8nN7bh4Y3tuOLMYwihPmopVHkZr7kjC70E7eM7CnHpnXtQVRLC/deGMTmPC1Ui+XiGso+AasPOnTvpJNRNwXQZLrjgQi7eExUcCKef/vbkTTutritXDsgrenHWWWcb+UTC7MUXX0K3EF81TiZKuUgHHkOr9UILoIYJr4nEWmE3Z3IeLpxRwEky+k4atTMl58N5mRhdtsh4xckIbOXAtQ+Gnj26GEwL0RJBz1XKJ3ItoAyLH5IKXDw3j95oHfjl2nz8bXMLvvehmRzt2bj+Z+ulvFLOiOLPWhbxgIurTsvDtLxWWj8rsGQH8KcX9+CLF1dg7b5c/O8K7q+qyUYKrt/6343YTxuJrK2rtnXgP99fghZm8fDzpDaUp+RB/+9P1uDMOdPwl9UNWDSrAD++Jo8ySgNbmWpy1UextmsZ2ZlsLJJ2PNx88820lJ5EkDyHRYsW4V0XXYgbP/u55JcW5JB9MohS1FIeGRpkT5E32v33/hSLFp6OW2+9lXVJHXADKdJN+CZBIuFVkzvaSSjVbq/kqqymqD7KeZP/2daEWlLYIxZY49I83wxu5kumnWImtkj40gfKJDOLOnAuAfE45Q3q/LSTxPBfTzTjoTX5qGv1MHtyH358bQXtG/UcAJOw+K2FeGYzZQ7NWnBy8LG/t2Pp5j6UFwTQ3LKDs/xBWmkn4/ITW7FwXwF+s4ICKAFAsoRa+gB/59E6lFMh/NdLyvCuY7uxYhfX3ZBVBilTicovp3/MBi4luWlxMT65KBtFwT0UmqmpHXMegmd8GZWV1Vjz8sbE93A6YtUqVFdX4/rrP4nPf/7zWLfu74O+tTDhMKYOHrwjpR/thhs+ZdjRRz58NW767M28lkwk9jg8SCge6oCWHJeaI8gsl/g9MJP6+s/OnsX8+aWJ9SjDizlET4ylUOV6KM2mzMBidASLZ3NxVJVfqLbZThFGzUOS+KKIi89ekI1Z5XRili2CrKaNpvWaPY24/twy/Pr6MBbPqkcW7SL5nOS76+piAoUNSf9V30RKv5qePmyv78FlnItZfus0XHliH/JDuTj1LW2442oaqfza8EzLTbaH2y/JxXXzlWcI86Y04TTKIXHN5lIWKqR7wrcuL8IXzinA5ALaUxjHKz0O3hlf4Y8jFePGm0QlNNL90V5E7eTuO3+Ar3zly+zAokFAKC3OM/YPRmbwCLCpNKLd4N8m/mo57T333I1bqAEV0vLqA8S24KCoRi4d6nw06KdMREl0VNLokhpSfRBE0v7zea6PeaUV/ca7XYUdhmBsJA4umOTg0atOI7n0JVjJTdFV/4Xwi18ntWcDaGU/F07ZYH5TRkI52cH+3ll4akM9alpdHD8tH2efOAVTAjXEXb0RRPmHvhpt7JoCtMVLsX5nL5ZXt6PVjWBeiYfFJ5Vhel4z3RTrWIZGox9ibi5W7s7F6u39KCsqwCXz81DiVtOMQNtpkL/V5+5Dde8JZFENyCKQLz99CqZn17CuFG7oFuBOOgZ49++5+bPARv9dTtD9bcVzeG75s5g1cxau+OCHaAchLU+wiNraOvz50Udw/j9dRJ/VmUarse9Uo76+KB579GFseu1V2lfOxLnnnmdsYTaO2ixd0D40cmcc+iNLg0Ai7Uabx8j/MXUWUBkOdAp9TGgRvHlJNR6ipzlbgi8PA1AEEgqPX5pXjG+cOTulPrS8NqyF89DlRvHRPuwBsyjbNoO2q6S/Kl0XOctCEGiagTxcP2nmUusI6Xd2uWsBfVvNDyFxcZbA4nHUa2lmkDKMRwut8UyjXUWWXi5W4JEkwsxfaSjoa7koNSCf0vI9J9tc7i7gULAWWA0I5QQdaqUvDF0AIlxKOvUs4MxvEtcz1MqJQ3WX/OS3q+1cPbVBg9WfTknPNvTehsHple/AOxtHXKSxsdGsvRrqyjootjQc6dwCylDHE5uZjDFFlF++dlYVTp+mGWKfJNr3h+xs1F8P80qHaliccyl8C9wZF1A9pRGL2zwMCloiIX8NzsIiyE5h48s5iGjxKY+eyIlHVMSY7RWH/hgEftDcq+P5TC6I/Hj9cgSlGsZJCZybAVguwWZ+yFE/j6IlorSTOGJZpBaS68QqBSInRmsrV/e5p3wBOOcOQ0FIP1j31LaUyi5np4FnCcyYgv3n6QGiCDZtano9TwcQEQf92oeUl8HLapSCVfZPA3+FIh3akio1WHVYZ3GZ4wuz8MD5x6GygI1oZRQlUGeawEjJ68Sj13Viftyu4qQpYiWDVUAnwk469hJO0lFFNXycDStKQQ1FC6r1S5qaF5GuoL4ygS0u074Ir6beDQg4SHw5gB2rpaOaEKTspXSiQiat8TUlAFKC8tEeLb5VmmxQ1EgUVtqKkd2YD1mP9i1x6U0XLT4d+Kefwpl/A/HHNb0EjwGRqBTbN9PBCmV8lynN0Ocp1U5e6pe3REmG/xyMH8X2aDKBLhRZiSSfpAvGHZDkdToXLL9y5QJcURHm2JNezwbSvqKmYdQhvB6vwImu91YWYyqn4TWdb4Mom2mIGVzHUrWYVSB7UF24LCIgNkGzNm8Sh02lszpRx9AmsM911ijW2QZ7bZFmn9uzfS8qQlDJK157lLi1HC9axcdfGD+ZOw5c+QCiMxYbgVUp9Q1+yJSvfT9+Z7Eq9fHu3bsNUci0DbtKZIsPDyI7kknsNlTDpF01Ov/HqR7mERg/ueQE3LdhDx7Y0o5X5TNhshzfDy4itb+4So7Log5s1WTD6pJl5UxGcOHXSWRoXt+7CjkubRe0ivq7DKREHv65h+AJy6PLgZaKSh6KFUzmL4qfQ9PpNXDKTqSgyfY1ABwK0ENQlTRZap5OK/ik7soTTZzDyj9ponNbmVYaCtIE8SlJuwoSZFODxpdZn8suEO+WDybnqrCJuxz9aVcTnqppxZpWjmDLbgwvZgSxJfvMZKj7RM4GU7xRHIWUe4qVuGneZHzulHI6CHHRtaFQPr7Fc8XL9QPQ+hUKr70WvTV/Q9aOP8Ldv5rLMOksbQrRe03Kqc4c5VKXtQeJWIJkDBnDzA9BGwbEZ/zKpDwgquhTVfmGcG0Fy6O8IQ1L6RRUXwmtClwLDK3um3I2f0X8TMTLTkNo8iz6y/Ln6SVYcBT7nyl4SxC2YeDKPhnLWVRBc28azENtXDa9+lNxBA6BRIRAGwQMJQA2fuo5I0gUSYVrKaAyHPwr3QNZGAGJnWQ/r4/+EI1cJ/P0zkYu6qrH443czFfzJJwb4WxWCnXntcBjgwEQO0jCmw5NkHHW9uOcsX3/cdPNZjf5TK8m9fdksyWqnuysRAgQQHECMdDH6fv27fA28OfjG9dw9dxLJH0JKyCXekapLjvcuiroch6GaqrH8hxqO6b3Eqq9SlNwg9SQXFIqyRVsEwMYeciTIngUlAN0GlIVXP7gY6CUSzpPuBShijOAAq6PoU9qKEWbkDvBaEGLpVKt39olQErF0CBAiGWon0QJdFY8XYsTSAjVQBdA9E73Aob6U8dI1CO1rBFBoogqQEBRoXK5T5dxaicpjTrK706HDkIBvLSrEX/b3YinuLZlf1SqG31tNNoEmgQpMd6J7Jwz6OC0oDgfb6sqxMnlxXR6pgFMqqvy5T/5XyikNtmg8g2lYqPRuil1VfVwKJvEW7ZQRKiGt281f2doDbK6tvHjSFEkQ1GL8fdEZSlUUY32whldTzYXdbBGP/MxaqdUWari2iUgkMWF4iG6K1S8E4FjTuXPyNN+k1OhEoVcAkhgN9VN/pH8lC6oEzXSZVZXR1sThEb6SKNd/aH4OpSHXWwnkAlANr3eZ6Iy6eqT+mxUkCiyCrY/KSoBJx1QbKbErJqIjcMG4rUBi1DOO73rJ2jkNNTcxVFrnvLEoJVzBQRETiKunhlthHHkIRck1Rm87VN6SqKVbT6t8UEi90ZD50znGOmFhIr2kS4KlT1NVIK4yFsjtb+RuxRwTS9/oSrUyzW9LC9G7Ub7ihjRLUSmF6b2lEU2klfC2ecKarakQNmSewQLvz4+oHnHeSLzM/fMZzTqoc4UtRAr0LTIaDKC2uZwhjGBRBWyHyK0yiIncpU+2KHDRtOlTqLFhuTqgX2v1KnXuveD4OU3vO6VAQ8DEnW/TcNnyWCf2Qf2nZ5LKVY65cMrk8/wkm0KQdm8tfKIAVcq3RpIq7oIyFpQ5VMIc+cPElsVcx7IfdBj3kg5EEA04i2LGBrnSN+PGSSqqFiPJGLxObnUSTI+kOAbdoZ2aPocMpHl9LHH/nQQaxp7shFiEigJD7cRIg17pUEno6WC5IQ3GvVIrXAmcpAaJ3ktviZyKAFIFjr5n8hCK6qid+MXMo88W4YkdJmRVYcpU6aYRh4bz1XeYwOqLWvk8+h1VXpRYCtAChySP+RWKP/Tkdj3yGUfnrcHRElSq6SPlrFNlEWgEanUaND1oQpqZDWuAKJyrZRur1PrML6gPfgvEsVQfXUI0PoGSzneKHUc7esOGiQ2Y9tx6jxdazSLv4rijCSV2/RjOQuMamA1tMCpMjQCrRqnZ7YjVAcdeqc4Au141WMsdVUc1UXtYQEtMKg+ti5HCzjs975ukNiMLDmV6mVHjbQidZAojM4y96uxRgoChBpXI1DSvjpcjWpHn9LrPhOJtiCxHaX8FFfp1UkCjtKPJ3BUX2ukEphVXipAVZ6OozWMG0iGNoBAI5BY0Kgh1YF6pmA72Z4VX9c61IHq0PEYeSpTgFM97MhWHWw5FiwWPEO/Q/eKL+qlfJSH6mq/R9d6p7padmvzTJfX0fjskIEkU2OoUdVxOqeGwznaLLWxZ4FAAND9SEF1FCUTKHRtzxboI6U9mt+NTPsPwZepQdW4RzIcTkAeye8cr7KPXkY5Xi0wkc+oLTABklGbaCLCBEgmMDBqC0yAZNQmmojw/wEQBYvhdx21/AAAAABJRU5ErkJggg==;" vertex="1" parent="2">
          <mxGeometry x="415" y="310" width="88.39" height="60" as="geometry" />
        </mxCell>
        <mxCell id="PO05EdHQ-00gVQy-0LEZ-131" value="Data" style="text;html=1;align=center;verticalAlign=middle;resizable=0;points=[];autosize=1;strokeColor=none;fillColor=none;" vertex="1" parent="2">
          <mxGeometry x="80" y="122" width="50" height="30" as="geometry" />
        </mxCell>
      </root>
    </mxGraphModel>
  </diagram>
</mxfile>
